<?xml version="1.0" encoding="utf-8"?>
<!-- Generator: Adobe Illustrator 21.1.0, SVG Export Plug-In . SVG Version: 6.00 Build 0)  -->
<svg version="1.1" id="レイヤー_1" xmlns="http://www.w3.org/2000/svg" xmlns:xlink="http://www.w3.org/1999/xlink" x="0px"
	 y="0px" width="58.7px" height="58.7px" viewBox="0 0 58.7 58.7" style="enable-background:new 0 0 58.7 58.7;"
	 xml:space="preserve">
<style type="text/css">
	.st0{fill:none;stroke:#435255;stroke-width:2;stroke-miterlimit:10;}
	.st1{fill:#435255;}
	.st2{fill:#FFFFFF;}
</style>
<circle class="st0" cx="562.6" cy="214" r="28.3"/>
<g>
	<path class="st1" d="M576.9,222.3c4.4-0.8,5.6-1.8,5.6-2.3s-1.2-1.4-5.6-2.3c-3.8-0.7-8.9-1.1-14.3-1.1c-5.4,0-10.5,0.4-14.3,1.1
		c-4.4,0.8-5.6,1.8-5.6,2.3s1.2,1.4,5.6,2.3c3.8,0.7,8.9,1.1,14.3,1.1C568,223.5,573,223.1,576.9,222.3z"/>
	<g>
		<path class="st1" d="M562.6,230.5c11.5,0,18.8-2.2,20.3-3.4v-5.9c-2.4,2.4-13,3.3-20.3,3.3c-7.3,0-17.6-0.9-20.2-3.2v5.9
			C544,228.4,551.3,230.5,562.6,230.5z"/>
		<path class="st1" d="M578.1,231c-4.3,1-9.8,1.5-15.5,1.5s-11.1-0.5-15.5-1.5c-2.2-0.5-3.7-1-4.7-1.5v4.4
			c5.1,5.3,12.3,8.5,20.2,8.5c8,0,15.1-3.3,20.3-8.6v-4.4C581.8,229.9,580.3,230.4,578.1,231z"/>
	</g>
	<path class="st1" d="M576.2,206.6c0-0.8-4.8-2.2-13.6-2.2c-8.8,0-13.6,1.5-13.6,2.2s4.8,2.2,13.6,2.2
		C571.4,208.8,576.2,207.4,576.2,206.6z"/>
	<g>
		<path class="st1" d="M576.7,207.6c-2,1.8-9.8,2.3-14.1,2.3c-4.3,0-11.9-0.5-14.1-2.2V219h0c0,0,0,0,0,0.1c0,1.5,6.3,2.7,14.1,2.7
			c7.8,0,14.1-1.2,14.1-2.7c0,0,0,0,0-0.1h0V207.6z"/>
	</g>
	<g>
		<circle class="st2" cx="552.5" cy="214.1" r="1.5"/>
		<circle class="st2" cx="572.7" cy="214.1" r="1.5"/>
		<circle class="st2" cx="559.2" cy="215" r="1.5"/>
		<circle class="st2" cx="566" cy="215" r="1.5"/>
	</g>
	<g>
		<g>
			<path class="st1" d="M562.6,201.5c-0.5,0-0.9-0.1-1.4-0.3v6.3h3v-6.5C563.7,201.4,563.2,201.5,562.6,201.5z"/>
		</g>
		<path class="st1" d="M559.7,197.2c0,1.8,1.3,3.3,2.9,3.3c1.6,0,2.9-1.5,2.9-3.3c0-1.4-1.8-4.4-2.9-6.1
			C561.5,192.8,559.7,195.8,559.7,197.2z"/>
	</g>
</g>
<g>
	<path class="st1" d="M14.5,20v33.5c2.8,1.7,5.9,3,9.2,3.6V13.4L14.5,20z"/>
	<path class="st1" d="M25.3,13.4v44c1.3,0.2,2.7,0.3,4.1,0.3c6.4,0,12.2-2.1,17-5.6V19.9L25.3,13.4z"/>
	<g>
		<polygon class="st2" points="36.7,44.5 28.9,44.5 28.9,45.8 36.7,45.8 		"/>
		<polygon class="st2" points="36.7,39.9 28.9,39.6 28.9,40.8 36.7,41.1 		"/>
		<polygon class="st2" points="36.7,31.1 28.9,30.3 28.9,31.5 36.7,32.3 		"/>
		<polygon class="st2" points="36.7,26.7 28.9,25.5 28.9,26.7 36.7,28 		"/>
		<polygon class="st2" points="36.7,22 28.9,20.3 28.9,21.6 36.7,23.3 		"/>
		<polygon class="st2" points="36.7,35.5 28.9,35 28.9,36.3 36.7,36.8 		"/>
		<polygon class="st2" points="38.7,45.7 43.9,45.7 43.9,44.5 38.7,44.5 		"/>
		<polygon class="st2" points="38.7,28.3 43.9,29.1 43.9,27.8 38.7,27 		"/>
		<polygon class="st2" points="38.7,22.5 38.7,23.7 43.9,24.9 43.9,23.6 		"/>
		<polygon class="st2" points="38.7,32.5 43.9,33 43.9,31.8 38.7,31.3 		"/>
		<polygon class="st2" points="38.7,36.9 43.9,37.3 43.9,36 38.7,35.7 		"/>
		<polygon class="st2" points="38.7,41.2 43.9,41.4 43.9,40.2 38.7,40 		"/>
	</g>
	<circle class="st0" cx="29.3" cy="29.3" r="28.3"/>
</g>
</svg>
