<?xml version="1.0" encoding="utf-8"?>
<!-- Generator: Adobe Illustrator 21.1.0, SVG Export Plug-In . SVG Version: 6.00 Build 0)  -->
<svg version="1.1" id="レイヤー_1" xmlns="http://www.w3.org/2000/svg" xmlns:xlink="http://www.w3.org/1999/xlink" x="0px"
	 y="0px" width="58.7px" height="58.7px" viewBox="0 0 58.7 58.7" style="enable-background:new 0 0 58.7 58.7;"
	 xml:space="preserve">
<style type="text/css">
	.st0{fill:none;stroke:#435255;stroke-width:2;stroke-miterlimit:10;}
	.st1{fill:#435255;}
	.st2{fill:none;stroke:#435255;stroke-linecap:round;stroke-linejoin:round;stroke-miterlimit:10;}
	.st3{clip-path:url(#SVGID_2_);fill:none;stroke:#435255;stroke-linecap:round;stroke-linejoin:round;stroke-miterlimit:10;}
</style>
<g>
	<circle class="st0" cx="29.3" cy="29.3" r="28.3"/>
	<g>
		<g>
			<circle class="st1" cx="17.3" cy="13.9" r="5.5"/>
		</g>
		<line class="st2" x1="13.1" y1="30.7" x2="14.6" y2="21.4"/>
		<line class="st2" x1="24" y1="27.3" x2="20.7" y2="21.1"/>
		<line class="st2" x1="32" y1="19.2" x2="24.8" y2="16.6"/>
		<line class="st2" x1="31.3" y1="9.2" x2="24.5" y2="10.5"/>
		<line class="st2" x1="18.3" y1="26.5" x2="17.6" y2="21.8"/>
		<line class="st2" x1="27" y1="22.4" x2="23.2" y2="19.4"/>
		<line class="st2" x1="9.4" y1="24.1" x2="12" y2="20.3"/>
		<line class="st2" x1="31.2" y1="13.8" x2="25.3" y2="13.7"/>
	</g>
	<g>
		<polygon class="st1" points="33.7,49.8 41.7,49.8 43.1,43.1 32.3,43.1 		"/>
		<path class="st1" d="M43.9,31.9c-2.3,1.7-3.4,5.9-3.8,7.8h-0.4c0.1-1.4,0.4-4.2,0.6-7.1c0.1-1.5,0.1-4-0.7-5.7
			c-1.9,3.1-1.6,11-1.5,12.9h-0.5c-0.1-1.4-0.3-4.2-0.5-7.2c-0.1-1.5-0.5-4-1.6-5.5c-1.3,3.3,0,10.5,0.5,12.7h-0.6
			c-0.4-1.9-1.5-6-3.8-7.8c-2.9-2.2-4.3-1.5-4.3-1.5s1.5,0.6,2.7,2c2.9,3.5,3.1,6.1,3.2,7.2h-2.3V42h13.6v-2.4h-2.1
			c0.1-1.1,0.3-3.8,3.2-7.2c1.2-1.4,2.7-2,2.7-2S46.8,29.7,43.9,31.9z"/>
	</g>
	<g>
		<defs>
			<circle id="SVGID_1_" cx="29.3" cy="29.3" r="28.3"/>
		</defs>
		<clipPath id="SVGID_2_">
			<use xlink:href="#SVGID_1_"  style="overflow:visible;"/>
		</clipPath>
		<line class="st3" x1="9.3" y1="49.8" x2="49.4" y2="49.8"/>
		<line class="st3" x1="9.3" y1="52" x2="49.4" y2="52"/>
		<line class="st3" x1="9.3" y1="54.3" x2="49.4" y2="54.3"/>
		<line class="st3" x1="9.3" y1="56.5" x2="49.4" y2="56.5"/>
	</g>
</g>
</svg>
