<?xml version="1.0" encoding="utf-8"?>
<!-- Generator: Adobe Illustrator 21.1.0, SVG Export Plug-In . SVG Version: 6.00 Build 0)  -->
<svg version="1.1" id="レイヤー_1" xmlns="http://www.w3.org/2000/svg" xmlns:xlink="http://www.w3.org/1999/xlink" x="0px"
	 y="0px" width="58.7px" height="58.7px" viewBox="0 0 58.7 58.7" style="enable-background:new 0 0 58.7 58.7;"
	 xml:space="preserve">
<style type="text/css">
	.st0{fill:none;stroke:#435255;stroke-width:2;stroke-miterlimit:10;}
	.st1{fill:#435255;}
	.st2{fill:#435255;stroke:#FFFFFF;stroke-width:0.8;stroke-linecap:round;stroke-linejoin:round;stroke-miterlimit:10;}
</style>
<g>
	<circle class="st0" cx="29.3" cy="29.3" r="28.3"/>
	<path class="st1" d="M28.9,46c-0.2,0-0.3,0.1-0.5,0.1c-0.3,0-0.5,0-0.8,0c-0.1,0-0.3,0-0.4,0c0,0.1,0,0.1,0,0.2l0,1
		c0,0.2,0.2,0.4,0.4,0.4l0.9,0c0.2,0,0.4-0.2,0.4-0.4l0-1C28.9,46.1,28.9,46.1,28.9,46z"/>
	<path class="st2" d="M21.8,21c0,0-0.5-3.5-6.4-1.6C9.3,21.2,4.8,30.1,4.8,30.1s4.7-0.9,9.9-0.7c2,0.1,7,0.1,8.3-2.2
		c1.8-3.2-0.8-4.4-1.9-4.7c-1.1-0.3-5.6-0.4-9.3,3.5"/>
	<g>
		<path class="st1" d="M21.5,23c-0.1,0.1-0.1,0.2-0.1,0.4c-0.1,0.5,0.3,1.1,0.8,1.1c0.3,0.1,0.7,0,1-0.1c0,0,0-0.1,0-0.1
			C22.8,23.6,22,23.1,21.5,23z"/>
		<path class="st1" d="M55.7,17.4c-0.4-0.4-1.1-0.3-1.4,0.1c-0.1,0.1-5.1,6-13.5,5.9c-2.9-0.1-4-0.8-5.2-1.7
			c-1.2-0.9-2.6-1.8-5.7-1.9c-1.9-0.1-3.7,0.9-5.2,1.7c-0.8,0.4-1.8,1-2.2,0.9c0,0,0,0-0.1,0c0.6,0.3,1.1,0.8,1.5,1.5
			c0,0.1,0,0.1,0,0.2c0.5-0.2,1.1-0.5,1.7-0.9c1.3-0.7,2.8-1.5,4.1-1.5c2.5,0.1,3.5,0.8,4.7,1.6c1.3,0.9,2.8,1.9,6.3,2
			c0.1,0,0.2,0,0.4,0c9.1,0,14.4-6.3,14.7-6.6C56.2,18.4,56.1,17.8,55.7,17.4z"/>
	</g>
	<path class="st1" d="M25.2,19.5c0,0-5-5-9.9-5.1c-1.5,0,1.5-2.9,5.5-2.2c1.4,0.2,4.5,1.9,4.7,4.5C25.7,18.5,25.2,19.5,25.2,19.5z"
		/>
	<path class="st1" d="M42.9,45.3c0-0.1-0.1-0.1-0.2-0.2c-0.5,0.3-1,0.5-1.5,0.7c0,0.1,0,0.1,0,0.2l0.4,1c0.1,0.2,0.3,0.3,0.5,0.2
		l0.9-0.3c0.2-0.1,0.3-0.3,0.2-0.5L42.9,45.3z"/>
	<path class="st1" d="M45.1,38.6c-0.2-1.5-1-2.9-2.2-3.9c-1.1-0.8-2.4-1.3-3.8-1.3c-0.2,0-0.5,0-0.7,0c-1.6,0.2-3.1,1-4.2,2.2
		c-1,1.2-1.5,2.7-1.3,4.3s1,2.9,2.2,3.9c1.3,1,2.9,1.4,4.5,1.2c1.6-0.2,3.1-1,4.2-2.2C44.8,41.7,45.3,40.2,45.1,38.6z"/>
	<g>
		<path class="st1" d="M33.8,38.6c-0.1-0.6-0.2-1.1-0.4-1.6c-0.4,0.9-0.6,1.9-0.5,3c0.1,0.6,0.2,1.1,0.4,1.6
			C33.8,40.6,33.9,39.6,33.8,38.6z"/>
		<path class="st1" d="M31.9,40c-0.2-1.4,0.2-2.9,0.9-4.1c-0.3-0.5-0.7-0.9-1.2-1.2c-1.1-0.8-2.4-1.3-3.8-1.3c-0.2,0-0.5,0-0.7,0
			c-1.6,0.2-3.1,1-4.2,2.2c-1,1.2-1.5,2.7-1.3,4.3s1,2.9,2.2,3.9c1.3,1,2.9,1.4,4.5,1.2c1.6-0.2,3.1-1,4.2-2.2
			c0.1-0.1,0.2-0.2,0.2-0.3C32.3,41.8,32,41,31.9,40z"/>
	</g>
	<g>
		<path class="st1" d="M35.5,23.9c0.2-0.4,0-0.8-0.4-1c-0.1-0.1-0.3-0.1-0.4,0c-0.1,0-0.3,0-0.4,0c-0.3,0.1-5.6,2-7.1,9.6
			c0.5,0,1,0,1.5,0c1-4.7,3.6-6.9,5.1-7.7c-0.2,1.5,0,4.3,1.6,8.7c0.4-0.2,0.9-0.5,1.4-0.6C34.4,26.5,35.4,23.9,35.5,23.9z"/>
	</g>
</g>
</svg>
