<?xml version="1.0" encoding="utf-8"?>
<!-- Generator: Adobe Illustrator 21.1.0, SVG Export Plug-In . SVG Version: 6.00 Build 0)  -->
<svg version="1.1" id="レイヤー_1" xmlns="http://www.w3.org/2000/svg" xmlns:xlink="http://www.w3.org/1999/xlink" x="0px"
	 y="0px" width="58.7px" height="58.7px" viewBox="0 0 58.7 58.7" style="enable-background:new 0 0 58.7 58.7;"
	 xml:space="preserve">
<style type="text/css">
	.st0{fill:#435255;stroke:#435255;stroke-linecap:round;stroke-linejoin:round;stroke-miterlimit:10;}
	.st1{fill:none;stroke:#435255;stroke-width:2;stroke-miterlimit:10;}
	.st2{fill:none;stroke:#435255;stroke-width:1.5;stroke-miterlimit:10;}
	.st3{fill:none;stroke:#FFFFFF;stroke-width:0.8;stroke-miterlimit:10;}
	.st4{fill:#435255;stroke:#435255;stroke-width:1.003;stroke-linecap:round;stroke-linejoin:round;stroke-miterlimit:10;}
	.st5{fill:#435255;}
</style>
<g>
	<path class="st0" d="M38.8,30.6c0,0.2,0.1,0.4,0.3,0.6c0.2,0.1,0.4,0.2,0.6,0.3c1.8,0.1,3.8-0.7,5.2-2.2c1.9-2,1.9-5.9,1.8-6.1
		c-0.2-0.1-4.2,0.2-6,2.2C39.2,26.8,38.5,28.8,38.8,30.6L38.8,30.6z"/>
	<circle class="st1" cx="29.3" cy="29.3" r="28.3"/>
	<line class="st1" x1="25.3" y1="51.2" x2="33.3" y2="51.2"/>
	<line class="st1" x1="29.3" y1="17.9" x2="29.3" y2="51"/>
	<line class="st2" x1="20.7" y1="20.9" x2="29.1" y2="29.1"/>
	<line class="st2" x1="29.5" y1="40.8" x2="43.1" y2="26.7"/>
	<line class="st3" x1="38.7" y1="31.3" x2="43.1" y2="26.7"/>
	<g>
		<path class="st0" d="M20.1,20.8c0.2,0,0.4-0.1,0.6-0.3c0.2-0.1,0.3-0.3,0.3-0.6c0.3-1.8-0.4-3.8-1.8-5.3c-1.9-2-5.8-2.4-5.9-2.2
			c-0.2,0.1-0.1,4.2,1.7,6.2C16.3,20.1,18.3,20.9,20.1,20.8L20.1,20.8z"/>
		<line class="st3" x1="20.7" y1="20.9" x2="16.5" y2="16.2"/>
	</g>
	<g>
		<path class="st4" d="M24.1,34.6c0-0.2,0-0.5-0.1-0.6c-0.1-0.2-0.3-0.3-0.5-0.4c-1.7-0.6-3.8-0.4-5.6,0.6c-2.4,1.4-3.6,5.2-3.5,5.3
			c0.1,0.2,4.1,1,6.4-0.3C22.6,38.1,23.8,36.4,24.1,34.6L24.1,34.6z"/>
		<line class="st3" x1="24.9" y1="33.7" x2="18" y2="37.6"/>
	</g>
	<line class="st2" x1="24.9" y1="31.2" x2="29.1" y2="35.6"/>
	<path class="st5" d="M34,33.6c0.1,0.1,0.3,0.2,0.5,0.1c0.2,0,0.3-0.1,0.5-0.2c1.1-1,1.7-2.5,1.6-4c-0.1-1.6-0.8-3-2-3.9
		c-0.3-0.2-0.7-0.2-0.9,0c-1.1,1-1.7,2.5-1.6,4C32.1,31.3,32.8,32.7,34,33.6L34,33.6z"/>
	<path class="st5" d="M36.4,36.9c1,1.3,2.6,2.2,4.4,2.3c1.8,0.1,3.5-0.6,4.6-1.8c0.3-0.3,0.3-0.8,0.1-1.1c-1-1.3-2.6-2.2-4.4-2.3
		c-1.8-0.1-3.5,0.6-4.6,1.8c-0.1,0.2-0.2,0.3-0.2,0.5C36.2,36.5,36.3,36.7,36.4,36.9L36.4,36.9z"/>
	<path class="st5" d="M25.1,22.7c1.2-0.8,2-2.2,2.2-3.8c0.2-1.6-0.3-4.2-1.3-5.2c-0.2-0.3-0.6-0.3-0.9-0.1c-1.2,0.8-2,3.3-2.2,4.9
		c-0.2,1.6,0.3,3.1,1.3,4.1c0.1,0.1,0.3,0.2,0.5,0.2C24.7,22.8,24.9,22.8,25.1,22.7L25.1,22.7z"/>
	<path class="st5" d="M22.5,25.1c0.1-0.1,0.1-0.3,0-0.4c0-0.1-0.1-0.2-0.2-0.3c-0.9-0.7-2.1-0.9-3.3-0.7c-1.2,0.3-3,1.1-3.5,2.1
		c-0.1,0.2-0.1,0.5,0.2,0.7c0.9,0.7,2.9,0.8,4.1,0.6C21,26.8,22,26.1,22.5,25.1L22.5,25.1z"/>
</g>
</svg>
