<?xml version="1.0" encoding="utf-8"?>
<!-- Generator: Adobe Illustrator 21.1.0, SVG Export Plug-In . SVG Version: 6.00 Build 0)  -->
<svg version="1.1" id="レイヤー_1" xmlns="http://www.w3.org/2000/svg" xmlns:xlink="http://www.w3.org/1999/xlink" x="0px"
	 y="0px" width="58.7px" height="58.7px" viewBox="0 0 58.7 58.7" style="enable-background:new 0 0 58.7 58.7;"
	 xml:space="preserve">
<style type="text/css">
	.st0{fill:none;stroke:#435255;stroke-width:2;stroke-miterlimit:10;}
	.st1{fill:#435255;}
</style>
<g>
	<circle class="st0" cx="29.3" cy="29.3" r="28.3"/>
	<g>
		<g>
			<path class="st1" d="M25.4,51.8C25.4,51.9,25.4,51.9,25.4,51.8l3.6-7.3c0,0-1.4-3.4-1.5-3.6C25.1,47.1,23.4,49.2,25.4,51.8z"/>
			<path class="st1" d="M45.3,16.4c-0.6-2.7-1.7-4.7-3.4-5.7c-1.7-1-3.4-1.1-4.8-0.1c-3,2-4.5,4.6-4.2,7.4
				c0.5,5.6-1.2,13.7-2.6,16.7c-0.1,0.1-0.2,0.6,0.2,0.8c0.6,0.4,1.7,1.1,1.9,0.9c0.3-0.1,0.7-1,0.9-1.5c3.1,1.2,6.6,0.2,8.5-2.4
				C45.4,27.4,46.1,20.7,45.3,16.4z M39.6,30.8c-1.3,1.8-3.6,3-5.6,1.5c2.5-5.9,2.7-10.2,1.5-14.6c-0.7-2.3,1.8-4.2,3-5
				c0.7-0.5,1.5-0.1,2,0.2c1,0.6,1.8,2,2.2,4C43.4,20.6,42.8,26.5,39.6,30.8z"/>
		</g>
		<path class="st1" d="M31.9,38C31.3,37,30,37.4,28.9,36c0.2-0.3,0.3-0.7,0.1-1.1c-1.4-2.7-3.7-11.1-3.2-17c0.2-2.8-1.3-5.4-4.3-7.4
			c-1.4-0.9-3.1-0.8-4.8,0.2c-1.7,1-2.8,3-3.3,5.8c-0.8,4.4,0,11,3.8,15.9c2,2.6,5.5,3.5,8.5,2.3c0.2,0.6,0.4,1.5,0.7,1.9
			c0.1,0.3,0.4,0.3,0.6,0.3c2.1,4.1,7.6,15.1,7.6,15.1c0,0.1,0,0.1,0.1-0.1C36.3,49.6,35.8,45.8,31.9,38z M19.3,30.8
			C16,26.5,15.3,20.6,16,17c0.4-2,1.1-3.4,2.1-4c0.3-0.2,0.6-0.3,1-0.4c0.3-0.1,0.7,0,1,0.2c1.2,0.8,3.9,2.6,3.1,5
			c-1.5,4.8-0.4,10.5,1.7,14.6C23,33.7,20.6,32.6,19.3,30.8z M30.4,40.3c-0.5,0.1-1-0.3-1.1-0.9s0.3-1,0.9-1.1
			c0.5-0.1,1,0.3,1.1,0.9C31.3,39.7,30.9,40.2,30.4,40.3z"/>
	</g>
</g>
</svg>
