<?xml version="1.0" encoding="utf-8"?>
<!-- Generator: Adobe Illustrator 21.1.0, SVG Export Plug-In . SVG Version: 6.00 Build 0)  -->
<svg version="1.1" id="レイヤー_1" xmlns="http://www.w3.org/2000/svg" xmlns:xlink="http://www.w3.org/1999/xlink" x="0px"
	 y="0px" width="58.7px" height="58.7px" viewBox="0 0 58.7 58.7" style="enable-background:new 0 0 58.7 58.7;"
	 xml:space="preserve">
<style type="text/css">
	.st0{fill:none;stroke:#435255;stroke-width:2;stroke-miterlimit:10;}
	.st1{fill:none;}
	.st2{fill:none;stroke:#435255;stroke-width:1.5;stroke-miterlimit:10;}
	.st3{fill:#435255;}
	.st4{fill:none;stroke:#FFFFFF;stroke-width:0.8;stroke-linecap:round;stroke-linejoin:round;stroke-miterlimit:10;}
</style>
<g>
	<circle class="st0" cx="29.3" cy="29.3" r="28.3"/>
	<g>
		<path class="st1" d="M39.7,38.5c5-0.4,10.2-3.4,10.2-3.4s-6.5-3-11.5-2.6c-0.3,0-0.6,0.1-0.9,0.1c0.7-0.8,2.4-1.7,3.3-2.5
			c5.8-5.6,5.1-10.4,5.1-10.4s-8.6,0.5-12.8,7.5c0-0.3,0.3-1,0.3-1.3c1.3-8.4-4-16.6-4-16.6c-0.2,0.3-5.3,8.2-4,16.6
			c0.1,0.3,0.3,1,0.3,1.3c-4.2-7-12.8-7.5-12.8-7.5s-0.7,4.9,5.1,10.4c0.9,0.8,2.6,1.7,3.3,2.5c-0.3,0-0.6-0.1-0.9-0.1
			C15.3,32,8.8,35,8.8,35s5.2,3,10.2,3.4c1.3,0.1,2.6-0.2,3.6-0.2c-2.2,2.2-3.6,6.2-3.6,6.2s7.7-1.1,10.4-5.5h0
			c2.7,4.3,10.4,5.5,10.4,5.5s-1.5-4-3.6-6.2C37.1,38.3,38.4,38.6,39.7,38.5z"/>
		<line class="st2" x1="29.3" y1="42.4" x2="29.3" y2="51.5"/>
		<path class="st3" d="M39.7,39c5-0.4,10.2-3.4,10.4-3.5c0.2-0.1,0.3-0.3,0.2-0.5c0-0.2-0.1-0.4-0.3-0.4c-0.3-0.1-6.1-2.8-11-2.7
			c0.1-0.1,0.2-0.1,0.3-0.2c0.6-0.4,1.2-0.8,1.7-1.3c5.9-5.7,5.3-10.6,5.2-10.9c0-0.3-0.3-0.4-0.5-0.4c-0.3,0-7.3,0.5-11.8,5.8
			c0.9-8.1-4-15.7-4.2-16.1c-0.1-0.1-0.3-0.2-0.4-0.2c0,0,0,0,0,0c-0.2,0-0.3,0.1-0.4,0.2c-0.2,0.3-5,7.9-4.2,16.1
			c-4.5-5.3-11.5-5.8-11.8-5.8c-0.3,0-0.5,0.2-0.5,0.4c0,0.2-0.6,5.2,5.2,10.9c0.4,0.4,1.1,0.9,1.7,1.3c0.1,0.1,0.2,0.1,0.3,0.2
			c-4.9-0.1-10.8,2.6-11,2.7c-0.2,0.1-0.3,0.2-0.3,0.4c0,0.2,0.1,0.4,0.2,0.5c0.2,0.1,5.3,3.1,10.4,3.5c0.8,0.1,1.7,0,2.4-0.1
			c-1.7,2.3-2.9,5.3-2.9,5.4c-0.1,0.2,0,0.4,0.1,0.5C18.6,45,18.8,45,19,45c0.3,0,7.3-1.1,10.4-5.1c3.1,4,10,5.1,10.4,5.1
			c0,0,0,0,0.1,0c0.1,0,0.3-0.1,0.4-0.2c0.1-0.1,0.1-0.3,0.1-0.5c-0.1-0.1-1.2-3.2-2.9-5.4C38.1,39,38.9,39.1,39.7,39z"/>
		<line class="st4" x1="29.3" y1="16.5" x2="29.3" y2="38.5"/>
		<g>
			<line class="st4" x1="42.1" y1="23.4" x2="29.6" y2="32.9"/>
			<line class="st4" x1="16.6" y1="23.4" x2="29.1" y2="32.9"/>
		</g>
		<g>
			<line class="st4" x1="44.6" y1="35.4" x2="31.6" y2="35.3"/>
		</g>
		<g>
			<line class="st4" x1="14.6" y1="35.4" x2="26.9" y2="35.3"/>
		</g>
	</g>
</g>
</svg>
