<?xml version="1.0" encoding="utf-8"?>
<!-- Generator: Adobe Illustrator 21.1.0, SVG Export Plug-In . SVG Version: 6.00 Build 0)  -->
<svg version="1.1" id="レイヤー_1" xmlns="http://www.w3.org/2000/svg" xmlns:xlink="http://www.w3.org/1999/xlink" x="0px"
	 y="0px" width="58.7px" height="58.7px" viewBox="0 0 58.7 58.7" style="enable-background:new 0 0 58.7 58.7;"
	 xml:space="preserve">
<style type="text/css">
	.st0{fill:#435255;}
	.st1{fill:none;stroke:#435255;stroke-width:2;stroke-miterlimit:10;}
	.st2{fill:#435255;stroke:#FFFFFF;stroke-width:0.8;stroke-linecap:round;stroke-linejoin:round;stroke-miterlimit:10;}
</style>
<g>
	<g>
		<path class="st0" d="M33.9,31.4c0.1-0.6,0.1-1.3,0.2-2c0.2-4.2,4.7-8.4,9.3-9.5c-1.6-2.7-4.6-4.4-8-4.3c-2.1,0.1-4.1,0.9-5.7,2.3
			c-0.2,0.1-0.4,0.1-0.5,0c-1.7-1.6-4-2.4-6.4-2.3c-3.2,0.1-5.9,1.8-7.3,4.3c4.6,1.1,9,5.3,9.3,9.5c0,0.7,0.1,1.4,0.2,2
			c0,0.3,0,0.6,0.1,0.9c1.6-0.1,3.1-0.2,4.2-1.2c0.1-0.1,0.2-0.1,0.3-0.1c0.1,0,0.2,0,0.3,0.1c1.1,1,2.6,1.3,4.2,1.3
			C33.8,32.1,33.9,31.8,33.9,31.4z"/>
	</g>
	<circle class="st1" cx="29.3" cy="29.3" r="28.3"/>
	<g>
		<line class="st2" x1="29.3" y1="30.4" x2="29.3" y2="22.8"/>
		<path class="st2" d="M28.1,30.4c0,0,0-3.9-1.2-7.3"/>
		<path class="st2" d="M26.9,30.3c0,0-0.4-3.9-2.3-6.9"/>
		<path class="st2" d="M30.6,30.4c0,0,0-3.9,1.2-7.3"/>
		<path class="st2" d="M31.7,30.3c0,0,0.4-3.9,2.3-6.9"/>
	</g>
	<g>
		<path class="st0" d="M20.6,37.6C20.6,37.6,20.6,37.6,20.6,37.6c-0.3,0-0.6,0-0.9,0c-2.2,0-5.2-0.4-7.9-1.4c-0.7,1.3-0.2,3,1.5,4.5
			c2.6,2.5,8.8,4.5,14.8,0.6C25.3,41,22.6,39.6,20.6,37.6z"/>
	</g>
	<g>
		<path class="st0" d="M39,37.6c-0.3,0-0.6,0-0.9,0c0,0,0,0,0,0c-1.9,2-4.6,3.4-7.3,3.8c6.2,4.2,12.5,1.9,15.1-0.8
			c1.2-1.2,2.2-3,1.2-4.4C44.3,37.2,41.2,37.6,39,37.6z"/>
	</g>
	<g>
		<path class="st0" d="M13.1,20.4c-0.1,0-0.3,0-0.4,0c-2.6,0.2-4.8,1.3-6.2,3.1c-1.3,1.7-1.6,3.8-1.1,6.1c1.2,5.3,9.9,7.2,14.6,7.2
			c-1.5-1.7-2.4-3.8-2.4-5.8c0-1.7,0.3-2.8,1.1-3.3c0.1-0.1,0.2-0.1,0.3-0.1l0,0c-1.2-0.9-3.5-2.2-7.1-1.9c-0.2,0-0.4-0.1-0.4-0.4
			c0-0.2,0.1-0.4,0.4-0.4c4.5-0.4,7.2,1.6,8.2,2.5c0.9,0.1,2.1,0.5,3.4,1.1c0.1,0,0.2,0.1,0.3,0.1C22.8,24.5,17.6,20.4,13.1,20.4z"
			/>
		<path class="st0" d="M19.4,27.4L19.4,27.4L19.4,27.4z"/>
	</g>
	<g>
		<path class="st0" d="M52.2,23.6c-1.4-1.8-3.6-2.9-6.2-3.1c-0.1,0-0.3,0-0.4,0c-4.6,0-9.8,4.1-10.6,8.3c0.1,0,0.2-0.1,0.3-0.1
			c1.1-0.4,2.1-0.8,3-0.9c0.7-0.8,3.5-3.2,8.5-2.8c0.2,0,0.4,0.2,0.4,0.4c0,0.2-0.2,0.4-0.4,0.4c-3.7-0.3-6.1,1.1-7.2,2
			c0.2,0.1,0.4,0.1,0.6,0.3c0.7,0.5,1,1.5,1,3.1c0,2-0.9,4.1-2.4,5.8c4.7,0.1,13.3-1.9,14.6-7.2C53.8,27.3,53.5,25.3,52.2,23.6z"/>
		<path class="st0" d="M38.9,27.6C38.9,27.6,38.9,27.6,38.9,27.6C38.9,27.6,38.9,27.6,38.9,27.6z"/>
	</g>
	<path class="st0" d="M35.5,29.3c-1.9,0.7-4,1.5-6.2,1.5c-2.2,0-4.4-0.9-6.2-1.6c-1.3-0.5-2.5-1-3.3-1c-0.3,0-0.5,0.1-0.7,0.2
		c-0.5,0.3-0.7,1.2-0.7,2.6c0,4.8,5.5,9.7,11,9.7s11-4.9,11-9.7c0-1.3-0.2-2.1-0.7-2.4C38.9,28.1,37.3,28.7,35.5,29.3z"/>
	<path class="st0" d="M29.8,40.7"/>
</g>
</svg>
