<?xml version="1.0" encoding="utf-8"?>
<!-- Generator: Adobe Illustrator 21.1.0, SVG Export Plug-In . SVG Version: 6.00 Build 0)  -->
<svg version="1.1" id="レイヤー_1" xmlns="http://www.w3.org/2000/svg" xmlns:xlink="http://www.w3.org/1999/xlink" x="0px"
	 y="0px" width="58.7px" height="58.7px" viewBox="0 0 58.7 58.7" style="enable-background:new 0 0 58.7 58.7;"
	 xml:space="preserve">
<style type="text/css">
	.st0{fill:none;stroke:#435255;stroke-width:2;stroke-miterlimit:10;}
	.st1{fill:#435255;}
	.st2{fill:#FFFFFF;}
	.st3{fill:none;stroke:#435255;stroke-width:1.3;stroke-miterlimit:10;}
</style>
<circle class="st0" cx="562.6" cy="214" r="28.3"/>
<g>
	<path class="st1" d="M576.9,222.3c4.4-0.8,5.6-1.8,5.6-2.3s-1.2-1.4-5.6-2.3c-3.8-0.7-8.9-1.1-14.3-1.1c-5.4,0-10.5,0.4-14.3,1.1
		c-4.4,0.8-5.6,1.8-5.6,2.3s1.2,1.4,5.6,2.3c3.8,0.7,8.9,1.1,14.3,1.1C568,223.5,573,223.1,576.9,222.3z"/>
	<g>
		<path class="st1" d="M562.6,230.5c11.5,0,18.8-2.2,20.3-3.4v-5.9c-2.4,2.4-13,3.3-20.3,3.3c-7.3,0-17.6-0.9-20.2-3.2v5.9
			C544,228.4,551.3,230.5,562.6,230.5z"/>
		<path class="st1" d="M578.1,231c-4.3,1-9.8,1.5-15.5,1.5s-11.1-0.5-15.5-1.5c-2.2-0.5-3.7-1-4.7-1.5v4.4
			c5.1,5.3,12.3,8.5,20.2,8.5c8,0,15.1-3.3,20.3-8.6v-4.4C581.8,229.9,580.3,230.4,578.1,231z"/>
	</g>
	<path class="st1" d="M576.2,206.6c0-0.8-4.8-2.2-13.6-2.2c-8.8,0-13.6,1.5-13.6,2.2s4.8,2.2,13.6,2.2
		C571.4,208.8,576.2,207.4,576.2,206.6z"/>
	<g>
		<path class="st1" d="M576.7,207.6c-2,1.8-9.8,2.3-14.1,2.3c-4.3,0-11.9-0.5-14.1-2.2V219h0c0,0,0,0,0,0.1c0,1.5,6.3,2.7,14.1,2.7
			c7.8,0,14.1-1.2,14.1-2.7c0,0,0,0,0-0.1h0V207.6z"/>
	</g>
	<g>
		<circle class="st2" cx="552.5" cy="214.1" r="1.5"/>
		<circle class="st2" cx="572.7" cy="214.1" r="1.5"/>
		<circle class="st2" cx="559.2" cy="215" r="1.5"/>
		<circle class="st2" cx="566" cy="215" r="1.5"/>
	</g>
	<g>
		<g>
			<path class="st1" d="M562.6,201.5c-0.5,0-0.9-0.1-1.4-0.3v6.3h3v-6.5C563.7,201.4,563.2,201.5,562.6,201.5z"/>
		</g>
		<path class="st1" d="M559.7,197.2c0,1.8,1.3,3.3,2.9,3.3c1.6,0,2.9-1.5,2.9-3.3c0-1.4-1.8-4.4-2.9-6.1
			C561.5,192.8,559.7,195.8,559.7,197.2z"/>
	</g>
</g>
<g>
	<circle class="st0" cx="29.3" cy="29.3" r="28.3"/>
	<g>
		<path class="st3" d="M40.7,31.1c0.4,0.2,0.9,0,1-0.4s0.6-2.3,0.6-4.9c0.1-2.9-0.3-7.3-2.6-12.2c-0.9-1.9-1.8-3.7-2.9-5.4
			c-0.2-0.2-0.4-0.3-0.7-0.2l-8.9,4c-0.2,0.1-0.4,0.4-0.3,0.7c0.5,1.9,1.3,3.8,2.1,5.7c2.2,4.9,5.3,8.2,7.5,10
			C38.6,30,40.3,31,40.7,31.1z"/>
		<line class="st0" x1="40.8" y1="29.7" x2="45.6" y2="40.2"/>
		<path class="st1" d="M41.2,43.7c-0.2,0-0.3-0.1-0.4-0.2s-0.1-0.3,0-0.4c0.1-0.1,1.7-1.2,2.6-2c0.9-0.8,1.2-1.9,1.2-1.9
			c0.1-0.2,0.5-0.4,0.7-0.4l0.1,0c0,0,1.1,0.5,2.2,0.4c1.2-0.1,3.2-0.6,3.2-0.6c0.3,0,0.4,0.2,0.4,0.3c0,0.2-0.1,0.4-0.2,0.5
			l-9.5,4.3L41.2,43.7z"/>
		<path class="st1" d="M39.9,13.5c-0.3-0.7-0.3-0.6-0.7-1.2c0,0-1.9,2.9-4.6,2.7c-4.3-0.2-4.7,0.5-4.7,0.5c1.4,3.8,5.8,11.3,8,13.1
			c2,1.6,2.6,2.3,3,2.4c0.4,0.2,0.9,0,1-0.4c0.1-0.5,0.6-2.3,0.6-4.9C42.6,22.9,42.2,18.5,39.9,13.5z M41.8,26l-0.3-0.1
			c0,0-0.6-4.3-2.6-9.1l0.8-0.3C41.8,21.4,41.8,25.8,41.8,26z"/>
		<path class="st3" d="M28.8,23.6c-1.5,4.5-3.7,7.7-5.4,9.6c-1.7,1.9-3.3,3.1-3.6,3.4s-0.8,0.2-1-0.3c-0.2-0.5-0.9-2.2-1.4-4.7
			c-0.5-2.8-0.8-7.3,0.7-12.5c0.6-2,1.3-4,2-5.8c0.1-0.3,0.4-0.4,0.6-0.3l4,1.1"/>
		<line class="st0" x1="19.5" y1="35.1" x2="16.4" y2="46.3"/>
		<path class="st1" d="M21.1,49.1L21.1,49.1L11,46.3c-0.2-0.1-0.3-0.2-0.3-0.4c0-0.2,0.1-0.4,0.3-0.4c0,0,0,0,0,0
			c0.1,0,1.3,0.1,2.4,0.1c0.3,0,0.6,0,0.9,0c1.1-0.1,2.1-0.7,2.1-0.7l0,0l0.1,0c0.1,0,0.5,0.1,0.6,0.2c0,0.1,0.5,1.1,1.5,1.8
			c1,0.7,2.8,1.5,2.8,1.5c0.2,0.2,0.2,0.3,0.1,0.5C21.5,49,21.3,49.1,21.1,49.1L21.1,49.1z"/>
		<path class="st1" d="M28,19.5c-0.8,4-4,12-5.9,14.2c-1.7,1.9-2.2,2.6-2.6,2.9c-0.4,0.2-0.8,0.2-1-0.3c-0.2-0.5-0.9-2.2-1.4-4.7
			c-0.5-2.8-0.8-7.3,0.7-12.5c0.2-0.7,0.3-0.6,0.5-1.3c0,0,0.7,3.5,4.9,2C27.4,18.3,28,19.5,28,19.5z"/>
	</g>
</g>
</svg>
