<?xml version="1.0" encoding="utf-8"?>
<!-- Generator: Adobe Illustrator 21.1.0, SVG Export Plug-In . SVG Version: 6.00 Build 0)  -->
<svg version="1.1" id="レイヤー_1" xmlns="http://www.w3.org/2000/svg" xmlns:xlink="http://www.w3.org/1999/xlink" x="0px"
	 y="0px" width="58.7px" height="58.7px" viewBox="0 0 58.7 58.7" style="enable-background:new 0 0 58.7 58.7;"
	 xml:space="preserve">
<style type="text/css">
	.st0{fill:none;stroke:#435255;stroke-width:2;stroke-miterlimit:10;}
	.st1{fill:none;stroke:#435255;stroke-width:1.5;stroke-miterlimit:10;}
	.st2{fill:#435255;}
	.st3{fill:none;stroke:#FFFFFF;stroke-linecap:round;stroke-linejoin:round;stroke-miterlimit:10;}
	.st4{fill:none;stroke:#435255;stroke-width:1.5;stroke-linecap:round;stroke-linejoin:round;stroke-miterlimit:10;}
	.st5{fill:#435255;stroke:#FFFFFF;stroke-width:0.8;stroke-linecap:round;stroke-linejoin:round;stroke-miterlimit:10;}
</style>
<g>
	<circle class="st0" cx="29.3" cy="29.3" r="28.3"/>
	<path class="st0" d="M55.8,20.4c0,0-11.4,3.6-17.8,4.3c-11.3,1.2-20.5-5.4-20.5-5.4"/>
	<line class="st1" x1="35.7" y1="24.3" x2="27.1" y2="13.9"/>
	<line class="st1" x1="33" y1="20.4" x2="33.5" y2="15.1"/>
	<path class="st2" d="M31.5,36.3c1.6-2.1,6.5-2.8,9,4.8c0.9,2.9,4.2,6.1,4.2,6.1c-12.9,3.8-17.4-3.5-17.4-7
		C27.3,36.3,29.4,36.5,31.5,36.3z"/>
	<path class="st3" d="M31.5,36.3c0.6,1.9,1.7,5.4,7.3,8.6"/>
	<path class="st1" d="M31.7,30.5c0,0-1.4,2.8-0.3,5.8"/>
	<path class="st4" d="M16.3,33c0,0,0.8-5.7,7.7-10.1"/>
	<path class="st5" d="M18.7,25.2c0,0-1.9-2.9-6.5,1.3c-4.6,4.3-4.8,14.2-4.8,14.2s3.9-2.8,8.6-4.9c1.9-0.8,6.3-3,6.5-5.6
		c0.2-3.7-2.6-3.7-3.7-3.4C17.7,27,13.6,28.9,12,34"/>
</g>
</svg>
