<?xml version="1.0" encoding="utf-8"?>
<!-- Generator: Adobe Illustrator 21.1.0, SVG Export Plug-In . SVG Version: 6.00 Build 0)  -->
<svg version="1.1" id="レイヤー_1" xmlns="http://www.w3.org/2000/svg" xmlns:xlink="http://www.w3.org/1999/xlink" x="0px"
	 y="0px" width="58.7px" height="58.7px" viewBox="0 0 58.7 58.7" style="enable-background:new 0 0 58.7 58.7;"
	 xml:space="preserve">
<style type="text/css">
	.st0{fill:#435255;}
	.st1{fill:none;stroke:#435255;stroke-width:1.5;stroke-miterlimit:10;}
	.st2{fill:none;stroke:#435255;stroke-width:2;stroke-miterlimit:10;}
	.st3{fill:none;stroke:#435255;stroke-linecap:round;stroke-linejoin:round;stroke-miterlimit:10;}
	.st4{fill:#FFFFFF;}
</style>
<g>
	<path class="st0" d="M35.3,39.2c0.6-0.5,1.4-0.9,2.2-1c0.4-0.1,0.7-0.1,1.1,0l1.1,0.1l0.1-1.1c0.2-2.4,2.4-4.2,4.8-4l1.1,0.1
		l-0.1,1.1c-0.1,0.7-0.3,1.4-0.7,1.9c1.2,0.2,2.4,0.9,3.3,1.9l0.8,0.9L48.1,40c-0.6,0.5-1.3,0.9-2,1c0.6,1,0.9,2.2,0.8,3.4l-0.2,2.3
		l-2.3-0.2c-1.3-0.1-2.4-0.7-3.2-1.5c-0.3,0.7-0.8,1.3-1.4,1.8l-0.9,0.8L38,46.6c-0.7-0.8-1.1-1.8-1.2-2.8c0-0.2,0-0.5,0-0.7
		c-0.6,0.2-1.3,0.3-2,0.3l-1.1-0.1l0.1-1.1C33.9,40.9,34.4,39.9,35.3,39.2z"/>
	<g>
		<line class="st1" x1="15.6" y1="48.9" x2="19.6" y2="48.9"/>
		<line class="st1" x1="17.6" y1="33.2" x2="17.6" y2="48.6"/>
		<line class="st1" x1="20.3" y1="35.6" x2="17.8" y2="38.9"/>
		<line class="st1" x1="17.8" y1="44.9" x2="23.6" y2="38.8"/>
		<line class="st1" x1="12.4" y1="36.5" x2="17.4" y2="41.7"/>
	</g>
	<g>
		<circle class="st2" cx="29.3" cy="29.3" r="28.3"/>
		<line class="st3" x1="29.3" y1="1.1" x2="29.3" y2="57.6"/>
		<line class="st3" x1="57.6" y1="29.4" x2="1.1" y2="29.4"/>
	</g>
	<path class="st0" d="M46.6,16.4c0.1-2.2,0-4.1,0-4.2l0-0.7l-0.6,0.1c-0.1,0-2,0.3-4.1,1c-2.9,0.8-4.8,1.8-5.6,2.8
		c-1.9,2.5-1.5,6.1,1,8c2.5,1.9,6.1,1.5,8-1C46,21.5,46.5,19.4,46.6,16.4z"/>
	<path class="st4" d="M35.5,26.1c-0.1,0-0.2,0-0.3-0.1c-0.2-0.2-0.3-0.5-0.1-0.7l7.3-9.2c0.2-0.2,0.5-0.3,0.7-0.1
		c0.2,0.2,0.3,0.5,0.1,0.7L35.9,26C35.8,26.1,35.6,26.1,35.5,26.1z"/>
	<path class="st0" d="M25.5,15.8c-0.6-1.6-2.7-2.6-4.3-1.7c0,0-0.1,0-0.1,0c0-0.1,0-0.1,0-0.2c0-1.7-1.5-3.1-3.4-3.1
		c-1.9,0-3.4,1.4-3.4,3.1c0,0,0,0.1,0,0.1c-0.1,0-0.1,0-0.2-0.1c-1.7-0.9-3.7,0.1-4.3,1.7c-0.6,1.6,0.4,3.7,2.2,4.2c0,0,0.1,0,0.1,0
		c0,0-0.1,0.1-0.1,0.1c-1.1,1.4-0.8,3.3,0.7,4.3c1.5,1,3.6,0.7,4.7-0.7c0,0,0.1-0.1,0.1-0.1c0,0,0.1,0.1,0.1,0.1
		c1.1,1.4,3.2,1.7,4.7,0.7c1.5-1,1.8-3,0.7-4.3c0,0-0.1-0.1-0.1-0.1c0.1,0,0.1,0,0.2,0C25.1,19.5,26.1,17.4,25.5,15.8z M16,19.4
		c-0.1,0-0.2,0.1-0.2,0.1c-0.2,0-0.4-0.1-0.4-0.3l-0.7-1.3c-0.1-0.2,0-0.5,0.2-0.7c0.2-0.1,0.5,0,0.7,0.2l0.7,1.3
		C16.4,19,16.3,19.3,16,19.4z M18.2,19c0,0.3-0.2,0.5-0.5,0.5s-0.5-0.2-0.5-0.5v-1.6c0-0.3,0.2-0.5,0.5-0.5s0.5,0.2,0.5,0.5V19z
		 M20.8,17.9l-0.7,1.3c-0.1,0.2-0.3,0.3-0.4,0.3c-0.1,0-0.2,0-0.2-0.1c-0.2-0.1-0.3-0.4-0.2-0.7l0.7-1.3c0.1-0.2,0.4-0.3,0.7-0.2
		C20.8,17.4,20.9,17.7,20.8,17.9z"/>
</g>
</svg>
