<?xml version="1.0" encoding="utf-8"?>
<!-- Generator: Adobe Illustrator 21.0.0, SVG Export Plug-In . SVG Version: 6.00 Build 0)  -->
<svg version="1.1" id="レイヤー_1" xmlns="http://www.w3.org/2000/svg" xmlns:xlink="http://www.w3.org/1999/xlink" x="0px"
	 y="0px" width="580.2px" height="41.4px" viewBox="0 0 580.2 41.4" style="enable-background:new 0 0 580.2 41.4;"
	 xml:space="preserve">
<style type="text/css">
	.st0{fill:#FFFFFF;}
	.st1{fill:#006841;}
	.st2{fill:#E50012;}
	.st3{fill:#EA6000;}
	.st4{fill-rule:evenodd;clip-rule:evenodd;fill:#006841;}
	.st5{fill-rule:evenodd;clip-rule:evenodd;fill:#1972B0;}
	.st6{fill-rule:evenodd;clip-rule:evenodd;fill:#FFFFFF;}
	.st7{fill-rule:evenodd;clip-rule:evenodd;fill:#D2261E;}
	.st8{fill-rule:evenodd;clip-rule:evenodd;fill:#361910;}
	.st9{fill-rule:evenodd;clip-rule:evenodd;fill:#F1DA31;}
	.st10{fill-rule:evenodd;clip-rule:evenodd;fill:#34428D;}
	.st11{fill-rule:evenodd;clip-rule:evenodd;fill:#78BDA3;}
	.st12{fill-rule:evenodd;clip-rule:evenodd;fill:#DB5454;}
	.st13{fill-rule:evenodd;clip-rule:evenodd;fill:#7C89B9;}
	.st14{fill:#34428D;}
	.st15{fill:#F5821F;}
	.st16{fill:#0B72B6;}
	.st17{fill-rule:evenodd;clip-rule:evenodd;fill:#0B72B6;}
	.st18{fill:#28A13A;}
	.st19{fill:#E0690C;}
	.st20{fill:#D61518;}
	.st21{fill:#F1C71D;}
	.st22{fill:#129043;}
	.st23{fill:#221714;}
	.st24{fill-rule:evenodd;clip-rule:evenodd;fill:#1E2B64;}
</style>
<g>
	<g>
		<rect y="0.2" class="st0" width="39.6" height="41"/>
		<path class="st1" d="M37.3,0.2c-1,5.3-4.8,24.7-5.1,26.9c-0.3,2.6-1.5,4.5-5,4.5c-2,0-4.4,0-6.2,0c0,0-0.9,0-2.3,0
			c-1.8,0-4.2,0-6.2,0c-3.4,0-4.6-1.9-5-4.5C7.3,24.9,3.5,5.5,2.5,0.2H0v41h39.6v-41H37.3z"/>
		<g>
			<path class="st2" d="M24.1,22.8h-9c-0.3,3.1-0.5,6.6-0.5,10.5h9.1C23.7,30.3,23.7,26.5,24.1,22.8z"/>
			<path class="st2" d="M16.1,16.7h9.2c1.2-3.5,3.2-6.2,6.7-7.2V0.2C22.9,3,18.2,7.8,16.1,16.7z"/>
		</g>
		<path class="st3" d="M29.8,0.2H5.9v8.3h12.3C20.2,5.6,25.3,1.3,29.8,0.2z"/>
		<g>
			<g>
				<polygon class="st4" points="11.6,18.3 11.6,17.2 10.3,17.2 8.7,17.2 8.7,18.3 8.7,19.2 8.7,20.3 8.7,21.3 8.7,22.4 10.3,22.4 
					11.6,22.4 11.6,21.3 10.3,21.3 10.3,20.3 11.6,20.3 11.6,19.2 10.3,19.2 10.3,18.3 				"/>
				<polygon class="st4" points="18.4,18.3 18.4,17.2 17.2,17.2 15.6,17.2 15.6,18.3 15.6,19.2 15.6,20.3 15.6,21.3 15.6,22.4 
					17.2,22.4 18.4,22.4 18.4,21.3 17.2,21.3 17.2,20.3 18.4,20.3 18.4,19.2 17.2,19.2 17.2,18.3 				"/>
				<polygon class="st4" points="26,18.3 26,17.2 24.8,17.2 23.1,17.2 23.1,18.3 23.1,19.2 23.1,20.3 23.1,21.3 23.1,22.4 
					24.8,22.4 26,22.4 26,21.3 24.8,21.3 24.8,20.3 26,20.3 26,19.2 24.8,19.2 24.8,18.3 				"/>
				<polygon class="st4" points="13.9,21.4 13.9,17.2 12.4,17.2 12.4,21.4 12.4,22.4 13.9,22.4 15,22.4 15.2,21.4 				"/>
				<polygon class="st4" points="22.7,17.2 21.5,17.2 20.8,20.5 20.1,17.2 18.8,17.2 19.7,22.4 21.2,22.4 21.2,22.4 21.6,22.4 				
					"/>
				<path class="st4" d="M30.9,18.2c0-0.3-0.1-0.5-0.3-0.6c-0.3-0.3-0.7-0.4-1.1-0.4c-0.4,0-0.8,0.1-1.2,0.3v-0.4h-1.5v5.2h0.7
					c0.2,0,0.5,0,0.8,0v-0.2c0-1.1,0-2.2,0-3.3c0-0.3,0.2-0.5,0.5-0.5c0.3,0,0.4,0.1,0.4,0.4v3.7h0.1c0,0,0,0,0,0c0.2,0,0.4,0,0.5,0
					h1v-3.7L30.9,18.2L30.9,18.2z"/>
			</g>
		</g>
	</g>
	<g>
		<path class="st5" d="M164.3,37.3c-13.6,5.4-27.3,5.4-41,0c0.5-1.6,1-3.1,1.4-4.6c1.2-3.8,2.4-7.6,3.5-11.5c0.1-0.3,0.1-0.8,0-1.1
			c-1.6-5.2-3.2-10.4-4.8-15.6c0-0.1,0-0.1-0.1-0.3c13.7-5.4,27.3-5.4,41.1,0c-0.4,1.4-0.9,2.8-1.3,4.2c-1.2,3.9-2.4,7.8-3.6,11.7
			c-0.2,0.5-0.1,1.1,0.1,1.7c1.6,5.1,3.2,10.3,4.8,15.4C164.4,37.1,164.4,37.1,164.3,37.3z M163.2,4.7c-12.9-4.9-25.7-4.9-38.6,0
			c0,0.2,0.1,0.4,0.1,0.5c1.5,4.9,3,9.7,4.5,14.6c0.2,0.5,0.2,1.1,0,1.6c-1.2,3.9-2.4,7.8-3.6,11.7c-0.4,1.1-0.7,2.3-1.1,3.5
			c7.1,2.8,14.3,4,21.8,3.6c5.8-0.3,11.4-1.4,16.7-3.6c0-0.2,0-0.3-0.1-0.4c-1.5-5-3.1-10-4.6-15c-0.1-0.3-0.1-0.7,0-1
			c1-3.2,2-6.3,2.9-9.4C161.9,8.8,162.5,6.8,163.2,4.7z"/>
		<path class="st6" d="M163.2,4.7c-0.6,2.1-1.3,4.1-1.9,6.1c-1,3.1-2,6.3-2.9,9.4c-0.1,0.3,0,0.7,0,1c1.5,5,3.1,10,4.6,15
			c0,0.1,0,0.2,0.1,0.4c-5.4,2.2-11,3.4-16.7,3.6c-7.5,0.3-14.8-0.8-21.8-3.6c0.4-1.2,0.7-2.3,1.1-3.5c1.2-3.9,2.4-7.8,3.6-11.7
			c0.1-0.5,0.1-1.1,0-1.6c-1.5-4.9-3-9.8-4.5-14.6c0-0.1,0-0.2-0.1-0.5C137.4-0.1,150.3-0.1,163.2,4.7z M125.5,5.2
			c0,0.2,0.1,0.3,0.1,0.4c1.5,4.8,3,9.6,4.5,14.4c0.1,0.4,0.2,0.8,0.1,1.2c-0.7,2.4-1.5,4.7-2.2,7.1c-0.8,2.6-1.6,5.2-2.4,7.9
			c5.5,2.1,11.2,3.2,17,3.4c6.8,0.2,13.3-0.9,19.7-3.3c0-0.2-0.1-0.3-0.1-0.4c-1.5-4.9-3-9.8-4.5-14.6c-0.1-0.3-0.1-0.6,0-0.8
			c1.2-3.8,2.4-7.6,3.5-11.5c0.4-1.2,0.7-2.4,1.1-3.7C150,0.7,137.8,0.7,125.5,5.2z"/>
		<path class="st5" d="M157.6,21.2c-0.1-0.3-0.1-0.6,0-0.8c1.2-3.8,2.4-7.6,3.5-11.5c0.4-1.2,0.7-2.4,1.1-3.7
			c-12.3-4.5-24.5-4.5-36.7,0c0,0.2,0.1,0.3,0.1,0.4c1.5,4.8,3,9.6,4.5,14.4c0.1,0.4,0.2,0.8,0.1,1.2c-0.7,2.4-1.5,4.7-2.2,7.1
			c-0.8,2.6-1.6,5.2-2.4,7.9c5.5,2.1,11.2,3.2,17,3.4c6.8,0.2,13.3-0.9,19.7-3.3c0-0.2-0.1-0.3-0.1-0.4
			C160.6,30.9,159.1,26,157.6,21.2z"/>
		<path class="st6" d="M141,15.4c-1.4-0.1-1.3-0.1-1-1.5c0.1-0.4-0.1-0.8-0.3-1.2c-0.8-1.9-0.4-2.4,1.7-2.6c2-0.2,3.9-0.3,5.8,0.1
			c1.3,0.3,1.5,0.8,1.1,2c-0.1,0.4-0.3,0.8-0.4,1.2c-0.1,0.3,0,0.5,0,0.8c0,0.4,0.1,0.8,0,1c-0.1,0.1-0.6,0.1-0.9,0.1
			c-0.1,0-0.2,0-0.3,0c-0.1,0.1-0.2,0.2-0.2,0.3c0.2,0.1,0.5,0.2,0.6,0.3c1.3,1,1.8,2.4,1.9,4c0.1,3.1,0,6.3,0,9.4
			c0,1-0.4,1.6-1.4,1.7c-2.1,0.1-4.1,0.1-6.2,0.1c-0.5,0-1.1-0.1-1.6-0.2c-0.7-0.1-1.1-0.6-1.1-1.3c0-3.5,0-7.1,0.1-10.6
			c0-1.2,0.7-2.2,1.6-3c0.2-0.2,0.5-0.3,0.7-0.4C141.1,15.6,141.1,15.5,141,15.4z M146.9,14.8c0.4-1.1,0.8-2.2,1.1-3.2
			c0.2-0.5-0.1-0.8-0.6-0.9c-2.3-0.5-4.7-0.5-7,0c-0.2,0.1-0.6,0.5-0.6,0.7c0.3,1.1,0.7,2.2,1.1,3.4c0.7-0.5,0.7-1.1,0.7-1.7
			c0-1,0-1,1-1c0.9,0,1.8,0,2.7,0c0.7,0,0.9,0.2,0.8,0.9C146.1,13.6,146.1,14.3,146.9,14.8z M142,15.2c1.3,0,2.5,0,3.8,0
			C145.2,14.8,142.5,14.8,142,15.2z"/>
		<g>
			<g>
				<path class="st6" d="M139.9,6.7c0.3-0.7,0.5-1.4,0.9-2.1c-0.2,0-0.3,0-0.4,0c-0.1,0-0.2,0-0.2-0.2c0-0.2,0-0.3,0-0.5
					c0-0.1,0-0.2,0.2-0.2c0.6,0,1.2-0.1,1.8-0.1c0.1,0,0.2,0.1,0.2,0.2c0,0.2,0,0.3,0,0.5c0,0.1,0,0.2-0.2,0.2c-0.1,0-0.2,0-0.3,0
					c-0.2,0-0.2,0-0.1,0.2c0.2,0.4,0.4,0.7,0.6,1.1c0.1,0.2,0.2,0.4,0.3,0.6c0,0,0.1,0.1,0.1,0.2c0-0.1,0.1-0.1,0.1-0.2
					c0.3-0.6,0.6-1.2,0.9-1.8c0.1-0.2,0.1-0.2-0.1-0.2c-0.1,0-0.2,0-0.3,0c-0.1,0-0.2-0.1-0.2-0.2c0-0.2,0-0.3,0-0.5
					c0-0.1,0.1-0.2,0.2-0.2c0.6,0,1.2,0,1.8,0c0.1,0,0.2,0.1,0.2,0.2c0,0.2,0,0.3,0,0.5c0,0.1-0.1,0.2-0.2,0.2
					c-0.5,0-0.4-0.1-0.6,0.4c-0.4,0.8-0.8,1.5-1.2,2.3c-0.1,0.2-0.1,0.2,0.1,0.2c0.4,0,0.4,0,0.4,0.4c0,0.1,0,0.2,0,0.3
					c0,0.1-0.1,0.2-0.2,0.2c-0.5,0-1,0-1.6,0c-0.2,0-0.2-0.1-0.2-0.2c0-0.2,0-0.3,0-0.5c0-0.1,0.1-0.2,0.2-0.2c0.1,0,0.1,0,0.2,0
					c0.2,0,0.2,0,0.1-0.2c-0.3-0.5-0.5-1-0.8-1.5c-0.1-0.1-0.1-0.2-0.2-0.3c0,0,0,0-0.1,0c-0.3,0.7-0.6,1.4-0.9,2.1
					c0.1,0,0.2,0,0.3,0c0.3,0,0.3,0,0.3,0.3c0,0.1,0,0.2,0,0.3c0,0.2,0,0.3-0.2,0.3c-0.5,0-1.1,0.1-1.6,0.1c0,0-0.1-0.1-0.1-0.1
					c0-0.2,0-0.4-0.1-0.6c0-0.1,0.1-0.2,0.2-0.2c0.1,0,0.2,0,0.3,0c0.1,0,0.1-0.1,0.1-0.2c-0.2-0.3-0.3-0.5-0.5-0.8
					c-0.4-0.5-0.7-1.1-1.1-1.6c-0.1-0.1-0.2-0.2-0.4-0.2c-0.1,0-0.1,0-0.2,0c-0.1,0-0.2,0-0.2-0.1c0-0.2,0-0.4-0.1-0.5
					c0-0.1,0-0.2,0.1-0.2c0.6-0.1,1.2-0.1,1.8-0.2c0.1,0,0.2,0.1,0.2,0.1c0,0.2,0.1,0.4,0,0.6c0,0-0.1,0.1-0.2,0.1
					c-0.1,0-0.2,0-0.3,0c-0.2,0-0.2,0.1-0.1,0.2c0.3,0.4,0.6,0.9,0.9,1.3C139.6,6.4,139.7,6.6,139.9,6.7
					C139.9,6.7,139.9,6.7,139.9,6.7z"/>
			</g>
			<g>
				<path class="st6" d="M157.7,8.5c0-0.1,0.1-0.1,0.1-0.2c0.2-0.5,0.3-1,0.5-1.6c0.1-0.2,0-0.2-0.2-0.3c-0.5-0.1-0.5-0.1-0.3-0.5
					c0.1-0.5,0.1-0.4,0.6-0.3c0.5,0.1,0.9,0.3,1.4,0.4c0.2,0.1,0.2,0.1,0.2,0.3c0,0.1-0.1,0.3-0.1,0.4c-0.1,0.2-0.1,0.2-0.3,0.1
					c-0.1,0-0.2-0.1-0.2-0.1c-0.1,0-0.2,0-0.2,0.1c-0.2,0.8-0.5,1.6-0.8,2.4c0,0.1,0,0.2,0.1,0.2c0,0,0,0,0,0
					c0.4,0.1,0.4,0.1,0.3,0.6c-0.1,0.4-0.1,0.4-0.5,0.3c-0.4-0.1-0.8-0.3-1.3-0.4c-0.2,0-0.2-0.1-0.1-0.3c0-0.1,0.1-0.2,0.1-0.4
					c0.1-0.2,0.1-0.2,0.3-0.2c0.1,0,0.2,0,0.2,0.1c0,0,0,0,0-0.1c-0.5-0.8-1.1-1.6-1.7-2.5c0,0.1,0,0.1-0.1,0.2
					c-0.1,0.5-0.3,1.1-0.4,1.6c0,0.1,0,0.2,0.1,0.2c0.1,0,0.2,0.1,0.3,0.1c0.1,0,0.2,0.1,0.1,0.2c0,0.2-0.1,0.3-0.2,0.5
					c0,0-0.1,0.1-0.2,0.1c-0.5-0.1-1.1-0.3-1.6-0.4c-0.1,0-0.1-0.1-0.1-0.2c0-0.2,0.1-0.3,0.1-0.5c0-0.1,0.1-0.1,0.2-0.1
					c0,0,0.1,0,0.1,0c0.4,0.1,0.4,0.1,0.4-0.3c0.2-0.8,0.3-1.5,0.5-2.3c0-0.1,0-0.2-0.1-0.2c-0.5-0.1-0.4-0.1-0.3-0.5
					c0-0.1,0-0.2,0.1-0.3c0-0.1,0.1-0.1,0.2-0.1c0.6,0.1,1.1,0.2,1.7,0.4c0.2,0,0.2,0.1,0.2,0.3c0,0.1-0.1,0.3-0.1,0.4
					c0,0.2-0.1,0.2-0.3,0.2c-0.1,0-0.2,0-0.3-0.1c0,0,0,0-0.1,0C156.6,6.8,157.2,7.7,157.7,8.5z"/>
			</g>
			<g>
				<path class="st6" d="M147.6,3.8c0.5,0,0.9,0.1,1.4,0.1c0.4,0,0.6,0.3,0.6,0.7c0,0.2-0.1,0.5-0.1,0.7c0,0.1-0.1,0.2-0.2,0.2
					c0,0,0,0-0.1,0c-0.4,0-0.4,0-0.4-0.4c0-0.3,0-0.3-0.3-0.4c-0.6-0.1-1.3-0.1-1.9-0.1c-0.2,0-0.3,0-0.3,0.2c0,0.2,0,0.4,0,0.6
					c0,0.2,0,0.3,0.3,0.3c0.7,0,1.5,0.1,2.2,0.2c0.3,0,0.7,0.3,0.6,0.7c-0.1,0.5-0.1,1-0.2,1.5c0,0.3-0.3,0.6-0.6,0.5
					c-0.9-0.1-1.7-0.1-2.6-0.2c-0.3,0-0.6-0.3-0.5-0.7c0-0.3,0-0.6,0.1-0.9c0-0.1,0.1-0.2,0.2-0.2c0.5,0,0.5,0,0.5,0.5
					c0,0.3,0,0.4,0.3,0.4c0.6,0,1.1,0.1,1.7,0.1c0.3,0,0.4,0,0.4-0.4c0-0.2,0-0.4,0.1-0.6c0-0.2,0-0.3-0.3-0.3
					c-0.7-0.1-1.5-0.1-2.2-0.2c-0.4,0-0.7-0.3-0.7-0.7c0-0.4,0-0.8,0-1.2c0-0.2,0-0.4,0.2-0.5c0.1-0.1,0.3-0.2,0.4-0.2
					C146.7,3.7,147.2,3.7,147.6,3.8z"/>
			</g>
			<g>
				<path class="st6" d="M136.9,7.9c-0.1-0.1-0.2-0.3-0.3-0.4c0,0-0.1,0-0.1,0c-0.5,0.1-1,0.2-1.5,0.2c-0.1,0-0.2,0.1-0.3,0.2
					c0,0.1-0.1,0.3-0.1,0.4c0.2,0,0.3-0.1,0.4-0.1c0.2,0,0.3,0,0.3,0.2c0,0.1,0,0.3,0.1,0.4c0,0.1,0,0.2-0.2,0.3
					c-0.5,0.1-1.1,0.2-1.6,0.3c0,0-0.1-0.1-0.1-0.1c-0.1-0.2-0.1-0.4-0.1-0.5c0-0.1,0-0.2,0.1-0.2c0.3,0,0.4-0.2,0.5-0.5
					c0.3-0.9,0.5-1.7,0.9-2.6c0-0.1,0-0.1,0.1-0.2c-0.1,0-0.2,0-0.3,0.1c-0.2,0-0.2,0-0.3-0.2c0-0.2-0.1-0.3-0.1-0.5
					c0-0.1,0-0.2,0.2-0.2c0.6-0.1,1.2-0.2,1.7-0.3c0.1,0,0.2,0,0.2,0.1c0,0.2,0.1,0.4,0.1,0.5c0,0.1,0,0.2-0.2,0.2
					c-0.1,0-0.3,0-0.4,0.1c0,0.1,0.1,0.1,0.1,0.2c0.7,0.8,1.3,1.6,1.9,2.4c0.1,0.1,0.1,0.1,0.2,0.1c0.4-0.1,0.4,0,0.5,0.4
					c0.1,0.4,0.1,0.4-0.4,0.5c-0.4,0.1-0.9,0.1-1.3,0.2c-0.2,0-0.3,0-0.3-0.2c0-0.1,0-0.3-0.1-0.4c0-0.1,0-0.2,0.2-0.2
					C136.6,8,136.8,8,136.9,7.9C136.9,7.9,136.9,7.9,136.9,7.9z M135.5,7C135.5,7,135.5,7,135.5,7c0.1,0,0.3,0,0.4-0.1
					c0.1,0,0.2-0.1,0.1-0.2c-0.2-0.2-0.4-0.4-0.6-0.7c-0.1-0.1-0.1-0.1-0.2,0c-0.1,0.3-0.2,0.6-0.3,0.8c0,0.1,0,0.2,0.1,0.1
					C135.2,7,135.4,7,135.5,7z"/>
			</g>
			<g>
				<path class="st6" d="M150,6.3c0.1-0.6,0.1-1.1,0.2-1.7c0-0.3,0.3-0.6,0.7-0.5c0.9,0.1,1.8,0.3,2.6,0.4c0.4,0.1,0.7,0.4,0.6,0.8
					c-0.2,1.1-0.4,2.2-0.7,3.3c-0.1,0.4-0.3,0.6-0.8,0.5c-0.8-0.2-1.6-0.3-2.4-0.4c-0.3,0-0.6-0.4-0.5-0.7
					C149.9,7.5,150,6.9,150,6.3z M153.2,6.8c0.1-0.4,0.1-0.8,0.2-1.1c0-0.2,0-0.3-0.3-0.4c-0.6-0.1-1.3-0.2-1.9-0.3
					c-0.3,0-0.4,0-0.4,0.3c-0.1,0.6-0.2,1.2-0.2,1.8c0,0.2-0.1,0.3-0.1,0.5c0,0.2,0.1,0.3,0.2,0.3c0.6,0.1,1.3,0.2,1.9,0.3
					c0.2,0,0.3,0,0.4-0.3C153.1,7.6,153.1,7.2,153.2,6.8z"/>
			</g>
			<g>
				<path class="st6" d="M131.1,10.1c-0.5,0.1-1,0.3-1.5,0.5c-0.2,0.1-0.3,0-0.4-0.2c0-0.1-0.1-0.2-0.1-0.3c0-0.1,0-0.2,0.1-0.2
					c0,0,0,0,0,0c0.5-0.1,0.4-0.1,0.3-0.5c-0.2-0.7-0.5-1.5-0.7-2.2c-0.1-0.2-0.1-0.2-0.3-0.1C128.1,7,128.1,7,128,6.6
					c-0.1-0.4-0.2-0.4,0.3-0.5c0.5-0.2,1-0.3,1.4-0.4c0.2-0.1,0.2,0,0.3,0.1c0,0.1,0.1,0.3,0.1,0.4c0,0.1,0,0.2-0.1,0.2
					c-0.1,0-0.2,0.1-0.3,0.1c-0.1,0-0.2,0.1-0.1,0.2c0.1,0.4,0.2,0.8,0.4,1.2c0.1,0.4,0.2,0.8,0.4,1.2c0,0.1,0.1,0.2,0.2,0.1
					c0.5-0.1,0.9-0.3,1.4-0.4c0.1,0,0.2-0.1,0.1-0.2c-0.1-0.2-0.1-0.4-0.1-0.5c0-0.1,0-0.2,0.1-0.3c0,0,0,0,0,0
					c0.4-0.1,0.4-0.1,0.5,0.3c0.1,0.4,0.2,0.8,0.3,1.2c0,0.2,0,0.2-0.2,0.3C132.2,9.8,131.7,9.9,131.1,10.1z"/>
			</g>
		</g>
		<path class="st6" d="M158,33.9c0-0.1,0-0.1,0-0.2c-0.1-0.5-0.3-1-0.4-1.5c-0.1-0.2-0.1-0.2-0.3-0.1c-0.4,0.1-0.4,0.2-0.5-0.3
			c-0.1-0.5-0.1-0.4,0.3-0.5c0.4-0.1,0.8-0.2,1.3-0.4c0.2-0.1,0.2,0,0.3,0.1c0,0.1,0.1,0.3,0.1,0.4c0.1,0.2,0,0.2-0.1,0.3
			c-0.1,0-0.1,0-0.2,0.1c-0.1,0-0.2,0.1-0.1,0.2c0.2,0.8,0.5,1.6,0.7,2.4c0,0.1,0.1,0.2,0.2,0.1c0,0,0,0,0,0
			c0.5-0.2,0.4-0.1,0.6,0.3c0.1,0.4,0.1,0.4-0.3,0.5c-0.5,0.1-0.9,0.2-1.4,0.4c-0.2,0-0.2,0-0.3-0.1c0-0.1-0.1-0.2-0.1-0.4
			c-0.1-0.2-0.1-0.2,0.2-0.3c0.1,0,0.2,0,0.3-0.1c0,0,0,0,0-0.1c-0.9-0.4-1.8-0.8-2.7-1.3c0,0.1,0,0.1,0,0.2
			c0.1,0.5,0.3,1.1,0.4,1.6c0,0.1,0.1,0.2,0.2,0.1c0.1,0,0.2,0,0.3-0.1c0.1,0,0.2,0,0.3,0.1c0,0.2,0.1,0.3,0.1,0.5
			c0,0-0.1,0.1-0.1,0.1c-0.6,0.1-1.2,0.3-1.8,0.4c-0.1,0-0.2-0.1-0.2-0.1c-0.1-0.2-0.1-0.3-0.1-0.5c0-0.1,0-0.2,0.1-0.2
			c0,0,0.1,0,0.1,0c0.4-0.1,0.4-0.1,0.3-0.5c-0.2-0.7-0.3-1.5-0.5-2.2c0-0.1-0.1-0.2-0.2-0.1c-0.4,0.1-0.4,0.1-0.5-0.3
			c0-0.1,0-0.2-0.1-0.3c0-0.1,0-0.2,0.1-0.2c0.5-0.1,1-0.2,1.5-0.3c0.2,0,0.2,0,0.3,0.2c0,0.1,0.1,0.3,0.1,0.4c0,0.2,0,0.2-0.2,0.3
			c-0.1,0-0.2,0.1-0.3,0.1c0,0,0,0-0.1,0.1C156.2,33,157.1,33.4,158,33.9z"/>
		<path class="st6" d="M131.3,31.1c0.4,0.1,0.8,0.2,1.2,0.3c0.4,0.1,0.5,0.3,0.5,0.7c0,0.2-0.1,0.4-0.1,0.7c0,0.1-0.1,0.2-0.2,0.2
			c0,0,0,0-0.1,0c-0.3-0.1-0.4-0.1-0.3-0.4c0-0.3,0-0.3-0.3-0.4c-0.6-0.1-1.2-0.3-1.8-0.4c-0.2,0-0.3,0-0.3,0.2
			c0,0.2-0.1,0.3-0.1,0.5c0,0.2,0,0.3,0.2,0.3c0.7,0.2,1.4,0.4,2.1,0.5c0.3,0.1,0.6,0.4,0.5,0.7c-0.1,0.5-0.2,0.9-0.3,1.4
			c-0.1,0.3-0.4,0.5-0.7,0.4c-0.9-0.2-1.8-0.4-2.7-0.6c-0.3-0.1-0.5-0.4-0.4-0.8c0.1-0.3,0.2-0.5,0.2-0.8c0-0.1,0.1-0.1,0.2-0.1
			c0.5,0.1,0.5,0.1,0.4,0.6c-0.1,0.3,0,0.3,0.3,0.4c0.6,0.2,1.2,0.3,1.7,0.4c0.3,0.1,0.4,0,0.5-0.3c0-0.2,0.1-0.4,0.1-0.5
			c0-0.2,0-0.3-0.2-0.3c-0.7-0.2-1.4-0.3-2.1-0.5c-0.4-0.1-0.6-0.4-0.5-0.8c0.1-0.4,0.2-0.7,0.3-1.1c0-0.2,0.1-0.3,0.3-0.4
			c0.1-0.1,0.3-0.1,0.4-0.1C130.5,30.9,130.9,31,131.3,31.1z"/>
		<path class="st6" d="M140.8,36.5c-0.1-0.2-0.2-0.3-0.2-0.5c0,0-0.1-0.1-0.1-0.1c-0.5,0-1-0.1-1.5-0.1c-0.2,0-0.3,0-0.3,0.2
			c-0.1,0.1-0.1,0.2-0.2,0.4c0.2,0,0.3,0,0.4,0c0.2,0,0.3,0.1,0.2,0.3c0,0.1,0,0.3,0,0.4c0,0.1-0.1,0.2-0.2,0.2
			c-0.6-0.1-1.2-0.1-1.7-0.2c-0.1,0-0.1-0.1-0.1-0.2c0-0.2,0-0.4,0.1-0.5c0-0.1,0.1-0.1,0.2-0.1c0.2,0,0.3,0,0.3,0s0.2-0.2,0.3-0.4
			c0.5-0.7,1-1.4,1.5-2.1c0,0,0.1-0.1,0.1-0.2c-0.1,0-0.2,0-0.3,0c-0.1,0-0.2-0.1-0.2-0.2c0-0.2,0-0.3,0-0.5c0-0.1,0.1-0.2,0.2-0.2
			c0.5,0,1,0.1,1.6,0.1c0.1,0,0.2,0.1,0.2,0.2c0,0.2,0,0.4,0,0.5c0,0.1-0.1,0.2-0.2,0.2c-0.1,0-0.2,0-0.4,0c0,0.1,0,0.1,0.1,0.2
			c0.4,0.9,0.9,1.8,1.4,2.6c0,0.1,0.1,0.1,0.2,0.1c0.4,0,0.4,0,0.4,0.4c0,0.4,0,0.4-0.5,0.4c-0.5,0-0.9,0-1.4-0.1
			c-0.2,0-0.3-0.1-0.2-0.3c0-0.1,0-0.3,0-0.4c0-0.1,0.1-0.2,0.2-0.2C140.5,36.5,140.6,36.5,140.8,36.5
			C140.8,36.5,140.8,36.5,140.8,36.5z M139.6,35.3C139.6,35.3,139.6,35.3,139.6,35.3c0.1,0,0.3,0,0.4,0c0.1,0,0.2-0.1,0.1-0.2
			c-0.1-0.3-0.3-0.5-0.4-0.8c-0.1-0.1-0.1-0.1-0.2,0c-0.2,0.2-0.3,0.5-0.5,0.7c-0.1,0.1,0,0.2,0.1,0.2
			C139.3,35.3,139.5,35.3,139.6,35.3z"/>
		<path class="st6" d="M150,34.8c-0.1-0.5-0.1-1.1-0.2-1.6c0-0.3,0.2-0.7,0.5-0.7c0.8-0.1,1.6-0.2,2.4-0.4c0.4-0.1,0.7,0.1,0.8,0.5
			c0.2,1.1,0.4,2.1,0.6,3.2c0.1,0.3-0.1,0.7-0.6,0.8c-0.9,0.1-1.8,0.3-2.7,0.4c-0.4,0.1-0.7-0.2-0.7-0.5
			C150.2,35.9,150.1,35.4,150,34.8z M153.2,34.4c-0.1-0.4-0.1-0.7-0.2-1.1c0-0.2-0.1-0.3-0.4-0.3c-0.6,0.1-1.2,0.2-1.8,0.3
			c-0.3,0-0.3,0.1-0.3,0.4c0.1,0.6,0.2,1.1,0.2,1.7c0,0.2,0,0.3,0.1,0.5c0,0.2,0.1,0.3,0.3,0.2c0.7-0.1,1.3-0.2,2-0.3
			c0.3,0,0.3-0.2,0.3-0.4C153.3,35.1,153.3,34.7,153.2,34.4z"/>
		<path class="st6" d="M143.3,37.5c-0.1,0-0.3-0.1-0.3-0.2v-0.4c0-0.1,0.1-0.2,0.3-0.2h0.3l0-2.6h-0.9v0.7c0,0.1-0.1,0.3-0.3,0.3
			h-0.3c-0.1,0-0.3-0.1-0.3-0.3v-1.3c0-0.1,0.1-0.3,0.3-0.3h4c0.1,0,0.3,0.1,0.3,0.3v1.3c0,0.1-0.1,0.3-0.3,0.3h-0.3
			c-0.1,0-0.3-0.1-0.3-0.3v-0.7h-1v2.6l0,0h0.3c0.1,0,0.3,0.1,0.3,0.2v0.4c0,0.1-0.1,0.2-0.3,0.2H143.3z"/>
		<path class="st6" d="M135.7,36.8C135.7,36.8,135.7,36.8,135.7,36.8l-1.6-0.3c-0.1,0-0.2-0.2-0.2-0.3l0.1-0.5
			c0-0.1,0.1-0.2,0.2-0.2c0,0,0,0,0,0l0.3,0.1l0.5-2.6l-0.9-0.2l-0.1,0.7c0,0.1-0.1,0.2-0.3,0.2c0,0,0,0,0,0l-0.3-0.1
			c-0.1,0-0.2-0.2-0.2-0.3l0.3-1.4c0-0.1,0.1-0.2,0.3-0.2c0,0,0,0,0,0l3.9,0.8c0.1,0,0.2,0.2,0.2,0.3l-0.3,1.4
			c0,0.1-0.1,0.2-0.3,0.2l0,0c0,0,0,0,0,0l-0.3-0.1c-0.1,0-0.2-0.2-0.2-0.3l0.1-0.7l-1-0.2l-0.5,2.6l0,0l0.3,0.1
			c0.1,0,0.2,0.2,0.2,0.3l-0.1,0.5C136,36.7,135.9,36.8,135.7,36.8z"/>
		<path class="st6" d="M147.4,37.3c-0.1,0-0.2-0.1-0.2-0.2l0-0.4c0-0.1,0.1-0.2,0.2-0.2l0,0c0,0,0,0,0.1,0l0.3,0l-0.2-2.5l-0.3,0
			l0,0c-0.1,0-0.2-0.1-0.2-0.2l0-0.4c0-0.1,0.1-0.3,0.2-0.3l1.6-0.1l0,0c0.1,0,0.2,0.1,0.2,0.2l0,0.4c0,0.1-0.1,0.2-0.2,0.2l0,0
			c0,0,0,0-0.1,0l-0.3,0l0.2,2.5l0.3,0l0,0c0.1,0,0.2,0.1,0.2,0.2l0,0.4c0,0.1-0.1,0.3-0.2,0.3L147.4,37.3L147.4,37.3z"/>
	</g>
	<g>
		<path class="st7" d="M447,0c-2.9,0-5.9,0-8.8,0c-0.3,0-0.7,0-1,0c0,0.7,0,1.4,0,2.1c0,12.4,0,24.7,0,37.1c0,0.7,0,1.4,0,2.1
			c0.3,0,0.7,0,1,0c10.7,0,21.4,0,32.1,0c0.3,0,0.6,0,0.9,0c0-13.8,0-27.6,0-41.4C463.1,0,455.1,0,447,0z"/>
		<g>
			<path class="st6" d="M448.1,38.5c-0.1,0-0.1,0.1-0.1,0.1c-0.2,0.1-0.3,0.2-0.5,0.3c-0.2,0.1-0.4,0.2-0.6,0.3
				c-0.5,0.2-1,0.4-1.6,0.5c-0.3,0.1-0.7,0.1-1,0.1c-0.4,0-0.8,0-1.3,0c-0.4,0-0.8,0-1.2-0.1c-0.3-0.1-0.6-0.1-0.9-0.3
				c-0.3-0.1-0.6-0.3-0.9-0.5c-0.3-0.2-0.5-0.4-0.7-0.7c-0.1-0.2-0.2-0.5-0.2-0.8c0-0.2,0-0.5,0.1-0.7c0.1-0.2,0.1-0.4,0.2-0.6
				c0.1-0.3,0.3-0.6,0.4-0.9c0-0.1,0-0.1,0-0.2c-0.3-0.3-0.6-0.6-0.7-1c-0.2-0.4-0.3-0.8-0.4-1.2c0-0.2-0.1-0.3-0.1-0.5
				c0-0.3,0-0.5,0-0.8c0.1-0.3,0.1-0.6,0.3-0.9c0.1-0.3,0.3-0.6,0.5-0.9c0.2-0.2,0.4-0.4,0.6-0.6c0.1-0.1,0.3-0.3,0.5-0.4
				c0.2-0.1,0.4-0.2,0.6-0.3c0.3-0.2,0.6-0.3,1-0.4c0.2,0,0.3-0.1,0.5-0.1c0.2,0,0.4-0.1,0.6-0.1c0.3,0,0.6,0,0.9,0
				c0.1,0,0.3,0,0.4,0c0.2,0,0.3,0,0.5,0c0.6,0,1.1,0.1,1.7,0.2c0.4,0.1,0.7,0.2,1.1,0.4c0.3,0.2,0.7,0.4,1,0.6
				c0.2,0.1,0.3,0.2,0.5,0.4c0.1,0.1,0.2,0.2,0.3,0.3c0.2,0.2,0.3,0.3,0.4,0.5c0.1,0.2,0.2,0.3,0.3,0.5c0.1,0.1,0.1,0.2,0.2,0.3
				c0.1,0.2,0.1,0.4,0.2,0.5c0,0,0,0,0,0c0,0,0,0,0.1,0c0,0,0.1-0.1,0.1-0.1c0.3-0.3,0.7-0.4,1-0.5c0.2-0.1,0.5-0.1,0.8-0.1
				c0.2,0,0.4,0,0.6,0c0.1,0,0.2,0,0.3,0c0.6,0,1.2,0,1.8,0c0.5,0,1.1,0,1.6,0c0,0,0,0,0,0c0.1,0,0.1,0,0.1-0.1
				c-0.2-0.4-0.2-0.8,0.1-1.3c0.1-0.1,0.2-0.3,0.3-0.4c0.2-0.2,0.5-0.3,0.7-0.5c0.2-0.1,0.3-0.1,0.5-0.1c0.4,0,0.7,0,1.1,0
				c0.2,0,0.5,0,0.7,0.1c0,0,0.1,0,0.1,0c0.2-0.1,0.3-0.1,0.5-0.1c0.8,0,1.6,0,2.4,0c0.1,0,0.3,0,0.4,0.1c0.2,0.2,0.4,0.4,0.3,0.7
				c0,0.2-0.1,0.5-0.1,0.7c0,0.2-0.1,0.4-0.1,0.6c0,0,0,0.1,0,0.1c0,0,0,0,0,0c0,0,0,0,0.1,0c0.5,0,1,0,1.5,0c0.1,0,0.2,0,0.3,0
				c0.1,0,0.2,0.1,0.3,0.1c0.1,0,0.1,0,0.2,0c0.1-0.1,0.2-0.1,0.3-0.1c0.1,0,0.2,0,0.3,0c0.7,0,1.3,0,2,0c0.2,0,0.4,0,0.6,0
				c0.2,0,0.4,0.1,0.5,0.3c0.1,0.2,0.1,0.3,0,0.5c0,0.1-0.1,0.2-0.1,0.3c-0.2,0.3-0.4,0.6-0.6,0.9c-0.1,0.1-0.1,0.2-0.2,0.4
				c-0.2,0.3-0.4,0.7-0.6,1c-0.2,0.3-0.4,0.7-0.6,1c-0.2,0.2-0.3,0.5-0.5,0.7c-0.2,0.4-0.5,0.7-0.7,1.1c-0.2,0.3-0.4,0.7-0.6,1
				c-0.2,0.3-0.3,0.5-0.5,0.8c-0.2,0.3-0.4,0.5-0.7,0.6c-0.2,0-0.3,0-0.5,0c-0.4,0-0.7,0-1.1,0c-0.4,0-0.8,0-1.1,0
				c-0.1,0-0.3,0-0.4-0.1c0,0-0.1,0-0.1,0c-0.1,0.1-0.2,0.1-0.4,0.1c-0.4,0-0.8,0-1.2,0c-0.6,0-1.2,0-1.7,0c-0.2,0-0.4,0-0.5,0
				c-0.7,0-1.5,0-2.2,0c-0.2,0-0.5,0-0.7,0c0,0-0.1,0-0.1,0c-0.1,0-0.2,0-0.3,0c-0.3,0-0.6,0-0.8,0c-0.3,0-0.5,0-0.8,0
				c-0.6,0-1.3,0-1.9,0c-0.1,0-0.1,0-0.2,0c0,0,0,0-0.1,0c-0.2,0-0.3,0-0.5,0c-0.4,0-0.9,0-1.3,0c-0.1,0-0.3,0-0.4-0.1
				c-0.2-0.1-0.2-0.3-0.2-0.5c0-0.1,0-0.1,0-0.2C448.1,38.6,448.1,38.6,448.1,38.5z M457.3,31.2C457.3,31.2,457.3,31.2,457.3,31.2
				c0,0-0.1,0-0.1,0c-0.1,0-0.3,0-0.4,0c-0.5,0-1,0-1.6,0c-0.3,0-0.5,0-0.8,0c-0.2,0-0.5,0-0.7,0c-0.1,0-0.3,0-0.4,0
				c-0.1,0-0.2,0-0.3,0c-0.2,0-0.4,0-0.7,0c-0.3,0-0.6,0.1-0.8,0.2c-0.2,0.1-0.4,0.2-0.6,0.3c-0.2,0.1-0.3,0.3-0.5,0.4
				c0,0,0,0-0.1,0.1c0,0,0,0-0.1,0c0,0,0,0,0-0.1c0-0.2-0.1-0.4-0.2-0.6c-0.1-0.3-0.2-0.6-0.4-0.9c-0.1-0.2-0.2-0.3-0.3-0.5
				c-0.1-0.1-0.2-0.3-0.4-0.4c-0.1-0.1-0.2-0.2-0.4-0.3c-0.1-0.1-0.2-0.2-0.3-0.3c-0.2-0.1-0.3-0.2-0.5-0.3
				c-0.1-0.1-0.2-0.1-0.3-0.2c-0.2-0.1-0.5-0.2-0.7-0.3c-0.4-0.1-0.7-0.2-1.1-0.2c-0.4-0.1-0.8-0.1-1.2-0.1c-0.1,0-0.2,0-0.4,0
				c-0.2,0-0.3,0-0.5,0c-0.3,0-0.6,0-0.9,0.1c-0.2,0-0.3,0.1-0.5,0.1c-0.3,0.1-0.6,0.2-0.9,0.3c-0.3,0.1-0.5,0.2-0.7,0.4
				c-0.1,0.1-0.3,0.2-0.4,0.3c-0.3,0.3-0.6,0.5-0.8,0.9c-0.2,0.2-0.3,0.5-0.4,0.8c-0.1,0.2-0.2,0.5-0.2,0.8
				c-0.1,0.3-0.1,0.6-0.1,0.8c0,0.3,0.1,0.5,0.1,0.8c0.1,0.3,0.2,0.7,0.4,1c0.2,0.4,0.5,0.7,0.8,1c0,0,0.1,0.1,0,0.1
				c0,0,0,0.1,0,0.1c0,0.1-0.1,0.2-0.1,0.3c-0.2,0.4-0.3,0.8-0.5,1.2c-0.1,0.2-0.1,0.3-0.1,0.5c0,0.2,0,0.4,0,0.5
				c0.1,0.2,0.2,0.4,0.3,0.5c0.2,0.2,0.4,0.4,0.7,0.6c0.2,0.1,0.5,0.2,0.7,0.3c0.3,0.1,0.5,0.2,0.8,0.2c0.5,0.1,1,0.1,1.5,0.1
				c0.1,0,0.3,0,0.4,0c0.2,0,0.5,0,0.7,0c0.3,0,0.6-0.1,0.9-0.1c0.2,0,0.4-0.1,0.7-0.2c0.3-0.1,0.6-0.2,0.8-0.3
				c0.3-0.1,0.6-0.3,0.9-0.5c0.1-0.1,0.2-0.1,0.3-0.2c0.1-0.1,0.2-0.2,0.3-0.3c0,0,0.1,0,0.1,0c0,0.1,0,0.1,0,0.2
				c0,0.2-0.1,0.4-0.1,0.6c0,0.2,0.1,0.4,0.3,0.4c0,0,0,0,0.1,0c0.2,0,0.3,0,0.5,0c0.1,0,0.2,0,0.3,0c0.3,0,0.5,0,0.8,0
				c0.1,0,0.2,0,0.4,0c0.2,0,0.4,0,0.7,0c0.3,0,0.7,0,1,0c0.1,0,0.2,0,0.3,0c0.3,0,0.5,0,0.8,0c0.2,0,0.4,0,0.6,0c0.1,0,0.2,0,0.3,0
				c0.1,0,0.2,0,0.3,0c0,0,0.1,0,0.1,0c0.3,0,0.6,0,0.9,0c0.2,0,0.4,0,0.7,0c0.3,0,0.6,0,0.9,0c0.2,0,0.3,0,0.5,0c0.1,0,0.2,0,0.3,0
				c0,0,0.1,0,0.1,0c0.4,0,0.9,0,1.3,0c0.1,0,0.2,0,0.4,0c0.5,0,0.9,0,1.4,0c0.1,0,0.2,0,0.3-0.1c0,0,0.1-0.1,0.1-0.1c0,0,0,0,0,0
				c0,0,0,0,0,0c0.1,0.1,0.2,0.2,0.4,0.2c0.2,0,0.3,0,0.5,0c0.4,0,0.8,0,1.2,0c0.3,0,0.5,0,0.8,0c0.3,0,0.5-0.1,0.7-0.4
				c0.1-0.1,0.1-0.2,0.2-0.3c0.2-0.2,0.3-0.5,0.4-0.7c0.1-0.2,0.3-0.4,0.4-0.6c0.1-0.2,0.2-0.4,0.3-0.5c0.2-0.3,0.3-0.5,0.5-0.8
				c0.1-0.1,0.2-0.3,0.3-0.4c0.1-0.2,0.3-0.4,0.4-0.7c0.1-0.2,0.2-0.4,0.4-0.6c0.1-0.2,0.3-0.4,0.4-0.6c0.1-0.1,0.2-0.3,0.3-0.4
				c0.1-0.1,0.1-0.2,0.2-0.2c0.2-0.3,0.3-0.5,0.5-0.8c0.1-0.1,0.2-0.3,0.3-0.4c0-0.1,0.1-0.2,0-0.3c0-0.2-0.1-0.2-0.3-0.3
				c-0.2,0-0.3,0-0.5,0c-0.7,0-1.4,0-2.1,0c-0.1,0-0.2,0-0.3,0c-0.1,0-0.2,0.1-0.3,0.2c0,0-0.1,0-0.1,0c-0.1-0.1-0.3-0.2-0.5-0.2
				c-0.2,0-0.5,0-0.7,0c-0.4,0-0.8,0-1.3,0c-0.1,0-0.1,0-0.1-0.1c0-0.3,0.1-0.6,0.1-0.8c0-0.2,0.1-0.5,0.1-0.7c0-0.1,0-0.2,0-0.3
				c-0.1-0.1-0.1-0.2-0.3-0.2c-0.1,0-0.2,0-0.3,0c-0.3,0-0.6,0-0.9,0c-0.5,0-1,0-1.5,0c-0.2,0-0.3,0-0.5,0.1c0,0-0.1,0-0.1,0
				c-0.2-0.1-0.4-0.2-0.7-0.2c-0.4,0-0.7,0-1.1,0c-0.2,0-0.4,0.1-0.5,0.1c-0.2,0.1-0.4,0.2-0.5,0.3c-0.2,0.2-0.4,0.4-0.5,0.7
				c-0.1,0.2,0,0.4,0,0.6c0.1,0.1,0.1,0.2,0.2,0.3C457.2,31.1,457.2,31.2,457.3,31.2z"/>
			<path class="st6" d="M446.3,33.3c0,0.3,0,0.6-0.1,0.9c0,0.2-0.1,0.3-0.2,0.4c-0.1,0.2-0.2,0.4-0.3,0.5c-0.2,0.3-0.4,0.5-0.7,0.7
				c-0.2,0.2-0.5,0.3-0.7,0.4c0,0-0.1,0-0.1,0c-0.1-0.1-0.2-0.2-0.2-0.4c0-0.2,0.1-0.4,0.2-0.6c0.1-0.2,0.2-0.4,0.2-0.6
				c0.1-0.3,0.3-0.7,0.4-1c0.1-0.4,0.3-0.7,0.4-1.1c0-0.1,0-0.1,0.1-0.2c0-0.1,0-0.2,0-0.3c0,0,0-0.1,0-0.1
				c-0.1-0.2-0.2-0.3-0.4-0.4c-0.1-0.1-0.2-0.1-0.3-0.2c-0.3-0.1-0.6-0.2-0.9-0.3c-0.2,0-0.3-0.1-0.5-0.1c0,0,0,0,0,0c0,0,0,0,0,0
				c0,0,0.1,0,0.1,0c0.2-0.1,0.3-0.1,0.5-0.1c0.2,0,0.4,0,0.6,0c0.4,0,0.8,0.1,1.1,0.3c0.3,0.2,0.5,0.4,0.7,0.7
				c0.1,0.2,0.2,0.5,0.3,0.7c0,0.2,0.1,0.3,0.1,0.5C446.3,33.2,446.3,33.2,446.3,33.3z"/>
		</g>
		<g>
			<path class="st8" d="M457.3,31.2c-0.1-0.1-0.1-0.1-0.2-0.2c-0.1-0.1-0.2-0.2-0.2-0.3c-0.1-0.2-0.1-0.4,0-0.6
				c0.1-0.3,0.2-0.5,0.5-0.7c0.2-0.1,0.3-0.2,0.5-0.3c0.2-0.1,0.4-0.1,0.5-0.1c0.4,0,0.7,0,1.1,0c0.2,0,0.5,0,0.7,0.2
				c0,0,0.1,0,0.1,0c0.1-0.1,0.3-0.1,0.5-0.1c0.5,0,1,0,1.5,0c0.3,0,0.6,0,0.9,0c0.1,0,0.2,0,0.3,0c0.1,0,0.2,0.1,0.3,0.2
				c0,0.1,0.1,0.2,0,0.3c0,0.2-0.1,0.5-0.1,0.7c0,0.3-0.1,0.6-0.1,0.8c0,0.1,0,0.1,0.1,0.1c0.4,0,0.8,0,1.3,0c0.2,0,0.5,0,0.7,0
				c0.2,0,0.3,0.1,0.5,0.2c0,0,0.1,0,0.1,0c0.1-0.1,0.2-0.1,0.3-0.2c0.1,0,0.2,0,0.3,0c0.7,0,1.4,0,2.1,0c0.2,0,0.3,0,0.5,0
				c0.2,0,0.3,0.1,0.3,0.3c0,0.1,0,0.2,0,0.3c-0.1,0.1-0.2,0.3-0.3,0.4c-0.2,0.3-0.3,0.5-0.5,0.8c-0.1,0.1-0.1,0.2-0.2,0.2
				c-0.1,0.1-0.2,0.3-0.3,0.4c-0.1,0.2-0.3,0.4-0.4,0.6c-0.1,0.2-0.2,0.4-0.4,0.6c-0.1,0.2-0.3,0.4-0.4,0.7
				c-0.1,0.1-0.2,0.3-0.3,0.4c-0.2,0.3-0.3,0.5-0.5,0.8c-0.1,0.2-0.2,0.4-0.3,0.5c-0.1,0.2-0.3,0.4-0.4,0.6
				c-0.1,0.2-0.3,0.5-0.4,0.7c-0.1,0.1-0.1,0.2-0.2,0.3c-0.2,0.2-0.4,0.4-0.7,0.4c-0.3,0-0.5,0-0.8,0c-0.4,0-0.8,0-1.2,0
				c-0.2,0-0.3,0-0.5,0c-0.2,0-0.3-0.1-0.4-0.2c0,0,0,0,0,0c0,0,0,0,0,0c0,0-0.1,0.1-0.1,0.1c-0.1,0.1-0.2,0.1-0.3,0.1
				c-0.5,0-0.9,0-1.4,0c-0.1,0-0.2,0-0.4,0c-0.4,0-0.9,0-1.3,0c0,0-0.1,0-0.1,0c-0.1,0-0.2,0-0.3,0c-0.2,0-0.3,0-0.5,0
				c-0.3,0-0.6,0-0.9,0c-0.2,0-0.5,0-0.7,0c-0.3,0-0.6,0-0.9,0c0,0-0.1,0-0.1,0c-0.1,0-0.2,0-0.3,0c-0.1,0-0.2,0-0.3,0
				c-0.2,0-0.4,0-0.6,0c-0.3,0-0.5,0-0.8,0c-0.1,0-0.2,0-0.3,0c-0.3,0-0.7,0-1,0c-0.2,0-0.5,0-0.7,0c-0.1,0-0.2,0-0.4,0
				c-0.3,0-0.5,0-0.8,0c-0.1,0-0.2,0-0.3,0c-0.2,0-0.3,0-0.5,0c0,0,0,0-0.1,0c-0.2,0-0.3-0.2-0.3-0.4c0-0.2,0.1-0.4,0.1-0.6
				c0-0.1,0-0.1,0-0.2c0-0.1,0-0.1-0.1,0c-0.1,0.1-0.2,0.2-0.3,0.3c-0.1,0.1-0.2,0.1-0.3,0.2c-0.3,0.2-0.6,0.4-0.9,0.5
				c-0.3,0.1-0.5,0.2-0.8,0.3c-0.2,0.1-0.4,0.1-0.7,0.2c-0.3,0.1-0.6,0.1-0.9,0.1c-0.2,0-0.5,0-0.7,0c-0.1,0-0.3,0-0.4,0
				c-0.5,0-1,0-1.5-0.1c-0.3,0-0.6-0.1-0.8-0.2c-0.2-0.1-0.5-0.2-0.7-0.3c-0.3-0.2-0.5-0.3-0.7-0.6c-0.1-0.2-0.2-0.3-0.3-0.5
				c-0.1-0.2-0.1-0.4,0-0.5c0-0.2,0.1-0.3,0.1-0.5c0.2-0.4,0.3-0.8,0.5-1.2c0-0.1,0.1-0.2,0.1-0.3c0,0,0-0.1,0-0.1c0,0,0-0.1,0-0.1
				c-0.3-0.3-0.6-0.6-0.8-1c-0.2-0.3-0.3-0.6-0.4-1c-0.1-0.3-0.1-0.5-0.1-0.8c0-0.3,0-0.6,0.1-0.8c0.1-0.3,0.1-0.5,0.2-0.8
				c0.1-0.3,0.2-0.5,0.4-0.8c0.2-0.3,0.5-0.6,0.8-0.9c0.1-0.1,0.2-0.2,0.4-0.3c0.2-0.1,0.5-0.3,0.7-0.4c0.3-0.1,0.6-0.2,0.9-0.3
				c0.2,0,0.3-0.1,0.5-0.1c0.3,0,0.6-0.1,0.9-0.1c0.2,0,0.3,0,0.5,0c0.1,0,0.2,0,0.4,0c0.4,0,0.8,0,1.2,0.1c0.4,0.1,0.8,0.1,1.1,0.2
				c0.3,0.1,0.5,0.2,0.7,0.3c0.1,0,0.2,0.1,0.3,0.2c0.2,0.1,0.3,0.2,0.5,0.3c0.1,0.1,0.2,0.2,0.3,0.3c0.1,0.1,0.2,0.2,0.4,0.3
				c0.1,0.1,0.3,0.3,0.4,0.4c0.1,0.2,0.2,0.3,0.3,0.5c0.2,0.3,0.3,0.6,0.4,0.9c0.1,0.2,0.1,0.4,0.2,0.6c0,0,0,0,0,0.1c0,0,0,0,0.1,0
				c0,0,0,0,0.1-0.1c0.1-0.1,0.3-0.3,0.5-0.4c0.2-0.1,0.4-0.2,0.6-0.3c0.3-0.1,0.5-0.2,0.8-0.2c0.2,0,0.4,0,0.7,0c0.1,0,0.2,0,0.3,0
				c0.1,0,0.3,0,0.4,0c0.2,0,0.5,0,0.7,0c0.3,0,0.5,0,0.8,0c0.5,0,1,0,1.6,0c0.1,0,0.3,0,0.4,0C457.2,31.2,457.2,31.2,457.3,31.2
				C457.3,31.2,457.3,31.2,457.3,31.2z M443,39.4c0.2,0,0.3,0,0.5,0c0.4,0,0.8-0.1,1.1-0.2c0.4-0.1,0.7-0.2,1.1-0.4
				c0.2-0.1,0.4-0.2,0.6-0.3c0.3-0.2,0.6-0.4,0.9-0.7c0.1-0.1,0.3-0.3,0.4-0.4c0.2-0.2,0.4-0.5,0.6-0.8c0.1-0.2,0.3-0.5,0.4-0.7
				c0.2-0.4,0.3-0.7,0.4-1.1c0.1-0.2,0.1-0.5,0.1-0.7c0-0.2,0-0.4,0-0.6c0-0.2,0-0.5,0-0.7c0-0.3-0.1-0.5-0.1-0.8
				c-0.1-0.3-0.2-0.6-0.3-0.9c-0.1-0.3-0.3-0.6-0.6-0.9c-0.2-0.2-0.4-0.4-0.6-0.6c-0.2-0.2-0.5-0.4-0.8-0.5
				c-0.2-0.1-0.3-0.2-0.5-0.3c-0.2-0.1-0.3-0.1-0.5-0.2c-0.2-0.1-0.4-0.1-0.6-0.1c-0.3,0-0.5-0.1-0.8-0.1c-0.1,0-0.3,0-0.4,0
				c-0.2,0-0.4,0-0.6,0c-0.2,0-0.4,0-0.7,0.1c-0.2,0-0.4,0.1-0.6,0.1c-0.1,0-0.3,0.1-0.4,0.1c-0.2,0.1-0.4,0.2-0.6,0.3
				c-0.2,0.1-0.3,0.2-0.5,0.3c-0.2,0.1-0.4,0.3-0.5,0.5c-0.2,0.2-0.4,0.5-0.6,0.8c-0.1,0.2-0.2,0.3-0.2,0.5
				c-0.1,0.3-0.2,0.6-0.2,0.9c0,0.1,0,0.2,0,0.4c0,0.1,0,0.2,0,0.3c0,0.2,0,0.3,0.1,0.5c0,0.2,0.1,0.4,0.1,0.5
				c0.1,0.2,0.2,0.4,0.3,0.7c0,0.1,0.1,0.1,0.1,0.2c0.1,0.2,0.3,0.3,0.4,0.5c0.1,0.1,0.1,0.1,0.2,0.2c0,0,0,0,0,0.1
				c-0.1,0.2-0.1,0.3-0.2,0.5c-0.2,0.4-0.3,0.8-0.5,1.2c-0.1,0.2-0.1,0.4-0.2,0.6c0,0.2,0,0.3,0.1,0.4c0,0.1,0.1,0.2,0.2,0.3
				c0.1,0.1,0.1,0.2,0.2,0.2c0.1,0.1,0.2,0.2,0.4,0.3c0.3,0.2,0.6,0.3,0.9,0.5c0,0,0.1,0,0.1,0c0.3,0.1,0.7,0.2,1,0.2
				C442.5,39.4,442.8,39.4,443,39.4z M454.1,36.5C454.1,36.5,454.1,36.5,454.1,36.5c0.3,0,0.5,0,0.8,0c0.2,0,0.4-0.1,0.4-0.4
				c0-0.2,0.1-0.4,0.1-0.6c0-0.2,0.1-0.5,0.1-0.7c0.1-0.5,0.2-1,0.3-1.5c0.1-0.3,0.1-0.6,0.1-0.9c0-0.2,0.1-0.5,0.1-0.7
				c0-0.1,0-0.3-0.2-0.3c-0.1,0-0.1,0-0.2,0c-0.3,0-0.5,0-0.8,0c-0.2,0-0.4,0-0.6,0c-0.3,0-0.4,0.2-0.5,0.4c0,0,0,0,0,0.1
				c0,0,0,0,0,0c0,0,0,0,0,0c0,0,0,0,0,0c0-0.1-0.1-0.1-0.1-0.1c-0.2-0.2-0.4-0.3-0.7-0.3c-0.3,0-0.5,0-0.8,0
				c-0.3,0-0.6,0.1-0.8,0.3c-0.2,0.1-0.4,0.3-0.6,0.4c-0.2,0.2-0.4,0.4-0.5,0.7c-0.2,0.3-0.3,0.6-0.4,0.8c0,0.1,0,0.1,0,0.2
				c0,0.2-0.1,0.4-0.1,0.6c0,0.3,0,0.5,0.1,0.8c0.1,0.3,0.2,0.6,0.4,0.8c0.2,0.2,0.4,0.4,0.7,0.5c0.1,0.1,0.3,0.1,0.5,0.1
				c0.2,0,0.4,0,0.7,0c0.3-0.1,0.6-0.2,0.8-0.4c0.1-0.1,0.2-0.1,0.3-0.2c0,0,0,0,0,0c0,0,0,0,0,0.1c0,0.1,0,0.1,0,0.2
				c0,0.1,0,0.1,0.1,0.2c0.1,0.1,0.2,0.1,0.3,0.1C453.7,36.5,453.9,36.5,454.1,36.5z M465.1,33C465.1,33,465.1,33,465.1,33
				c-0.1-0.3-0.1-0.6-0.2-0.8c0-0.2-0.1-0.3-0.1-0.5c0-0.2-0.2-0.3-0.4-0.3c-0.1,0-0.2,0-0.3,0c-0.4,0-0.7,0-1.1,0
				c-0.1,0-0.3,0-0.4,0c-0.1,0-0.2,0.1-0.2,0.3c0,0.1,0.1,0.3,0.1,0.4c0,0.2,0.1,0.3,0.1,0.5c0.1,0.3,0.1,0.6,0.2,0.9
				c0,0.1,0,0.1,0,0.2c0,0.1,0.1,0.2,0.1,0.3c0,0.2,0.1,0.4,0.2,0.6c0,0.1,0.1,0.3,0.1,0.4c0.1,0.1,0.1,0.3,0.1,0.4
				c0,0.1,0,0.1,0,0.2c0,0.2-0.1,0.4-0.2,0.6c-0.1,0.2-0.2,0.4-0.4,0.6c-0.1,0.2-0.2,0.3-0.3,0.5c-0.2,0.3-0.3,0.5-0.5,0.8
				c-0.1,0.2-0.2,0.4-0.4,0.6c-0.1,0.1-0.1,0.2-0.1,0.2c-0.1,0.1,0,0.3,0.2,0.3c0.2,0,0.4,0,0.6,0c0.3,0,0.6,0,1,0
				c0.3,0,0.5-0.1,0.6-0.3c0.1-0.2,0.2-0.3,0.3-0.5c0.2-0.3,0.4-0.7,0.6-1c0.1-0.2,0.2-0.3,0.3-0.5c0.1-0.2,0.3-0.5,0.4-0.7
				c0.1-0.1,0.2-0.3,0.3-0.4c0.2-0.2,0.3-0.5,0.5-0.7c0.2-0.3,0.4-0.7,0.6-1c0.2-0.3,0.4-0.6,0.5-0.9c0.1-0.1,0.2-0.3,0.2-0.4
				c0.2-0.3,0.3-0.5,0.5-0.8c0,0,0-0.1,0.1-0.1c0-0.1,0-0.2-0.1-0.2c0,0-0.1,0-0.1,0c-0.4,0-0.7,0-1.1,0c-0.2,0-0.3,0-0.5,0
				c-0.2,0-0.3,0.1-0.4,0.2c-0.1,0.1-0.1,0.2-0.2,0.3c-0.2,0.3-0.3,0.5-0.5,0.8C465.3,32.8,465.2,32.9,465.1,33z M460.1,36.5
				C460.1,36.5,460.2,36.5,460.1,36.5c0.3,0,0.5,0,0.8,0c0.2,0,0.4-0.2,0.4-0.4c0,0,0-0.1,0-0.1c0.1-0.4,0.2-0.8,0.2-1.3
				c0.1-0.6,0.2-1.1,0.3-1.6c0.1-0.7,0.2-1.3,0.3-2c0.1-0.5,0.2-1,0.3-1.5c0-0.1,0-0.1,0-0.2c0-0.1-0.1-0.2-0.2-0.2c0,0-0.1,0-0.1,0
				c-0.1,0-0.3,0-0.4,0c-0.4,0-0.7,0-1.1,0c-0.2,0-0.4,0.2-0.5,0.4c-0.1,0.3-0.1,0.7-0.2,1c-0.1,0.3-0.1,0.6-0.2,0.9
				c-0.1,0.5-0.2,1.1-0.3,1.6c-0.1,0.4-0.2,0.8-0.2,1.3c-0.1,0.4-0.1,0.7-0.2,1.1c0,0.2-0.1,0.4-0.1,0.6c0,0.2,0,0.2,0.2,0.3
				c0,0,0.1,0,0.1,0C459.6,36.5,459.9,36.5,460.1,36.5z M457.1,36.4C457.1,36.5,457.1,36.5,457.1,36.4c0.3,0,0.5,0,0.8,0
				c0.1,0,0.2,0,0.2-0.1c0.1-0.1,0.2-0.2,0.2-0.3c0.1-0.4,0.1-0.7,0.2-1.1c0.1-0.5,0.2-1.1,0.3-1.6c0.1-0.4,0.1-0.8,0.2-1.3
				c0-0.1,0-0.2,0-0.3c0-0.1,0-0.2,0-0.2c-0.1-0.1-0.2-0.2-0.3-0.2c-0.2,0-0.3,0-0.5,0c-0.4,0-0.7,0-1.1,0c-0.1,0-0.1,0-0.2,0
				c-0.2,0.1-0.3,0.2-0.3,0.4c0,0.1,0,0.2-0.1,0.3c0,0.3-0.1,0.5-0.1,0.8c-0.1,0.3-0.1,0.6-0.2,0.9c-0.1,0.3-0.1,0.6-0.2,1
				c0,0.2-0.1,0.3-0.1,0.5c0,0.1,0,0.3-0.1,0.4c0,0.1-0.1,0.3-0.1,0.4c0,0.1,0,0.1,0,0.2c0.1,0.1,0.2,0.2,0.3,0.2
				C456.6,36.4,456.9,36.4,457.1,36.4z M458,31.2c0.1,0,0.2,0,0.3,0c0.3-0.1,0.6-0.2,0.8-0.4c0.2-0.2,0.4-0.5,0.4-0.8
				c0-0.2,0-0.3-0.1-0.4c-0.2-0.3-0.5-0.4-0.9-0.4c-0.2,0-0.5,0.1-0.7,0.2c-0.2,0.1-0.3,0.2-0.5,0.3c-0.2,0.2-0.2,0.4-0.3,0.6
				c0,0.1,0,0.2,0,0.3c0.1,0.3,0.2,0.4,0.4,0.6C457.6,31.2,457.8,31.2,458,31.2z M452.4,37.8C452.4,37.7,452.4,37.7,452.4,37.8
				c0-0.3,0-0.5,0-0.7c0-0.1,0-0.2-0.2-0.2c-0.2,0-0.3,0-0.5,0c-0.1,0-0.1,0-0.2,0.1c0,0.1,0,0.1,0,0.2c-0.1,0.3-0.1,0.6-0.2,0.9
				c0,0.2-0.1,0.5-0.1,0.7c0,0.1,0,0.2,0.1,0.2c0.1,0,0.2,0,0.2,0c0.1,0,0.2,0,0.2-0.2c0-0.1,0-0.2,0.1-0.3c0-0.1,0-0.2,0.1-0.3
				c0,0,0,0,0,0c0,0.1,0,0.2,0,0.3c0,0.1,0,0.2,0,0.3c0,0.1,0,0.1,0.1,0.1c0.1,0,0.1,0,0.2,0c0.1,0,0.1,0,0.1-0.1
				c0-0.1,0.1-0.1,0.1-0.2c0-0.1,0.1-0.3,0.1-0.4c0,0,0-0.1,0-0.1c0,0,0,0,0,0.1c0,0.1,0,0.2-0.1,0.3c0,0.1,0,0.2,0,0.2
				c0,0.1,0,0.1,0.1,0.1c0.1,0,0.2,0,0.3,0c0.1,0,0.2-0.1,0.2-0.2c0.1-0.5,0.2-1,0.3-1.6c0-0.1,0-0.2,0-0.3c0-0.1,0-0.1-0.1-0.1
				c-0.2,0-0.3,0-0.5,0c-0.1,0-0.2,0.1-0.2,0.2c0,0.1-0.1,0.3-0.1,0.4C452.5,37.6,452.5,37.7,452.4,37.8z M462.9,34.1
				C462.9,34.1,462.9,34.1,462.9,34.1c-0.1,0.4-0.1,0.8-0.2,1.1c0,0.2-0.1,0.4-0.1,0.6c0,0.1,0,0.3-0.1,0.4
				c-0.1,0.2-0.3,0.4-0.5,0.4c-0.2,0-0.5,0-0.7,0c-0.1,0-0.3,0-0.4,0c-0.3,0-0.5,0-0.8,0c-0.3,0-0.5,0-0.8,0c-0.2,0-0.4,0-0.6,0
				c-0.3,0-0.7,0-1,0c-0.4,0-0.7,0-1.1,0c-0.2,0-0.4,0-0.7,0c-0.4,0-0.8,0-1.2,0c-0.3,0-0.6,0-0.9,0c-0.2,0-0.3,0-0.5,0
				c-0.1,0-0.2,0-0.3,0.1c0,0,0.1,0,0.1,0c0.2,0,0.4,0,0.7,0c0.1,0,0.2,0,0.3,0.1c0,0,0.1,0,0.1,0c0.1,0,0.1-0.1,0.2-0.1
				c0.3,0,0.6,0,0.8,0c0.1,0,0.1,0,0.2,0.1c0,0,0.1,0,0.1,0c0.1-0.1,0.1-0.1,0.2-0.1c0.1,0,0.2,0,0.4,0c0.4,0,0.7,0,1.1,0
				c0.1,0,0.2,0,0.2,0c0.1,0.1,0.1,0,0.2,0c0.1,0,0.1,0,0.2,0c0.2,0,0.4,0,0.6,0c0.1,0,0.3,0,0.4,0.1c0,0,0.1,0,0.1,0
				c0.1-0.1,0.2-0.1,0.2-0.1c0.1,0,0.1,0,0.2,0c0.2,0,0.5,0,0.7,0c0.4,0,0.8,0,1.2,0c0.1,0,0.2,0,0.3,0c0.2,0,0.3,0.2,0.3,0.4
				c0,0.4-0.1,0.7-0.2,1.1c0,0.1-0.1,0.3-0.1,0.4c0,0,0.1,0,0.1-0.1c0.1-0.2,0.2-0.3,0.3-0.5c0.2-0.3,0.4-0.6,0.5-0.9
				c0.1-0.1,0.2-0.3,0.3-0.4c0.1-0.2,0.3-0.4,0.4-0.6c0.1-0.1,0.1-0.2,0.1-0.3c0-0.1,0-0.2,0-0.3c-0.1-0.3-0.2-0.7-0.2-1
				C463,34.4,462.9,34.3,462.9,34.1C462.9,34.1,462.9,34.1,462.9,34.1z M459.3,38.2C459.4,38.2,459.4,38.2,459.3,38.2
				c0.1,0.3,0.1,0.5,0.2,0.7c0,0.1,0.1,0.2,0.2,0.1c0.1,0,0.1,0,0.2,0c0.1,0,0.1,0,0.2,0c0.1,0,0.1,0,0.1-0.1c0,0,0,0,0-0.1
				c0-0.1-0.1-0.2-0.1-0.4c0-0.2-0.1-0.3-0.1-0.5c0-0.1,0-0.1,0-0.2c0.1-0.2,0.2-0.4,0.4-0.6c0-0.1,0.1-0.1,0.1-0.2
				c0-0.1,0-0.1-0.1-0.1c-0.1,0-0.2,0-0.3,0c-0.1,0-0.2,0.1-0.3,0.2c-0.1,0.2-0.2,0.3-0.3,0.5c0,0.1-0.1,0.1-0.1,0.2
				c0,0,0-0.1,0-0.1c0-0.2,0.1-0.4,0.1-0.5c0-0.1,0-0.2-0.1-0.2c-0.1,0-0.2,0-0.2,0c-0.1,0-0.2,0-0.2,0.2c0,0.2-0.1,0.4-0.1,0.6
				c-0.1,0.3-0.1,0.6-0.2,1c0,0.1,0,0.2,0,0.3c0,0.1,0,0.1,0.1,0.1c0.1,0,0.2,0,0.3,0c0.1,0,0.1,0,0.2-0.1c0-0.1,0-0.2,0.1-0.3
				C459.3,38.5,459.3,38.4,459.3,38.2C459.3,38.2,459.3,38.2,459.3,38.2z M455.9,39.1C455.9,39.1,455.9,39.1,455.9,39.1
				C455.9,39.1,455.9,39.1,455.9,39.1c0.2,0,0.4,0,0.6,0c0.1,0,0.1,0,0.2-0.1c0-0.1,0.1-0.2,0.1-0.3c0-0.1,0-0.1-0.1-0.1
				c0,0,0,0-0.1,0c-0.1,0-0.2,0-0.4,0c0,0,0,0,0,0c0,0,0,0,0,0c0.1-0.1,0.1-0.2,0.2-0.2c0.2-0.2,0.3-0.4,0.5-0.7
				c0,0,0.1-0.1,0.1-0.2c0-0.1,0-0.2,0.1-0.3c0-0.1,0-0.1-0.1-0.1c-0.3,0-0.6,0-0.9,0c-0.1,0-0.2,0-0.3,0c-0.1,0-0.1,0-0.2,0.1
				c0,0.1,0,0.2-0.1,0.3c0,0.1,0,0.1,0.1,0.1c0,0,0,0,0.1,0c0.1,0,0.2,0,0.3,0c0,0,0.1,0,0.1,0c0,0,0,0.1,0,0.1
				c-0.2,0.3-0.4,0.6-0.7,0.9c0,0.1-0.1,0.1-0.1,0.2c0,0.1,0,0.1,0,0.2c0,0.1,0,0.2,0.2,0.2C455.5,39.1,455.7,39.1,455.9,39.1z
				 M450.6,36.9C450.6,36.9,450.6,36.9,450.6,36.9c-0.1,0-0.1,0-0.2,0c-0.1,0-0.2,0-0.2,0.1c0,0.1-0.1,0.2-0.1,0.2
				c-0.1,0.3-0.3,0.7-0.4,1c-0.1,0.2-0.2,0.4-0.2,0.6c0,0.1,0,0.1,0.1,0.1c0.1,0,0.2,0,0.3,0c0.1,0,0.2,0,0.2-0.1c0,0,0,0,0-0.1
				c0,0,0.1-0.1,0.1-0.1c0.1,0,0.1,0,0.2,0c0,0,0.1,0,0.1,0c0,0,0,0.1,0,0.1c0,0,0,0,0,0.1c0,0.1,0.1,0.1,0.1,0.1c0.1,0,0.2,0,0.3,0
				c0.1,0,0.1,0,0.1-0.1c0-0.3,0-0.5,0-0.8c0-0.2,0-0.5,0-0.7c0-0.1,0-0.3,0-0.4c0-0.1-0.1-0.1-0.1-0.1
				C450.7,36.9,450.7,36.9,450.6,36.9z M458,36.9C458,36.9,458,36.9,458,36.9c-0.1,0-0.1,0-0.2,0c-0.1,0-0.2,0-0.2,0.1
				c-0.1,0.2-0.2,0.5-0.3,0.7c-0.1,0.3-0.3,0.7-0.4,1c0,0,0,0.1,0,0.1c0,0.1,0,0.1,0.1,0.1c0.1,0,0.2,0,0.3,0c0.1,0,0.2,0,0.2-0.1
				c0,0,0-0.1,0-0.1c0,0,0,0,0.1,0c0.1,0,0.2,0,0.3,0c0,0,0,0,0.1,0c0,0,0,0,0,0.1c0,0.1,0.1,0.2,0.2,0.2c0.1,0,0.2,0,0.3,0
				c0.1,0,0.2,0,0.2-0.2c0-0.2,0-0.4,0-0.5c0-0.3,0-0.6,0-0.9c0-0.1,0-0.2,0-0.4c0-0.1-0.1-0.2-0.2-0.2
				C458.1,36.9,458,36.9,458,36.9z M454.9,37.5c0-0.1,0-0.2,0-0.4c0-0.1-0.1-0.2-0.2-0.2c-0.1,0-0.3,0-0.4,0c-0.1,0-0.2,0-0.2,0.2
				c-0.1,0.3-0.2,0.6-0.4,0.9c-0.1,0.3-0.2,0.6-0.4,0.9c0,0,0,0.1,0,0.1c0,0.1,0,0.1,0.1,0.1c0.1,0,0.2,0,0.2,0c0.2,0,0.3,0,0.3-0.2
				c0,0,0,0,0,0c0,0,0.1-0.1,0.1-0.1c0.1,0,0.1,0,0.2,0c0.1,0,0.1,0,0.1,0.1c0,0.1,0.1,0.2,0.2,0.2c0.1,0,0.2,0,0.3,0
				c0.1,0,0.1,0,0.1-0.1c0,0,0-0.1,0-0.1c0-0.3,0-0.5,0-0.8C455,37.9,454.9,37.7,454.9,37.5z M448.8,39.1
				C448.8,39.1,448.8,39.1,448.8,39.1c0.1,0,0.1,0,0.2,0c0.1,0,0.1,0,0.2-0.1c0,0,0,0,0-0.1c0-0.2,0.1-0.4,0.1-0.7c0,0,0-0.1,0-0.1
				c0.1-0.2,0.3-0.5,0.4-0.7c0.1-0.1,0.1-0.2,0.2-0.3c0.1-0.1,0-0.1-0.1-0.1c-0.1,0-0.2,0-0.2,0c-0.1,0-0.2,0.1-0.3,0.2
				c-0.1,0.1-0.1,0.2-0.2,0.3c0,0,0,0.1,0,0c0,0,0,0,0-0.1c0,0,0,0,0,0c0-0.1,0-0.2-0.1-0.2c0-0.1-0.1-0.1-0.2-0.2
				c-0.1,0-0.2,0-0.3,0c-0.1,0-0.1,0.1-0.1,0.1c0,0.1,0.1,0.2,0.1,0.3c0,0.2,0.1,0.4,0.2,0.6c0,0.1,0,0.2,0,0.2c0,0.1,0,0.2-0.1,0.3
				c0,0.1,0,0.2-0.1,0.3c0,0.1,0,0.2,0.1,0.2C448.7,39.1,448.7,39.1,448.8,39.1z M460.5,39.1c0.1,0,0.1,0,0.2,0c0.1,0,0.1,0,0.2-0.1
				c0-0.1,0-0.2,0.1-0.3c0.1-0.3,0.1-0.7,0.2-1c0-0.2,0.1-0.4,0.1-0.6c0-0.1,0-0.1-0.1-0.1c-0.1,0-0.2,0-0.3,0c-0.1,0-0.1,0-0.2,0.1
				c0,0,0,0.1,0,0.1c0,0.2-0.1,0.5-0.1,0.7c-0.1,0.3-0.1,0.7-0.2,1c0,0,0,0.1,0,0.1c0,0.1,0,0.1,0.1,0.1
				C460.4,39.1,460.5,39.1,460.5,39.1z M451,36.7C450.9,36.7,450.9,36.7,451,36.7c-0.1-0.1-0.3-0.1-0.4-0.1
				c-0.1-0.1-0.2-0.1-0.3-0.2c-0.1-0.1-0.3-0.2-0.4-0.4c0-0.1-0.1-0.1-0.1,0c-0.1,0.1-0.1,0.2-0.2,0.3c-0.1,0.1-0.1,0.2-0.2,0.3
				c0,0.1,0,0.1,0,0.1c0.2,0,0.4,0,0.6,0C450.4,36.7,450.6,36.7,451,36.7C450.9,36.7,450.9,36.7,451,36.7z M455.6,37.8
				C455.6,37.8,455.6,37.8,455.6,37.8C455.6,37.7,455.6,37.7,455.6,37.8c0.1-0.1,0-0.1,0-0.1C455.5,37.7,455.5,37.7,455.6,37.8z"/>
			<path class="st8" d="M443.7,30.6c0.2,0,0.4,0,0.6,0c0.1,0,0.3,0,0.4,0.1c0.2,0.1,0.3,0.1,0.5,0.2c0.2,0.1,0.4,0.2,0.6,0.4
				c0.2,0.1,0.3,0.3,0.4,0.5c0,0,0.1,0.1,0.1,0.2c0.1,0.2,0.1,0.3,0.2,0.5c0,0.1,0,0.2,0.1,0.3c0,0.1,0,0.3,0,0.4
				c0,0.3,0,0.6-0.1,0.9c0,0.2-0.1,0.3-0.2,0.5c-0.1,0.2-0.2,0.4-0.3,0.6c-0.1,0.2-0.3,0.4-0.5,0.6c-0.2,0.2-0.5,0.4-0.7,0.6
				c-0.1,0.1-0.3,0.2-0.4,0.2c-0.4,0.1-0.7,0.2-1.1,0c-0.3-0.1-0.4-0.3-0.4-0.6c0-0.2,0.1-0.5,0.2-0.7c0.1-0.2,0.2-0.4,0.3-0.7
				c0.1-0.3,0.3-0.6,0.4-1c0.1-0.3,0.3-0.6,0.4-0.9c0-0.1,0.1-0.3,0.1-0.4c0-0.1,0-0.2-0.1-0.3c0,0-0.1-0.1-0.1-0.1
				c-0.2-0.1-0.4-0.3-0.6-0.3c-0.1,0-0.3-0.1-0.4-0.1c-0.2,0-0.3,0-0.5,0c-0.1,0-0.2,0-0.3,0c-0.2,0-0.4,0.1-0.4,0.3
				c-0.1,0.3-0.2,0.6-0.4,0.8c0,0,0,0,0,0c0,0,0,0-0.1,0c0,0-0.1-0.1-0.1-0.2c-0.1-0.1-0.1-0.2-0.1-0.4c0-0.1,0-0.1,0-0.2
				c0-0.2,0.1-0.3,0.1-0.4c0.1-0.2,0.4-0.4,0.6-0.6c0.2-0.1,0.5-0.2,0.7-0.3c0.2-0.1,0.5-0.1,0.7-0.1
				C443.4,30.6,443.5,30.6,443.7,30.6z M446.3,33.3c0-0.1,0-0.1,0-0.2c0-0.2,0-0.4-0.1-0.5c-0.1-0.3-0.2-0.5-0.3-0.7
				c-0.2-0.3-0.4-0.5-0.7-0.7c-0.3-0.2-0.7-0.3-1.1-0.3c-0.2,0-0.4,0-0.6,0c-0.2,0-0.3,0.1-0.5,0.1c0,0-0.1,0-0.1,0c0,0,0,0,0,0
				c0,0,0,0,0,0c0.2,0,0.3,0.1,0.5,0.1c0.3,0.1,0.6,0.1,0.9,0.3c0.1,0.1,0.2,0.1,0.3,0.2c0.2,0.1,0.3,0.2,0.4,0.4c0,0,0,0.1,0,0.1
				c0,0.1,0,0.2,0,0.3c0,0.1,0,0.1-0.1,0.2c-0.1,0.4-0.3,0.7-0.4,1.1c-0.1,0.3-0.3,0.7-0.4,1c-0.1,0.2-0.2,0.4-0.2,0.6
				c-0.1,0.2-0.2,0.4-0.2,0.6c0,0.2,0.1,0.3,0.2,0.4c0,0,0.1,0,0.1,0c0.3-0.1,0.5-0.3,0.7-0.4c0.3-0.2,0.5-0.5,0.7-0.7
				c0.1-0.2,0.2-0.3,0.3-0.5c0.1-0.1,0.1-0.3,0.2-0.4C446.2,33.9,446.3,33.6,446.3,33.3z"/>
			<path class="st8" d="M453.3,33.8c0,0.2-0.1,0.4-0.2,0.6c-0.1,0.2-0.2,0.3-0.4,0.3c-0.2,0-0.4,0-0.5-0.1c-0.1-0.1-0.2-0.2-0.2-0.4
				c0-0.3,0.1-0.6,0.3-0.8c0.1-0.1,0.3-0.2,0.5-0.2c0.1,0,0.2,0,0.3,0.1c0.1,0.1,0.2,0.2,0.2,0.4C453.3,33.7,453.3,33.7,453.3,33.8z
				"/>
			<path class="st8" d="M450.4,37.8C450.5,37.8,450.5,37.8,450.4,37.8c0,0.2,0,0.3,0,0.4c0,0.1,0,0.1-0.1,0.1c0,0,0,0,0,0
				c-0.2,0-0.1,0-0.1-0.1C450.3,38.1,450.3,38,450.4,37.8C450.4,37.9,450.4,37.8,450.4,37.8z"/>
			<path class="st8" d="M457.8,37.8c0,0,0,0.1,0,0.1c0,0.1,0,0.2,0,0.3c0,0.1,0,0.1-0.1,0.1c0,0-0.1,0-0.1,0c0,0-0.1,0,0-0.1
				c0,0,0-0.1,0-0.1C457.7,38.1,457.7,38,457.8,37.8C457.8,37.8,457.8,37.8,457.8,37.8z"/>
			<path class="st8" d="M454.4,37.8c0,0.2,0,0.3,0,0.5c0,0.1,0,0.1-0.1,0.1c0,0-0.1,0-0.1,0c0,0,0,0,0-0.1c0-0.1,0.1-0.2,0.1-0.3
				C454.3,37.9,454.4,37.9,454.4,37.8z"/>
		</g>
		<g>
			<path class="st9" d="M443,39.4c-0.2,0-0.5,0-0.7,0c-0.4,0-0.7-0.1-1-0.2c0,0-0.1,0-0.1,0c-0.3-0.1-0.6-0.3-0.9-0.5
				c-0.1-0.1-0.2-0.2-0.4-0.3c-0.1-0.1-0.1-0.1-0.2-0.2c-0.1-0.1-0.1-0.2-0.2-0.3c-0.1-0.1-0.1-0.3-0.1-0.4c0-0.2,0.1-0.4,0.2-0.6
				c0.2-0.4,0.3-0.8,0.5-1.2c0.1-0.2,0.1-0.3,0.2-0.5c0,0,0-0.1,0-0.1c-0.1-0.1-0.1-0.1-0.2-0.2c-0.1-0.2-0.3-0.3-0.4-0.5
				c0-0.1-0.1-0.1-0.1-0.2c-0.1-0.2-0.2-0.4-0.3-0.7c-0.1-0.2-0.1-0.3-0.1-0.5c0-0.2-0.1-0.3-0.1-0.5c0-0.1,0-0.2,0-0.3
				c0-0.1,0-0.3,0-0.4c0-0.3,0.1-0.6,0.2-0.9c0.1-0.2,0.1-0.3,0.2-0.5c0.2-0.3,0.4-0.6,0.6-0.8c0.2-0.2,0.3-0.3,0.5-0.5
				c0.1-0.1,0.3-0.2,0.5-0.3c0.2-0.1,0.4-0.2,0.6-0.3c0.1-0.1,0.3-0.1,0.4-0.1c0.2,0,0.4-0.1,0.6-0.1c0.2,0,0.4-0.1,0.7-0.1
				c0.2,0,0.4,0,0.6,0c0.1,0,0.3,0,0.4,0c0.3,0,0.5,0,0.8,0.1c0.2,0,0.4,0.1,0.6,0.1c0.2,0.1,0.3,0.1,0.5,0.2
				c0.2,0.1,0.3,0.2,0.5,0.3c0.3,0.1,0.5,0.3,0.8,0.5c0.2,0.2,0.4,0.4,0.6,0.6c0.2,0.3,0.4,0.6,0.6,0.9c0.1,0.3,0.2,0.6,0.3,0.9
				c0.1,0.3,0.1,0.5,0.1,0.8c0,0.2,0,0.5,0,0.7c0,0.2,0,0.4,0,0.6c0,0.2-0.1,0.5-0.1,0.7c-0.1,0.4-0.2,0.7-0.4,1.1
				c-0.1,0.2-0.2,0.5-0.4,0.7c-0.2,0.3-0.4,0.6-0.6,0.8c-0.1,0.1-0.3,0.3-0.4,0.4c-0.3,0.3-0.6,0.5-0.9,0.7
				c-0.2,0.1-0.4,0.2-0.6,0.3c-0.4,0.2-0.7,0.3-1.1,0.4c-0.4,0.1-0.8,0.1-1.1,0.2C443.3,39.4,443.2,39.4,443,39.4z M443.7,30.6
				c-0.1,0-0.3,0-0.4,0c-0.2,0-0.5,0-0.7,0.1c-0.3,0.1-0.5,0.1-0.7,0.3c-0.2,0.1-0.5,0.3-0.6,0.6c-0.1,0.1-0.1,0.3-0.1,0.4
				c0,0.1,0,0.1,0,0.2c0,0.1,0.1,0.3,0.1,0.4c0,0.1,0.1,0.1,0.1,0.2c0,0,0.1,0,0.1,0c0,0,0,0,0,0c0.1-0.3,0.2-0.6,0.4-0.8
				c0.1-0.2,0.2-0.3,0.4-0.3c0.1,0,0.2,0,0.3,0c0.2,0,0.3,0,0.5,0c0.1,0,0.3,0.1,0.4,0.1c0.2,0.1,0.4,0.2,0.6,0.3
				c0,0,0.1,0.1,0.1,0.1c0.1,0.1,0.1,0.2,0.1,0.3c0,0.1-0.1,0.3-0.1,0.4c-0.1,0.3-0.2,0.6-0.4,0.9c-0.1,0.3-0.3,0.6-0.4,1
				c-0.1,0.2-0.2,0.4-0.3,0.7c-0.1,0.2-0.2,0.4-0.2,0.7c0,0.3,0.1,0.5,0.4,0.6c0.4,0.1,0.7,0.1,1.1,0c0.2-0.1,0.3-0.1,0.4-0.2
				c0.3-0.2,0.5-0.4,0.7-0.6c0.2-0.2,0.3-0.4,0.5-0.6c0.1-0.2,0.2-0.4,0.3-0.6c0.1-0.2,0.1-0.3,0.2-0.5c0.1-0.3,0.1-0.6,0.1-0.9
				c0-0.1,0-0.3,0-0.4c0-0.1,0-0.2-0.1-0.3c-0.1-0.2-0.1-0.4-0.2-0.5c0-0.1,0-0.1-0.1-0.2c-0.1-0.2-0.2-0.3-0.4-0.5
				c-0.2-0.2-0.4-0.3-0.6-0.4c-0.1-0.1-0.3-0.1-0.5-0.2c-0.1,0-0.2-0.1-0.4-0.1C444.1,30.6,443.9,30.6,443.7,30.6z"/>
			<path class="st9" d="M454.1,36.5c-0.2,0-0.5,0-0.7,0c-0.1,0-0.2,0-0.3-0.1c-0.1-0.1-0.1-0.1-0.1-0.2c0-0.1,0-0.1,0-0.2
				c0,0,0,0,0-0.1c0,0,0,0,0,0c-0.1,0.1-0.2,0.1-0.3,0.2c-0.3,0.2-0.5,0.3-0.8,0.4c-0.2,0-0.4,0-0.7,0c-0.2,0-0.3-0.1-0.5-0.1
				c-0.3-0.1-0.5-0.3-0.7-0.5c-0.2-0.2-0.3-0.5-0.4-0.8c-0.1-0.3-0.1-0.5-0.1-0.8c0-0.2,0-0.4,0.1-0.6c0-0.1,0-0.1,0-0.2
				c0.1-0.3,0.2-0.6,0.4-0.8c0.2-0.2,0.3-0.5,0.5-0.7c0.2-0.2,0.4-0.3,0.6-0.4c0.3-0.1,0.5-0.2,0.8-0.3c0.3,0,0.5,0,0.8,0
				c0.3,0,0.5,0.1,0.7,0.3c0,0,0.1,0.1,0.1,0.1c0,0,0,0,0,0c0,0,0,0,0,0c0,0,0,0,0,0c0,0,0,0,0-0.1c0-0.2,0.2-0.4,0.5-0.4
				c0.2,0,0.4,0,0.6,0c0.3,0,0.5,0,0.8,0c0.1,0,0.1,0,0.2,0c0.1,0.1,0.2,0.2,0.2,0.3c0,0.2-0.1,0.5-0.1,0.7
				c-0.1,0.3-0.1,0.6-0.1,0.9c-0.1,0.5-0.2,1-0.3,1.5c0,0.2-0.1,0.5-0.1,0.7c0,0.2-0.1,0.4-0.1,0.6c0,0.2-0.2,0.4-0.4,0.4
				C454.7,36.5,454.4,36.5,454.1,36.5C454.1,36.5,454.1,36.5,454.1,36.5z M453.3,33.8c0,0,0-0.1,0-0.1c0-0.1-0.1-0.3-0.2-0.4
				c-0.1-0.1-0.2-0.1-0.3-0.1c-0.2,0-0.3,0.1-0.5,0.2c-0.2,0.2-0.3,0.5-0.3,0.8c0,0.2,0.1,0.3,0.2,0.4c0.2,0.1,0.3,0.1,0.5,0.1
				c0.2,0,0.3-0.2,0.4-0.3C453.2,34.2,453.3,34,453.3,33.8z"/>
			<path class="st9" d="M465.1,33c0.1-0.1,0.2-0.2,0.2-0.3c0.2-0.3,0.3-0.5,0.5-0.8c0.1-0.1,0.1-0.2,0.2-0.3
				c0.1-0.1,0.3-0.2,0.4-0.2c0.2,0,0.3,0,0.5,0c0.4,0,0.7,0,1.1,0c0,0,0.1,0,0.1,0c0.1,0,0.2,0.1,0.1,0.2c0,0,0,0.1-0.1,0.1
				c-0.2,0.3-0.3,0.5-0.5,0.8c-0.1,0.1-0.2,0.3-0.2,0.4c-0.2,0.3-0.4,0.6-0.5,0.9c-0.2,0.3-0.4,0.7-0.6,1c-0.2,0.2-0.3,0.5-0.5,0.7
				c-0.1,0.1-0.2,0.3-0.3,0.4c-0.1,0.2-0.3,0.5-0.4,0.7c-0.1,0.2-0.2,0.3-0.3,0.5c-0.2,0.3-0.4,0.7-0.6,1c-0.1,0.2-0.2,0.3-0.3,0.5
				c-0.1,0.2-0.3,0.3-0.6,0.3c-0.3,0-0.6,0-1,0c-0.2,0-0.4,0-0.6,0c-0.1,0-0.2-0.1-0.2-0.3c0-0.1,0.1-0.2,0.1-0.2
				c0.1-0.2,0.2-0.4,0.4-0.6c0.2-0.3,0.3-0.5,0.5-0.8c0.1-0.2,0.2-0.3,0.3-0.5c0.1-0.2,0.2-0.4,0.4-0.6c0.1-0.2,0.2-0.4,0.2-0.6
				c0-0.1,0-0.1,0-0.2c0-0.1-0.1-0.3-0.1-0.4c0-0.1-0.1-0.2-0.1-0.4c-0.1-0.2-0.1-0.4-0.2-0.6c0-0.1-0.1-0.2-0.1-0.3
				c0-0.1,0-0.1,0-0.2c-0.1-0.3-0.2-0.6-0.2-0.9c0-0.2-0.1-0.3-0.1-0.5c0-0.1-0.1-0.3-0.1-0.4c0-0.1,0.1-0.3,0.2-0.3
				c0.1,0,0.3,0,0.4,0c0.4,0,0.7,0,1.1,0c0.1,0,0.2,0,0.3,0c0.2,0,0.3,0.1,0.4,0.3c0,0.2,0.1,0.3,0.1,0.5
				C465,32.5,465.1,32.7,465.1,33C465.1,33,465.1,33,465.1,33z"/>
			<path class="st9" d="M460.1,36.5c-0.3,0-0.5,0-0.8,0c-0.1,0-0.1,0-0.1,0c-0.2-0.1-0.2-0.2-0.2-0.3c0-0.2,0.1-0.4,0.1-0.6
				c0.1-0.4,0.1-0.7,0.2-1.1c0.1-0.4,0.1-0.8,0.2-1.3c0.1-0.5,0.2-1.1,0.3-1.6c0.1-0.3,0.1-0.6,0.2-0.9c0.1-0.3,0.1-0.7,0.2-1
				c0-0.2,0.2-0.4,0.5-0.4c0.4,0,0.7,0,1.1,0c0.1,0,0.3,0,0.4,0c0,0,0.1,0,0.1,0c0.1,0,0.2,0.1,0.2,0.2c0,0.1,0,0.1,0,0.2
				c-0.1,0.5-0.2,1-0.3,1.5c-0.1,0.7-0.2,1.3-0.3,2c-0.1,0.5-0.2,1.1-0.3,1.6c-0.1,0.4-0.2,0.8-0.2,1.3c0,0,0,0.1,0,0.1
				c0,0.2-0.2,0.4-0.4,0.4C460.7,36.5,460.4,36.5,460.1,36.5C460.2,36.5,460.1,36.5,460.1,36.5z"/>
			<path class="st9" d="M457.1,36.4c-0.3,0-0.5,0-0.8,0c-0.1,0-0.2-0.1-0.3-0.2c0-0.1,0-0.1,0-0.2c0-0.1,0-0.3,0.1-0.4
				c0-0.1,0-0.3,0.1-0.4c0-0.2,0.1-0.3,0.1-0.5c0.1-0.3,0.1-0.6,0.2-1c0.1-0.3,0.1-0.6,0.2-0.9c0.1-0.3,0.1-0.5,0.1-0.8
				c0-0.1,0-0.2,0.1-0.3c0-0.2,0.1-0.3,0.3-0.4c0.1,0,0.1,0,0.2,0c0.4,0,0.7,0,1.1,0c0.2,0,0.3,0,0.5,0c0.1,0,0.2,0.1,0.3,0.2
				c0,0.1,0,0.1,0,0.2c0,0.1,0,0.2,0,0.3c-0.1,0.4-0.1,0.8-0.2,1.3c-0.1,0.5-0.2,1.1-0.3,1.6c-0.1,0.4-0.1,0.7-0.2,1.1
				c0,0.1-0.1,0.3-0.2,0.3c-0.1,0-0.1,0.1-0.2,0.1C457.7,36.5,457.4,36.5,457.1,36.4C457.1,36.5,457.1,36.5,457.1,36.4z"/>
			<path class="st9" d="M458,31.2c-0.2,0-0.4,0-0.5-0.1c-0.2-0.1-0.4-0.3-0.4-0.6c0-0.1,0-0.2,0-0.3c0-0.2,0.1-0.4,0.3-0.6
				c0.1-0.1,0.3-0.3,0.5-0.3c0.2-0.1,0.4-0.2,0.7-0.2c0.4,0,0.7,0.1,0.9,0.4c0.1,0.1,0.1,0.3,0.1,0.4c0,0.3-0.1,0.6-0.4,0.8
				c-0.2,0.2-0.5,0.3-0.8,0.4C458.2,31.2,458.1,31.2,458,31.2z"/>
			<path class="st9" d="M452.4,37.8c0.1-0.1,0.1-0.2,0.1-0.2c0.1-0.1,0.1-0.3,0.1-0.4c0-0.1,0.1-0.2,0.2-0.2c0.2,0,0.3,0,0.5,0
				c0.1,0,0.1,0,0.1,0.1c0,0.1,0,0.2,0,0.3c-0.1,0.5-0.2,1-0.3,1.6c0,0.1-0.1,0.2-0.2,0.2c-0.1,0-0.2,0-0.3,0c-0.1,0-0.1,0-0.1-0.1
				c0-0.1,0-0.2,0-0.2c0-0.1,0-0.2,0.1-0.3c0,0,0,0,0-0.1c0,0,0,0.1,0,0.1c0,0.1-0.1,0.3-0.1,0.4c0,0.1,0,0.1-0.1,0.2
				c0,0.1-0.1,0.1-0.1,0.1c-0.1,0-0.1,0-0.2,0c-0.1,0-0.1,0-0.1-0.1c0-0.1,0-0.2,0-0.3c0-0.1,0-0.2,0-0.3c0,0,0,0,0,0
				c0,0.1,0,0.2-0.1,0.3c0,0.1,0,0.2-0.1,0.3c0,0.1-0.1,0.2-0.2,0.2c-0.1,0-0.2,0-0.2,0c-0.1,0-0.1-0.1-0.1-0.2
				c0-0.2,0.1-0.5,0.1-0.7c0.1-0.3,0.1-0.6,0.2-0.9c0-0.1,0-0.1,0-0.2c0-0.1,0.1-0.1,0.2-0.1c0.2,0,0.3,0,0.5,0
				c0.1,0,0.2,0.1,0.2,0.2C452.4,37.3,452.4,37.5,452.4,37.8C452.4,37.7,452.4,37.7,452.4,37.8z"/>
			<path class="st9" d="M459.3,38.2C459.3,38.2,459.3,38.2,459.3,38.2c-0.1,0.2-0.1,0.3-0.1,0.5c0,0.1,0,0.2-0.1,0.3
				c0,0.1-0.1,0.1-0.2,0.1c-0.1,0-0.2,0-0.3,0c-0.1,0-0.1-0.1-0.1-0.1c0-0.1,0-0.2,0-0.3c0.1-0.3,0.1-0.6,0.2-1
				c0-0.2,0.1-0.4,0.1-0.6c0-0.1,0.1-0.2,0.2-0.2c0.1,0,0.2,0,0.2,0c0.1,0,0.2,0.1,0.1,0.2c0,0.2-0.1,0.4-0.1,0.5c0,0,0,0.1,0,0.1
				c0-0.1,0.1-0.1,0.1-0.2c0.1-0.2,0.2-0.3,0.3-0.5c0.1-0.1,0.1-0.2,0.3-0.2c0.1,0,0.2,0,0.3,0c0.1,0,0.1,0.1,0.1,0.1
				c0,0.1-0.1,0.1-0.1,0.2c-0.1,0.2-0.2,0.4-0.4,0.6c0,0.1,0,0.1,0,0.2c0,0.2,0.1,0.3,0.1,0.5c0,0.1,0.1,0.2,0.1,0.4c0,0,0,0,0,0.1
				c0,0.1,0,0.1-0.1,0.1c-0.1,0-0.1,0-0.2,0c-0.1,0-0.1,0-0.2,0c-0.1,0-0.2-0.1-0.2-0.1C459.5,38.7,459.4,38.4,459.3,38.2
				C459.4,38.2,459.4,38.2,459.3,38.2z"/>
			<path class="st9" d="M455.9,39.1c-0.2,0-0.4,0-0.5,0c-0.2,0-0.2-0.1-0.2-0.2c0-0.1,0-0.1,0-0.2c0-0.1,0-0.1,0.1-0.2
				c0.2-0.3,0.4-0.6,0.7-0.9c0,0,0.1-0.1,0-0.1c0,0-0.1,0-0.1,0c-0.1,0-0.2,0-0.3,0c0,0,0,0-0.1,0c-0.1,0-0.1,0-0.1-0.1
				c0-0.1,0-0.2,0.1-0.3c0-0.1,0.1-0.1,0.2-0.1c0.1,0,0.2,0,0.3,0c0.3,0,0.6,0,0.9,0c0.1,0,0.1,0,0.1,0.1c0,0.1,0,0.2-0.1,0.3
				c0,0.1-0.1,0.1-0.1,0.2c-0.2,0.2-0.3,0.4-0.5,0.7c-0.1,0.1-0.1,0.2-0.2,0.2c0,0,0,0,0,0c0,0,0,0,0,0c0.1,0,0.2,0,0.4,0
				c0,0,0,0,0.1,0c0.1,0,0.1,0,0.1,0.1c0,0.1,0,0.2-0.1,0.3c0,0.1-0.1,0.1-0.2,0.1C456.3,39.1,456.1,39.1,455.9,39.1
				C455.9,39.1,455.9,39.1,455.9,39.1C455.9,39.1,455.9,39.1,455.9,39.1z"/>
			<path class="st9" d="M450.6,36.9c0.1,0,0.2,0,0.2,0c0.1,0,0.1,0,0.1,0.1c0,0.1,0,0.3,0,0.4c0,0.2,0,0.5,0,0.7c0,0.3,0,0.5,0,0.8
				c0,0.1,0,0.1-0.1,0.1c-0.1,0-0.2,0-0.3,0c-0.1,0-0.1,0-0.1-0.1c0,0,0,0,0-0.1c0,0,0-0.1,0-0.1c0,0-0.1,0-0.1,0
				c-0.1,0-0.1,0-0.2,0c0,0-0.1,0-0.1,0.1c0,0,0,0,0,0.1c0,0.1-0.1,0.1-0.2,0.1c-0.1,0-0.2,0-0.3,0c-0.1,0-0.1,0-0.1-0.1
				c0.1-0.2,0.2-0.4,0.2-0.6c0.1-0.3,0.3-0.7,0.4-1c0-0.1,0.1-0.2,0.1-0.2c0-0.1,0.1-0.1,0.2-0.1C450.5,36.9,450.5,36.9,450.6,36.9
				C450.6,36.9,450.6,36.9,450.6,36.9z M450.4,37.8C450.4,37.8,450.4,37.9,450.4,37.8c-0.1,0.2-0.1,0.3-0.2,0.4
				c-0.1,0.1-0.1,0.1,0.1,0.1c0,0,0,0,0,0c0.1,0,0.1,0,0.1-0.1C450.5,38.1,450.5,38,450.4,37.8C450.5,37.8,450.5,37.8,450.4,37.8z"
				/>
			<path class="st9" d="M458,36.9c0.1,0,0.1,0,0.2,0c0.1,0,0.2,0,0.2,0.2c0,0.1,0,0.2,0,0.4c0,0.3,0,0.6,0,0.9c0,0.2,0,0.4,0,0.5
				c0,0.1,0,0.2-0.2,0.2c-0.1,0-0.2,0-0.3,0c-0.1,0-0.2,0-0.2-0.2c0,0,0,0,0-0.1c0,0,0,0-0.1,0c-0.1,0-0.2,0-0.3,0c0,0,0,0-0.1,0
				c0,0,0,0.1,0,0.1c0,0.1-0.1,0.1-0.2,0.1c-0.1,0-0.2,0-0.3,0c-0.1,0-0.1,0-0.1-0.1c0,0,0-0.1,0-0.1c0.1-0.3,0.3-0.7,0.4-1
				c0.1-0.2,0.2-0.5,0.3-0.7c0-0.1,0.1-0.1,0.2-0.1C457.8,36.9,457.9,36.9,458,36.9C458,36.9,458,36.9,458,36.9z M457.8,37.8
				C457.8,37.8,457.8,37.8,457.8,37.8c-0.1,0.2-0.1,0.3-0.2,0.4c0,0,0,0.1,0,0.1c0,0,0,0.1,0,0.1c0,0,0.1,0,0.1,0
				c0.1,0,0.1,0,0.1-0.1c0-0.1,0-0.2,0-0.3C457.8,37.9,457.9,37.8,457.8,37.8z"/>
			<path class="st9" d="M454.9,37.5c0,0.2,0,0.4,0,0.6c0,0.3,0,0.5,0,0.8c0,0,0,0.1,0,0.1c0,0.1-0.1,0.1-0.1,0.1c-0.1,0-0.2,0-0.3,0
				c-0.1,0-0.1-0.1-0.2-0.2c0-0.1,0-0.1-0.1-0.1c-0.1,0-0.1,0-0.2,0c-0.1,0-0.1,0-0.1,0.1c0,0,0,0,0,0c0,0.2-0.2,0.2-0.3,0.2
				c-0.1,0-0.2,0-0.2,0c-0.1,0-0.1,0-0.1-0.1c0,0,0-0.1,0-0.1c0.1-0.3,0.2-0.6,0.4-0.9c0.1-0.3,0.2-0.6,0.4-0.9
				c0-0.1,0.1-0.2,0.2-0.2c0.1,0,0.3,0,0.4,0c0.1,0,0.2,0.1,0.2,0.2C454.9,37.2,454.9,37.3,454.9,37.5z M454.4,37.8
				c0,0-0.1,0.1-0.1,0.2c-0.1,0.1-0.1,0.2-0.1,0.3c0,0,0,0.1,0,0.1c0,0,0.1,0,0.1,0c0.1,0,0.1,0,0.1-0.1
				C454.4,38.1,454.4,38,454.4,37.8z"/>
			<path class="st9" d="M448.8,39.1c0,0-0.1,0-0.1,0c-0.1,0-0.2,0-0.1-0.2c0-0.1,0-0.2,0.1-0.3c0-0.1,0-0.2,0.1-0.3
				c0-0.1,0-0.2,0-0.2c-0.1-0.2-0.1-0.4-0.2-0.6c0-0.1-0.1-0.2-0.1-0.3c0-0.1,0-0.1,0.1-0.1c0.1,0,0.2,0,0.3,0
				c0.1,0,0.2,0.1,0.2,0.2c0,0.1,0,0.2,0.1,0.2c0,0,0,0,0,0c0,0,0,0.1,0,0.1c0,0,0,0,0,0c0.1-0.1,0.1-0.2,0.2-0.3
				c0.1-0.1,0.1-0.2,0.3-0.2c0.1,0,0.2,0,0.2,0c0.1,0,0.1,0,0.1,0.1c-0.1,0.1-0.1,0.2-0.2,0.3c-0.1,0.2-0.3,0.5-0.4,0.7
				c0,0,0,0.1,0,0.1c0,0.2-0.1,0.4-0.1,0.7c0,0,0,0,0,0.1c0,0.1-0.1,0.1-0.2,0.1C448.9,39.1,448.8,39.1,448.8,39.1
				C448.8,39.1,448.8,39.1,448.8,39.1z"/>
			<path class="st9" d="M460.5,39.1c0,0-0.1,0-0.1,0c-0.1,0-0.1,0-0.1-0.1c0,0,0-0.1,0-0.1c0.1-0.3,0.1-0.7,0.2-1
				c0-0.2,0.1-0.5,0.1-0.7c0,0,0-0.1,0-0.1c0-0.1,0.1-0.1,0.2-0.1c0.1,0,0.2,0,0.3,0c0.1,0,0.1,0,0.1,0.1c0,0.2-0.1,0.4-0.1,0.6
				c-0.1,0.3-0.1,0.7-0.2,1c0,0.1,0,0.2-0.1,0.3c0,0.1-0.1,0.1-0.2,0.1C460.6,39.1,460.6,39.1,460.5,39.1z"/>
		</g>
		<g>
			<path class="st0" d="M451.6,9.3C451.6,9.3,451.6,9.3,451.6,9.3c0.5,0.1,0.8,0.1,1.2,0.2c0.7,0.1,1.3,0.3,2,0.6
				c0.3,0.1,0.5,0.3,0.7,0.4c0.4,0.2,0.7,0.4,0.9,0.8c0,0.1,0.1,0.1,0.1,0.2c0,0.2,0,0.4-0.1,0.6c-0.1,0.1-0.1,0.3-0.1,0.4
				c-0.3,0.8-0.6,1.6-0.9,2.3c-0.3,0.7-0.6,1.4-0.9,2.2c-0.2,0.4-0.3,0.8-0.5,1.2c-0.2,0.4-0.4,0.8-0.4,1.3c0,0.3,0.1,0.6,0.4,0.8
				c0.1,0.1,0.2,0.1,0.3,0c0.6-0.2,1.1-0.5,1.6-0.9c0.6-0.4,1-1,1.5-1.6c0.2-0.4,0.4-0.7,0.7-1.1c0.2-0.3,0.3-0.6,0.4-0.9
				c0.2-0.6,0.2-1.2,0.2-1.8c0-0.1,0-0.3,0-0.4c0-0.4-0.1-0.7-0.2-1.1c-0.1-0.6-0.3-1.1-0.6-1.6c-0.4-0.6-0.8-1.1-1.4-1.5
				c-0.7-0.4-1.5-0.6-2.3-0.7c-0.4,0-0.8,0-1.2,0.1c-0.4,0-0.7,0.1-1,0.3C451.7,9.2,451.6,9.2,451.6,9.3
				C451.5,9.3,451.5,9.3,451.6,9.3z"/>
			<path class="st8" d="M453,8.2c0.4,0,0.8,0,1.2,0.1c0.3,0,0.5,0.1,0.8,0.2c0.3,0.1,0.7,0.2,1,0.3c0.5,0.2,0.9,0.5,1.3,0.9
				c0.3,0.3,0.6,0.7,0.9,1.1c0.1,0.1,0.1,0.2,0.2,0.3c0.2,0.4,0.3,0.7,0.4,1.1c0.1,0.2,0.1,0.4,0.1,0.6c0,0.3,0.1,0.5,0.1,0.8
				c0,0.6,0,1.2-0.1,1.8c-0.1,0.4-0.2,0.7-0.3,1c-0.2,0.4-0.4,0.8-0.6,1.2c-0.3,0.5-0.6,0.9-1,1.3c-0.5,0.5-1,0.9-1.6,1.2
				c-0.3,0.2-0.6,0.3-0.9,0.5c-0.8,0.3-1.6,0.4-2.4,0c-0.5-0.2-0.9-0.6-0.8-1.3c0-0.5,0.2-1,0.4-1.5c0.2-0.5,0.4-0.9,0.6-1.4
				c0.3-0.7,0.6-1.3,0.9-2c0.3-0.6,0.5-1.3,0.8-1.9c0.1-0.3,0.2-0.6,0.3-0.9c0.1-0.2,0-0.4-0.2-0.6c-0.1-0.1-0.1-0.1-0.2-0.2
				c-0.4-0.3-0.8-0.5-1.3-0.7c-0.3-0.1-0.6-0.2-0.9-0.2c-0.3-0.1-0.6-0.1-1-0.1c-0.2,0-0.5,0-0.7,0c-0.4,0-0.8,0.2-0.9,0.7
				c-0.2,0.6-0.5,1.2-0.7,1.8c0,0,0,0,0,0.1c-0.1,0.1-0.1,0.1-0.2,0c-0.1-0.1-0.1-0.2-0.2-0.3c-0.1-0.3-0.2-0.5-0.2-0.8
				c0-0.1,0-0.3-0.1-0.4c0-0.3,0.1-0.6,0.3-0.9c0.3-0.5,0.8-0.9,1.3-1.2c0.5-0.3,1-0.4,1.6-0.6c0.5-0.1,1-0.2,1.5-0.2
				C452.4,8.2,452.7,8.2,453,8.2z M458.5,13.9c0-0.1,0-0.3,0-0.4c0-0.4-0.1-0.7-0.2-1.1c-0.1-0.6-0.3-1.1-0.6-1.6
				c-0.4-0.6-0.8-1.1-1.4-1.5c-0.7-0.4-1.5-0.6-2.3-0.7c-0.4,0-0.8,0-1.2,0.1c-0.4,0-0.7,0.1-1,0.3c-0.1,0-0.1,0.1-0.2,0.1
				c-0.1,0,0,0.1,0,0.1c0,0,0.1,0,0.1,0c0.4,0,0.7,0.1,1.1,0.2c0.7,0.1,1.3,0.3,2,0.6c0.3,0.1,0.5,0.3,0.7,0.4
				c0.4,0.2,0.7,0.4,0.9,0.8c0,0.1,0.1,0.1,0.1,0.2c0,0.2,0,0.4-0.1,0.6c-0.1,0.1-0.1,0.3-0.1,0.4c-0.3,0.8-0.6,1.6-0.9,2.3
				c-0.3,0.7-0.6,1.4-0.9,2.2c-0.2,0.4-0.3,0.8-0.5,1.2c-0.2,0.4-0.4,0.8-0.4,1.3c0,0.3,0.1,0.6,0.4,0.8c0.1,0.1,0.2,0.1,0.3,0
				c0.6-0.2,1.1-0.5,1.6-0.9c0.6-0.4,1-1,1.5-1.6c0.2-0.4,0.4-0.7,0.7-1.1c0.2-0.3,0.3-0.6,0.4-0.9
				C458.4,15.2,458.5,14.6,458.5,13.9z"/>
			<path class="st9" d="M451.6,26.9c-0.5,0-1,0-1.6-0.1c-0.8-0.1-1.5-0.2-2.2-0.5c-0.1,0-0.2-0.1-0.3-0.1c-0.6-0.3-1.3-0.6-1.8-1
				c-0.3-0.2-0.5-0.4-0.7-0.6c-0.1-0.1-0.2-0.3-0.3-0.5c-0.2-0.2-0.3-0.5-0.4-0.7c-0.1-0.3-0.1-0.6-0.1-0.9c0-0.4,0.2-0.8,0.3-1.2
				c0.3-0.8,0.7-1.7,1-2.5c0.1-0.3,0.3-0.7,0.4-1c0-0.1,0-0.1,0-0.2c-0.1-0.1-0.3-0.2-0.4-0.4c-0.3-0.4-0.7-0.7-0.9-1.1
				c-0.1-0.1-0.2-0.2-0.3-0.4c-0.3-0.4-0.5-0.9-0.7-1.4c-0.1-0.4-0.3-0.7-0.3-1.1c-0.1-0.3-0.1-0.6-0.1-1c0-0.2,0-0.4-0.1-0.7
				c0-0.3,0-0.5,0-0.8c0.1-0.7,0.2-1.3,0.5-2c0.1-0.4,0.3-0.7,0.5-1c0.4-0.6,0.8-1.2,1.3-1.7c0.4-0.4,0.7-0.7,1.1-1
				c0.3-0.2,0.6-0.4,1-0.6c0.4-0.2,0.9-0.4,1.3-0.6c0.3-0.1,0.6-0.2,0.9-0.3c0.4-0.1,0.8-0.2,1.2-0.3c0.5-0.1,0.9-0.1,1.4-0.1
				c0.5,0,0.9,0,1.4,0c0.3,0,0.6,0,0.9,0.1c0.6,0,1.1,0.1,1.7,0.2c0.4,0.1,0.9,0.2,1.3,0.3c0.4,0.1,0.7,0.2,1.1,0.4
				c0.4,0.2,0.7,0.4,1.1,0.6c0.6,0.3,1.1,0.7,1.6,1.1c0.5,0.4,0.9,0.8,1.3,1.3c0.5,0.6,0.9,1.2,1.2,2c0.3,0.6,0.5,1.2,0.6,1.9
				c0.1,0.5,0.2,1.1,0.3,1.6c0.1,0.5,0.1,1,0.1,1.5c0,0.4,0,0.9-0.1,1.3c0,0.5-0.1,1-0.3,1.5c-0.2,0.8-0.5,1.6-0.9,2.3
				c-0.2,0.5-0.5,1-0.8,1.5c-0.4,0.6-0.8,1.2-1.3,1.7c-0.3,0.3-0.5,0.6-0.8,0.9c-0.6,0.6-1.2,1.1-2,1.5c-0.4,0.3-0.9,0.5-1.3,0.7
				c-0.8,0.3-1.5,0.6-2.3,0.8c-0.8,0.2-1.6,0.3-2.4,0.3C452.3,26.8,451.9,26.9,451.6,26.9z M453,8.2c-0.3,0-0.6,0-0.8,0
				c-0.5,0-1,0.1-1.5,0.2c-0.5,0.1-1.1,0.3-1.6,0.6c-0.5,0.3-1,0.6-1.3,1.2c-0.2,0.3-0.3,0.6-0.3,0.9c0,0.1,0,0.3,0.1,0.4
				c0,0.3,0.1,0.5,0.2,0.8c0.1,0.1,0.1,0.2,0.2,0.3c0.1,0.1,0.1,0.1,0.2,0c0,0,0,0,0-0.1c0.3-0.6,0.5-1.2,0.7-1.8
				c0.2-0.4,0.5-0.6,0.9-0.7c0.2,0,0.5,0,0.7,0c0.3,0,0.6,0,1,0.1c0.3,0,0.6,0.1,0.9,0.2c0.5,0.2,0.9,0.4,1.3,0.7
				c0.1,0.1,0.1,0.1,0.2,0.2c0.2,0.2,0.2,0.3,0.2,0.6c-0.1,0.3-0.2,0.6-0.3,0.9c-0.2,0.7-0.5,1.3-0.8,1.9c-0.3,0.7-0.6,1.3-0.9,2
				c-0.2,0.5-0.4,0.9-0.6,1.4c-0.2,0.5-0.4,0.9-0.4,1.5c0,0.7,0.3,1,0.8,1.3c0.8,0.3,1.6,0.2,2.4,0c0.3-0.1,0.6-0.3,0.9-0.5
				c0.6-0.3,1.1-0.8,1.6-1.2c0.4-0.4,0.7-0.9,1-1.3c0.3-0.4,0.5-0.8,0.6-1.2c0.1-0.3,0.3-0.7,0.3-1c0.1-0.6,0.2-1.2,0.1-1.8
				c0-0.3,0-0.5-0.1-0.8c0-0.2-0.1-0.4-0.1-0.6c-0.1-0.4-0.3-0.8-0.4-1.1c-0.1-0.1-0.1-0.2-0.2-0.3c-0.3-0.4-0.5-0.7-0.9-1.1
				c-0.4-0.4-0.8-0.7-1.3-0.9c-0.3-0.1-0.6-0.2-1-0.3c-0.3-0.1-0.5-0.1-0.8-0.2C453.8,8.2,453.4,8.2,453,8.2z"/>
			<path class="st8" d="M466.9,11.4C466.9,11.4,467,11.4,466.9,11.4C467,11.4,467,11.4,466.9,11.4c0-0.1,0-0.1,0-0.1
				c0-0.2-0.1-0.3-0.1-0.5c0,0,0-0.1,0-0.1l0,0c-0.1-0.2-0.1-0.5-0.2-0.7c-0.2-0.6-0.5-1.2-0.8-1.8c-0.2-0.4-0.4-0.7-0.7-1.1
				c-0.3-0.3-0.5-0.6-0.8-0.9c-0.2-0.2-0.5-0.5-0.8-0.7c-0.2-0.2-0.5-0.4-0.7-0.5c-0.3-0.2-0.7-0.4-1-0.6c-0.2-0.1-0.4-0.3-0.6-0.4
				c-0.5-0.2-1-0.4-1.6-0.6c-0.8-0.2-1.6-0.3-2.4-0.5c-0.8-0.1-1.6-0.2-2.5-0.2c-0.3,0-0.5,0-0.8,0c-0.3,0-0.6,0-1,0.1
				c-0.6,0-1.2,0.1-1.9,0.2c-0.3,0-0.7,0.1-1,0.2c-0.6,0.1-1.2,0.3-1.8,0.6c-0.5,0.2-1,0.5-1.5,0.8c-0.3,0.2-0.5,0.3-0.8,0.6
				c-0.7,0.5-1.3,1.1-1.7,1.8c-0.3,0.5-0.6,1-0.9,1.6c-0.2,0.5-0.4,1.1-0.5,1.6c-0.1,0.6-0.2,1.2-0.1,1.8c0,0.6,0.1,1.1,0.3,1.7
				c0.2,0.7,0.4,1.4,0.8,2c0.4,0.8,1,1.5,1.7,2c0.1,0.1,0.1,0.1,0.1,0.2c0,0.1,0,0.1-0.1,0.2c-0.1,0.2-0.2,0.4-0.3,0.6
				c-0.3,0.8-0.7,1.7-1,2.5c-0.1,0.4-0.3,0.7-0.3,1.1c0,0.4,0,0.8,0.1,1.1c0.1,0.4,0.4,0.8,0.6,1.1c0.4,0.5,0.9,0.9,1.5,1.2
				c0.5,0.3,1,0.5,1.5,0.7c0.6,0.2,1.1,0.4,1.7,0.5c1,0.2,2.1,0.2,3.1,0.2c0.3,0,0.6,0,0.9,0c0.5,0,1-0.1,1.5-0.1
				c0.6,0,1.3-0.1,1.9-0.2c0.2,0,0.4-0.1,0.6-0.1c0.1,0,1.1-0.2,2.5-0.8c0,0,0.1,0,0.1-0.1c0.6-0.3,1.3-0.6,1.9-1.1
				c0.2-0.2,0.4-0.3,0.6-0.5c0.1,0,0.1-0.1,0.2-0.1c0.1-0.1,0.2-0.1,0.2-0.2c1-0.9,2.1-2.1,2.9-3.6c0,0,0,0,0,0c0,0,0.1-0.1,0.1-0.1
				c0.1-0.1,0.1-0.2,0.2-0.3c0,0,0,0,0,0C466.9,17.7,467.5,14.7,466.9,11.4z M455,26.5c-0.8,0.2-1.6,0.3-2.4,0.3c-0.3,0-0.7,0-1,0
				c-0.5,0-1,0-1.6-0.1c-0.8-0.1-1.5-0.2-2.2-0.5c-0.1,0-0.2-0.1-0.3-0.1c-0.6-0.3-1.3-0.6-1.8-1c-0.3-0.2-0.5-0.4-0.7-0.6
				c-0.1-0.1-0.2-0.3-0.3-0.5c-0.2-0.2-0.3-0.5-0.4-0.7c-0.1-0.3-0.1-0.6-0.1-0.9c0-0.4,0.2-0.8,0.3-1.2c0.3-0.8,0.7-1.7,1-2.5
				c0.1-0.3,0.3-0.7,0.4-1c0-0.1,0-0.1,0-0.2c-0.1-0.1-0.3-0.2-0.4-0.4c-0.3-0.4-0.7-0.7-0.9-1.1c-0.1-0.1-0.2-0.2-0.3-0.4
				c-0.3-0.4-0.5-0.9-0.7-1.4c-0.1-0.4-0.3-0.7-0.3-1.1c-0.1-0.3-0.1-0.6-0.1-1c0-0.2,0-0.4-0.1-0.7c0-0.3,0-0.5,0-0.8
				c0.1-0.7,0.2-1.3,0.5-2c0.1-0.4,0.3-0.7,0.5-1c0.4-0.6,0.8-1.2,1.3-1.7c0.4-0.4,0.7-0.7,1.1-1c0.3-0.2,0.6-0.4,1-0.6
				c0.4-0.2,0.9-0.4,1.3-0.6c0.3-0.1,0.6-0.2,0.9-0.3c0.4-0.1,0.8-0.2,1.2-0.3c0.5-0.1,0.9-0.1,1.4-0.1c0.5,0,0.9,0,1.4,0
				c0.3,0,0.6,0,0.9,0.1c0.6,0,1.1,0.1,1.7,0.2c0.4,0.1,0.9,0.2,1.3,0.3c0.4,0.1,0.7,0.2,1.1,0.4c0.4,0.2,0.7,0.4,1.1,0.6
				c0.6,0.3,1.1,0.7,1.6,1.1c0.5,0.4,0.9,0.8,1.3,1.3c0.5,0.6,0.9,1.2,1.2,2c0.3,0.6,0.5,1.2,0.6,1.9c0.1,0.5,0.2,1.1,0.3,1.6
				c0.1,0.5,0.1,1,0.1,1.5c0,0.4,0,0.9-0.1,1.3c0,0.5-0.1,1-0.3,1.5c-0.2,0.8-0.5,1.6-0.9,2.3c-0.2,0.5-0.5,1-0.8,1.5
				c-0.4,0.6-0.8,1.2-1.3,1.7c-0.3,0.3-0.5,0.6-0.8,0.9c-0.6,0.6-1.2,1.1-2,1.5c-0.4,0.3-0.9,0.5-1.3,0.7
				C456.6,26,455.8,26.3,455,26.5z"/>
		</g>
	</g>
	<g>
		<rect x="378.3" y="0.1" class="st10" width="39.4" height="41.2"/>
		<rect x="378.3" y="30" class="st6" width="39.4" height="8.6"/>
		<path class="st11" d="M389.7,24.9c1.5-1.1,2.8-2.7,3.1-4.6c0.4-2.3-0.4-4-2.2-5.4c-0.1-0.1-0.5-0.2-0.6-0.4
			c1.4,0.2,2.5,1.2,3.2,2.3c1.9,3.1,0.7,6.5-2.9,8C390.1,24.8,389.8,24.9,389.7,24.9z"/>
		<path class="st12" d="M398.3,18.1c0.8-0.7,1.6-1.5,2.4-2.2c1-0.9,1.9-1.9,2.5-3.1c0.6-1.1,1-2.3,0.5-3.6c0.5,0.3,0.7,0.7,0.8,1.4
			c0.3,1.9-0.9,3-1.9,4.2c-0.9,1.2-2.2,2.2-3.3,3.3C399,18.3,398.7,18.4,398.3,18.1z"/>
		<path class="st13" d="M411.4,27.3c0.3-1.1,0.5-2.1,0.5-3.3c0-0.4,0.1-0.8,0.5-1c0.7-0.4,1.3-0.8,1.9-1.2c0.6-0.4,0.9-0.9,1-1.6
			c0.7,0.4,0.9,1.3,0.2,1.8c-0.7,0.5-1.4,0.9-2.1,1.4c-0.5,0.3-0.7,0.6-0.7,1.2c0,0.6,0,1.2-0.1,1.8
			C412.5,27.2,412.3,27.3,411.4,27.3z"/>
		<path class="st6" d="M400.9,3.8c-0.2,0.8-0.5,1.5-0.9,2.1c-0.2,0.3-0.6,0.4-0.9,0.3c-0.3-0.2-0.2-0.5,0-0.8
			c0.3-0.5,0.5-1.1,0.7-1.6c0.1-0.5,0.5-0.3,0.9-0.3C400.9,3.5,401,3.6,400.9,3.8z"/>
		<path class="st6" d="M390.7,7.6c-0.4,0-1.8-1.3-1.8-1.6c0-0.3,0.3-0.5,0.5-0.6c0.2-0.2,0.4,0,0.5,0.1c0.4,0.4,0.8,0.7,1.1,1
			c0.2,0.2,0.5,0.3,0.3,0.5C391.1,7.2,390.9,7.5,390.7,7.6z"/>
		<path class="st6" d="M395.4,5.6c-0.1,0.5-0.3,0.8-0.7,0.9c-0.4,0.1-0.4-0.3-0.5-0.6c-0.1-0.5-0.3-0.9-0.5-1.4
			c-0.2-0.5,0.1-0.6,0.4-0.8c0.4-0.2,0.5,0.1,0.7,0.4C395.1,4.6,395.3,5.2,395.4,5.6z"/>
		<path class="st13" d="M412.4,18.3c-0.5,0-0.7-0.2-0.8-0.7c-0.2-1.1-0.5-2.2-0.7-3.3c0.6-0.2,0.8,0.2,0.9,0.7
			C411.9,16,412.1,17.2,412.4,18.3z"/>
		<path class="st13" d="M403.2,25.5c1-0.3,1.7-0.3,2.6-0.7c0.6-0.2,0.9,0.2,1.3,0.5c-0.8,0-1.5,0.4-2.3,0.6
			C404.1,26.1,403.2,26.3,403.2,25.5z"/>
		<path class="st6" d="M405,5.6c0.4,0.1,0.7,0.1,0.8,0.4c0.1,0.4-0.1,0.5-0.4,0.7c-0.4,0.2-0.7,0.5-1.1,0.7
			c-0.3,0.2-0.6,0.1-0.8-0.2c-0.3-0.3,0-0.5,0.2-0.6C404.1,6.3,404.5,5.8,405,5.6z"/>
		<path class="st13" d="M409.7,15.1c0.6,0.7,0.3,1.8,0.6,2.6c0,0.1,0.1,0.2,0.1,0.3c0,0.7,0.4,1,1.1,1.1c0.7,0.1,1.4,0.4,2.1,0.9
			c0.6,0.4,0.6,0.6,0.1,1.1c-0.4,0.4-1,0.6-1.5,0.9c-0.3,0.2-0.7,0.4-1,0.6c-0.4,0.2-0.5,0.5-0.4,0.9c0.1,0.6,0.1,1.2,0.1,1.8
			c0,0.3,0,0.8-0.4,0.9c-0.3,0.2-0.6-0.1-0.9-0.3c-0.7-0.6-1.4-1.2-2-2c-0.4-0.5-0.8-0.5-1.3-0.4c-1,0.2-2,0.7-3,0.7
			c0.2-1.1,0.8-2.1,1.2-3.1c0.2-0.5,0.2-0.9-0.1-1.3c-0.4-0.5-0.6-1-0.9-1.5c-0.3-0.5-0.1-0.8,0.4-0.8c0.6,0,1.2,0.1,1.7,0.2
			c0.9,0.2,1.5-0.3,2.1-0.9C408.4,16.4,408.9,15.5,409.7,15.1z"/>
		<path class="st11" d="M385.4,15c1.2-0.1,2.2,0.2,3.3,0.5c1.8,0.6,2.8,2.5,2.9,3.8c0.1,2.1-1.1,3.9-3,4.7c-1.7,0.7-3.3,0.6-4.9-0.3
			c-0.1-0.1-0.1-0.1-0.2-0.2c-1-0.9-1.5-2.4-1.5-3.7c0-1.5,0.4-2.7,1.7-3.8C384.3,15.6,384.8,15.3,385.4,15z"/>
		<path class="st12" d="M393.7,9.2c0.2-0.1,0.9-0.2,1.2-0.1c0.5,0.2,1.1,0.9,1.5,1.3c0.9,0.9,0.9,0.9,1.7,0.1c0.2,0.2,0.4,0.2,0.6,0
			c0.5-0.8,1.5-1.4,2.2-1.7c1.5,0.1,2.1,1.5,1.6,3c-0.5,1.6-1.6,2.7-2.8,3.8c-0.7,0.7-1.4,1.4-2.3,1.9c-1.6-1.5-3.3-3-4.6-4.8
			C391.8,11.1,392.2,9.8,393.7,9.2z"/>
		<path class="st6" d="M402.9,25.6c-1.9,0.2-1.8-0.5-1.3-1.7c1.2-2.5,1.2-3.7,0-5.8c-0.8-1.5-0.3-1.7,1.4-1.8c0.4,0,1.2,0.1,1.5,0.1
			c1.3,0,1.8-0.1,2.6-1c0.5-0.5,1.1-0.9,1.6-1.3c0.7-0.5,1.3-0.5,1.9,0c0,0.1,0.1,0.1,0.1,0.2l0,0c0.3,1.1,0.5,2.2,0.7,3.3
			c0.1,0.5,0.3,0.6,0.8,0.7c0.7,0.3,1.4,0.6,2.1,0.8c0.2,0.1,0.4,0.2,0.6,0.4c0.2,0.2,0.2,0.4,0.3,0.6c0.1,0.2,0.1,0.4,0,0.6
			c-0.1,0.2-0.1,0.3-0.2,0.4c-0.2,0.3-0.5,0.5-0.7,0.6c-0.6,0.4-1.3,0.8-1.9,1.2c-0.4,0.2-0.6,0.5-0.5,1c0.1,1.4-0.1,3-0.4,3.3
			c-0.5,0.4-1,0.3-1.6,0c-1.1-0.5-2-1.2-2.8-2c-0.4-0.3-0.7-0.8-1.3-0.5C404.8,25.2,403.8,25.4,402.9,25.6z M409.7,15.2
			c0-0.1-0.1-0.2-0.2-0.3c-0.2-0.1-0.3,0.1-0.4,0.2c-0.8,0.7-1.5,1.3-2.2,2c-0.3,0.3-0.6,0.4-1,0.4c-0.8-0.1-1.7-0.1-2.5-0.1
			c-0.5,0-0.7,0.1-0.5,0.7c0.3,0.7,0.5,1.4,0.9,2.1c0.4,0.5,0.3,1.1,0,1.6c-0.4,0.6-0.6,1.3-0.8,1.9c0,0.2-0.2,0.6,0,0.6
			c0.1,0,0.2,0,0.6,0c1-0.1,2-0.5,2.9-0.7c0.5-0.1,0.9-0.1,1.3,0.4c0.5,0.8,1.2,1.4,2,2c0.3,0.2,0.5,0.5,0.9,0.3
			c0.4-0.2,0.4-0.6,0.4-0.9c0-0.6,0-1.2-0.1-1.8c-0.1-0.4,0-0.7,0.4-0.9c0.4-0.2,0.7-0.4,1-0.6c0.5-0.3,1.1-0.5,1.5-0.9
			c0.5-0.5,0.5-0.7-0.1-1.1c-0.6-0.4-1.3-0.7-2.1-0.9c-0.6-0.1-1-0.3-1.1-0.9c0-0.2,0-0.4-0.1-0.6c-0.1-0.2-0.1-0.4-0.1-0.6
			c-0.1-0.3-0.1-0.7-0.2-1c-0.1-0.2-0.1-0.4-0.2-0.6C409.7,15.4,409.7,15.3,409.7,15.2z"/>
		<path class="st6" d="M389.9,24.8c-1.5,1-3.2,1.1-4.9,0.8c-1.6-0.3-2.8-1.3-3.8-2.6c-2.5-3.6-0.7-8.1,3.6-8.9
			c1.7-0.3,3.4-0.3,5,0.4c0.3,0.1,0.5,0.3,0.6,0.4c1.8,1.4,2.6,3.1,2.2,5.4C392.5,22.1,391.5,23.6,389.9,24.8z M385.4,15.1
			c-0.3,0-0.5,0-0.7,0.1c-2.4,0.6-4.5,3.7-3.1,6.3c0.5,0.9,0.8,1.6,2.2,2.2c1.5,0.9,3.2,1.2,4.9,0.4c1.9-0.8,3.1-2.6,3-4.7
			c-0.1-1.3-1-3.3-2.9-3.8C387.6,15.2,386.5,14.9,385.4,15.1z"/>
		<path class="st6" d="M398.3,18.1c-0.2,0.1-0.3,0.2-0.5,0.3c-0.6,0.4-1.1,0.6-1.8-0.1c-1.1-1-2.3-1.9-3.3-2.9
			c-0.8-0.9-1.6-1.8-1.8-3.1c-0.3-1.7,0.3-3.2,1.8-4.1c1.2-0.7,2.9-0.4,4.1,0.7c0.1,0.1,0.2,0.2,0.3,0.3c0.4,0.6,0.8,0.5,1.2,0
			c0.4-0.4,0.9-0.8,1.4-1.1c1.3-0.8,2.9-0.5,3.8,0.7c0.1,0.1,0.2,0.2,0.3,0.4c0.5,1.3,0.1,2.4-0.5,3.6c-0.7,1.2-1.5,2.2-2.5,3.1
			C399.9,16.6,399.1,17.3,398.3,18.1z M398.1,10.5c-0.8,0.8-0.8,0.8-1.7-0.1c-0.4-0.4-0.8-0.8-1.4-1.1c-0.3-0.2-0.5-0.2-1-0.4
			c-0.8-0.3-2.1,0.3-2.3,1.4c-0.1,0.8,0.1,1.5,0.5,2.2c1.1,2,2.9,3.4,4.6,4.8c0.1,0.1,0.4,0.3,0.6,0.1c0.9-0.5,1.6-1.2,2.3-1.9
			c1.1-1.1,2.2-2.3,2.7-3.9c0.5-1.5-0.2-2.7-1.6-2.9c-0.4-0.1-0.6,0-0.7,0.1C399.3,9.3,398.6,9.6,398.1,10.5z"/>
		<g>
			<path class="st10" d="M395.3,31.5h-2v2.2c0,0.1,0,0.2,0,0.3c0,1-0.6,1.6-1.6,1.7c-0.4,0.1-0.9,0.1-1.3,0.1h-1v1.5l2.3,0
				c0.2,0,0.3,0,0.5,0c1.8-0.2,3-1.4,3.1-3.2c0-0.2,0-0.4,0-0.6l0,0V31.5z"/>
			<path class="st10" d="M413.1,31.5L413.1,31.5l-5.8,0V33h4.6c0.4,0,0.5,0.2,0.3,0.8c-0.3,0.9-1,1.5-1.9,1.8
				c-0.6,0.2-1.2,0.2-1.9,0.2h-0.7v1.5c0,0,1.8,0,1.8,0c2.7-0.2,4.4-1.6,4.8-4.1C414.4,32.1,414.1,31.5,413.1,31.5z"/>
			<path class="st14" d="M387.9,35.8c-0.5-0.1-1.1-0.6-1.1-0.6s0.2-0.5,0.4-0.8c0.2-0.4,0.4-0.9,0.5-1.3c0.2-0.9-0.3-1.5-1.2-1.5
				c-0.1,0-0.3,0-0.4,0v0H386c-0.3,0-4.5,0-4.5,0V33h3.9c0.3,0,0.3,0.2,0.1,0.5c-0.7,1.3-1.7,2.2-3.1,2.3h-0.5c-0.1,0-0.2,0-0.3,0
				h-0.1v1.5h1.4c0,0,0,0,0,0c1.2,0,1.3-0.1,2.3-0.7c0.2-0.1,0.6-0.4,0.6-0.4s0.3,0.3,0.4,0.4c0.4,0.4,1.1,0.7,1.7,0.7
				c0.1,0,0.7,0,0.7,0v-1.4C388.6,35.8,388,35.8,387.9,35.8z"/>
			<path class="st10" d="M390.9,31.5H389v2.1l0,1.5l0.8,0c0.6,0,1.1-0.5,1.1-1.1C390.9,33.7,390.9,31.5,390.9,31.5z"/>
			<path class="st10" d="M395.8,34.9v-1.5h2.7l1.5,0l0,0.6c0,0.4-0.5,0.8-1.1,0.8C398.6,34.9,395.8,34.9,395.8,34.9z"/>
			<polygon class="st10" points="404.3,35.8 404.3,33 406.4,33 406.4,31.5 400.2,31.5 400.2,33 402.3,33 402.3,35.8 399.8,35.8 
				399.8,37.2 406.8,37.2 406.8,35.8 			"/>
		</g>
	</g>
	<g>
		<path class="st15" d="M570.2,18.9c0,0,0.1-0.5,0.1-0.6c0.2-1-1.1-1.3-2-1.3c-0.7,0-2.2,0.2-2.4,1.3c-0.2,1.1-0.9,6-1,6.7
			c-0.1,0.8,0.3,1.3,2,1.3c1.7,0,2.3-0.6,2.3-1.2c0.2-1.1,0.6-4.1,0.6-4.1s0.2-1.3,1.2-1.3c1,0,2.6,0,2.6,0l-0.8,4.7
			c0,0-0.3,1.7,1.5,1.7c1.8,0,2.5,0,2.9,0c1.3,0,1.7-0.3,1.9-1.3c0.1-0.4-0.1-1-1-1c-0.4,0-0.5-0.2-0.4-0.8c0.1-0.5,0.5-3.3,0.5-3.3
			s0.5,0,1.1,0c0.9,0,1.3-2.3,0.3-2.3c-0.4,0-1,0-1,0s0.1-0.7,0.2-1.2c0.1-0.5-0.7-0.9-2.1-0.9c-1.9,0-2.4,0.8-2.4,1.1
			c-0.1,0.7-0.2,1.1-0.2,1.1c-0.3,0-1.3,0-1.7,0C571.5,17.4,570.5,18.2,570.2,18.9"/>
		<path class="st15" d="M523.7,17c-3.3,0-5,1.3-5,5.1c0,3.1,1.6,4.3,5,4.3c4.7,0,4.7-3.2,4.7-3.3c0-0.6-0.8-1-2.1-1
			c-1.3,0-1.9,0.4-1.9,0.9c0,1.1-1.4,1-1.4,0.2c0-1,0-1.9,0-2.7c0-0.5,0.4-0.7,0.7-0.7c0.4,0,0.7,0.4,0.7,0.7c0,0.2,0.6,0.9,2,0.9
			c1.3,0,2-0.5,2-1.1C528.4,18.3,526.5,17,523.7,17"/>
		<path class="st15" d="M508.3,19.5c0.8,0,0.8,0.9,0.8,0.9h-1.7C507.4,20.4,507.4,19.5,508.3,19.5 M511,22.9c-1,0-1.8,0.3-2,0.7
			c-0.3,0.6-1.5,0.7-1.5-0.6c0-0.3,0-0.7,0-0.7c0,0,4.2,0,4.7,0c0.7,0,1.2-0.2,1.2-1.3c0-4.1-3.9-4.1-5-4.1c-4.5,0-5,2.7-5,4.8
			c0,3.1,1.1,4.7,4.9,4.7c4.2,0,4.8-2.1,4.8-2.6C513,23.3,512.1,22.9,511,22.9"/>
		<path class="st15" d="M500.4,18.9c0.6,0,2,0,2-1.1c0-1.9-2.1-2.9-4.5-2.9c-1.7,0-5.1,0.4-5.1,3.6c0,1.5,1,2.5,2.1,2.8
			c0.8,0.2,2.3,0.7,2.8,0.9c1,0.4,0.6,1.6-0.2,1.6c-0.5,0-0.7-0.2-0.9-1.1c-0.2-0.8-3.9-1-3.9,0.4c0,1.6,1.2,3.3,5,3.3
			c4,0,5-2.2,5-3.9c0-2.1-1.5-2.6-2.7-3c-0.6-0.2-2.2-0.8-2.7-0.9c-0.5-0.2-0.5-1.2,0.3-1.2c0.5,0,0.6,0.5,0.7,0.7
			C498.7,18.6,499.5,18.9,500.4,18.9"/>
		<path class="st15" d="M559.5,23.7c-0.3,0-0.6-0.1-0.6-0.6c0-1,1.4-0.8,1.7-1.1C560.5,22.7,560.3,23.7,559.5,23.7 M560.6,17.1
			c-3.5,0-4.4,1.5-4.4,2.3c0,0.5,0.3,1.1,1.3,1.1c1.2,0,1.9-1,2.7-1c0.5,0,0.7,0.3,0.7,0.6c0,0.4-0.2,0.6-1.5,0.6
			c-2.6,0-4.1,0.7-4.5,3c-0.2,1.3,0.3,2.6,2.4,2.6c2,0,2.6-1,3-1.5c0,0,0,0.1-0.1,0.3c-0.1,0.4-0.2,1.2,1.8,1.2
			c1.6,0,2.1-0.7,2.2-1.3c0.2-1.1,0.5-3,0.8-4.9C565.4,17.3,562.8,17.1,560.6,17.1"/>
		<path class="st15" d="M538.1,23.8c0,0-1.1,2.7-4.5,2.8c-3.1,0-5-2.5-5-4.8c0-2.5,2.1-4.9,5-4.9c3,0,4.8,2.6,4.8,4.5
			c0,1.9-1.9,2.6-3.5,2.2c1.7,0,2-1.5,2-2.1c0-0.8-0.8-1.7,0.2-2.5c0.2-0.2,0.1-0.2,0-0.2c-0.2,0.1-1,0.2-1.4,1.8
			c-0.2,0.7-0.4,1.6-1.3,1.8c0,0,0.8-0.5,0.8-1.6c0-1.3-0.8-1.6-0.8-2.7c0-0.5,0.3-0.7,0.3-0.7s0.2-0.2-0.3-0.1
			c-0.8,0.1-2.1,0.9-2.1,2.6c0,0.6,0.2,1.1,0.2,1.6c0,1.1-0.7,1.1-0.9,1.1c-0.8,0-1.6-0.8-1.1-2.1c0,0-0.2,0.1-0.4,0.2
			c-0.3,0.1-0.4,0.1-0.7,0.2c-0.3,0.1-0.5,0.2-0.5,0.3c0.1,0,0.2,0,0.3,0c0.2,0.1,0.3,0.3,0.4,0.5c0.3,0.6,0.3,1.5,0.4,2.1
			c0.3,0.8,0.8,1.7,2.5,1.7c2.1,0,2.8-1.6,4.8-1.6C538,23.7,538.1,23.8,538.1,23.8"/>
		<path class="st15" d="M529.7,20.8C529.7,20.8,529.6,20.8,529.7,20.8c-0.1,0.1,0,0.2,0,0.2C529.7,21,529.8,20.9,529.7,20.8
			C529.8,20.8,529.7,20.8,529.7,20.8"/>
		<path class="st15" d="M516,26.4c1.7,0,2.2-0.7,2.2-1.1V18c0-0.4-0.5-1.1-2.2-1.1c-1.7,0-2.2,0.7-2.2,1.1v7.3
			C513.8,25.7,514.3,26.4,516,26.4"/>
		<path class="st15" d="M539.6,18.5c0.1-0.7,0.8-1.4,2.4-1.4c1.9,0,2,0.7,2,1.4c0.5-0.7,1.4-1.4,2.9-1.4c2.1,0,2.4,1.4,2.4,1.4
			s1.2-1.5,3.2-1.5c1.9,0,2.5,1.5,2.4,2.2c-0.2,1.1-0.8,5.1-0.9,5.9c-0.1,0.8-1,1.3-2.4,1.3c-1.9,0-2.1-0.9-2-1.2
			c0.1-0.3,0.7-4,0.7-4.5c0-0.3,0-0.6-0.5-0.6c-0.4,0-0.6,0.5-0.6,0.6c-0.2,1.3-0.6,4.1-0.7,4.4c-0.1,0.3-0.3,1.2-2.6,1.2
			c-1.9,0-1.9-0.9-1.9-1.2c0.1-0.3,0.6-4.1,0.7-4.4c0-0.2,0-0.6-0.5-0.6c-0.5,0-0.6,0.6-0.6,0.6s-0.6,3.8-0.7,4.5
			c-0.1,0.6-1,1.2-2.4,1.2c-2.1,0-2-0.9-2-1.2C538.6,24.9,539.5,19.3,539.6,18.5"/>
	</g>
	<g>
		<rect x="62.6" y="0.4" class="st0" width="37.6" height="40.6"/>
		<rect x="62.6" y="27.6" class="st16" width="37.6" height="13.4"/>
		<g>
			<path class="st17" d="M82.6,20.1l-0.8-2l-1.2,0c0,0,1.4,3.4,1.4,3.5c0,0-0.5,1.2-0.5,1.3c0,0,1.2,0,1.2,0c0-0.1,1.7-4.7,1.7-4.7
				l-1.1,0L82.6,20.1z"/>
			<circle class="st17" cx="78" cy="17" r="0.7"/>
			<path class="st17" d="M71.1,21.4c0-0.1,0-0.2,0-0.3c0-0.6,0-1.2,0-1.8c0,0,0,0,0,0c0-0.2-0.1-1.1-1.2-1.1c0,0-0.3,0-0.3,0
				c-1.1,0-1.2,0.3-1.2,0.3v0.9c0,0,0.3-0.3,0.8-0.3c0.5,0,0.6,0.1,0.8,0.2c0,0,0.1,0.1,0.1,0.1c0,0.1,0.1,0.1,0.1,0.2
				c0,0,0,0.1,0,0.1c0,0,0,0,0,0c0,0,0,0,0,0c0,0-0.2-0.1-0.8-0.1c-0.4,0-0.8,0.3-0.9,0.4C68.2,19.8,68,20,68,20.6
				c0,0.2,0.1,0.5,0.3,0.8c0.2,0.3,0.7,0.4,0.8,0.4c0.3,0,0.6,0,0.7-0.1c0.1,0,0.3-0.1,0.3-0.2c0,0,0.1,0,0.1,0c0,0.1,0,0.1,0,0.2
				c0,0,0,0,0,0s1.1,0,1.1,0c0,0-0.1-0.1-0.1-0.1C71.1,21.6,71.1,21.4,71.1,21.4z M70,20.9C69.9,21,69.8,21,69.3,21
				c-0.1,0-0.4-0.1-0.4-0.4c0-0.6,0.6-0.5,0.8-0.5c0.2,0,0.3,0.1,0.3,0.2c0,0.1,0,0.4,0,0.5C70.1,20.8,70,20.9,70,20.9z"/>
			<path class="st17" d="M93.3,21.4c0-0.1,0-0.2,0-0.3c0-0.6,0-1.2,0-1.8c0,0,0,0,0,0c0-0.2-0.1-1.1-1.2-1.1c0,0-0.3,0-0.3,0
				c-1.1,0-1.2,0.3-1.2,0.3v0.9c0,0,0.3-0.3,0.8-0.3c0.5,0,0.6,0.1,0.8,0.2c0,0,0.1,0.1,0.1,0.1c0,0.1,0.1,0.1,0.1,0.2
				c0,0,0,0.1,0,0.1c0,0,0,0,0,0c0,0,0,0,0,0c0,0-0.2-0.1-0.8-0.1c-0.4,0-0.8,0.3-0.9,0.4c-0.1,0.1-0.4,0.3-0.4,0.9
				c0,0.2,0.1,0.5,0.3,0.8c0.2,0.3,0.7,0.4,0.8,0.4c0.3,0,0.6,0,0.7-0.1c0.1,0,0.3-0.1,0.3-0.2c0,0,0.1,0,0.1,0c0,0.1,0,0.1,0,0.2
				c0,0,0,0,0,0s1.1,0,1.1,0c0,0-0.1-0.1-0.1-0.1C93.4,21.6,93.3,21.4,93.3,21.4z M92.2,20.9C92.2,21,92.1,21,91.6,21
				c-0.1,0-0.4-0.1-0.4-0.4c0-0.6,0.6-0.5,0.8-0.5c0.2,0,0.3,0.1,0.3,0.2c0,0.1,0,0.4,0,0.5C92.3,20.8,92.3,20.9,92.2,20.9z"/>
			<path class="st17" d="M75.6,18c-0.6,0-1.1,0.2-1.1,0.4c0,0,0,0,0,0c0-0.2-0.5-0.4-1-0.4c-0.4,0-0.8,0.1-0.9,0.3
				c0-0.1,0-0.2,0-0.2c0,0,0,0,0,0c-0.3,0-0.6,0-0.9,0c0,0,0,0,0,0.1c0,0.1,0,0.2,0,0.4v3.3v0.1h1v-2.5c0-0.2,0.2-0.4,0.5-0.4
				c0.3,0,0.5,0.2,0.5,0.4v2.5h1v-2.5c0-0.2,0.2-0.4,0.5-0.4c0.3,0,0.5,0.2,0.5,0.4v2.5h1v-2.6c0,0,0,0,0,0v-0.1c0,0,0,0,0,0
				C76.8,18.3,76.2,18,75.6,18z"/>
			<path class="st17" d="M94.9,18.4v-0.3h-1v3.8h1v-2.4c0.1-0.1,0.4-0.3,0.7-0.3c0.4,0,0.6,0.2,0.6,0.2v-1.1c0,0-0.2-0.1-0.5-0.1
				C95.5,18,95.1,18.2,94.9,18.4z"/>
			<rect x="77.5" y="18.1" class="st17" width="1" height="3.8"/>
			<rect x="79.3" y="16.4" class="st17" width="1" height="5.4"/>
			<polygon class="st17" points="65.5,17.5 68,17.5 68,16.4 65.5,16.4 64.5,16.4 64.5,17.5 64.5,21.8 65.5,21.8 65.5,19.5 
				67.9,19.5 67.9,18.4 65.5,18.4 			"/>
			<path class="st17" d="M98.9,19v-1H98v-1.4l-1,0.5v1h-0.5v1H97v1.6l0,0c0,0,0,0,0,0.1v0l0,0c0.1,0.9,0.9,1,1.3,1
				c0.4,0,0.6-0.1,0.6-0.1v-0.9c0,0-0.1,0.1-0.5,0.1c-0.4,0-0.4-0.5-0.4-0.5V19H98.9z"/>
			<path class="st17" d="M87.2,18.1c-0.1-0.1-1.3-1.6-1.3-1.6h-1.1v5.4h1.1v-3.7c0,0,1.1,1.5,1.3,1.7c0.2-0.3,1.3-1.7,1.3-1.7v3.7
				h1.1v-5.4h-1.1C88.6,16.4,87.3,18,87.2,18.1z"/>
		</g>
		<rect x="62.6" y="0.4" class="st18" width="37.6" height="12"/>
	</g>
	<g>
		<path class="st19" d="M261.1,20.7c0,10.5,8.6,19.1,19.1,19.1c10.5,0,19.1-8.6,19.1-19.1c0-10.5-8.6-19.1-19.1-19.1
			C269.7,1.6,261.1,10.2,261.1,20.7"/>
		<path class="st0" d="M295.3,20.6c0,8.4-6.8,15.1-15.1,15.1c-8.4,0-15.1-6.8-15.1-15.1c0-8.4,6.8-15.1,15.1-15.1
			C288.5,5.5,295.3,12.3,295.3,20.6"/>
		<path class="st20" d="M280.3,3.8c-9.3,0-16.8,7.5-16.8,16.8c0,9.3,7.5,16.8,16.8,16.8c9.3,0,16.8-7.5,16.8-16.8
			C297.1,11.4,289.5,3.8,280.3,3.8 M291.2,28.9l-7.2-9.8l3.8-3.9c0.7-0.7,2.1-2.9-0.1-5c-2.1-2-4.3-0.3-5.1,0.5
			c-0.5,0.5-4.4,4.3-4.4,4.3v-2.3c0-0.5-0.8-3.1-3.3-3.1c-2.7,0-3.6,2.8-3.6,3.7v14.8c0,0,0.1,3.2,3.5,3.2c3.4,0,3.4-3.2,3.4-3.2
			v-4.9l7.7,9.9c-1.8,0.8-3.7,1.3-5.8,1.3c-7.6,0-13.8-6.2-13.8-13.8c0-7.6,6.2-13.8,13.8-13.8c7.6,0,13.8,6.2,13.8,13.8
			C294,23.7,292.9,26.6,291.2,28.9"/>
	</g>
	<g>
		<rect x="318.3" y="2.7" class="st0" width="39.2" height="36"/>
		<rect x="318.3" y="31.3" class="st20" width="39.2" height="7.3"/>
		<path class="st20" d="M318.3,11.7c0,0,7.7-5.5,19.6-5.5c11.9,0,19.6,5.5,19.6,5.5v-9h-39.2V11.7"/>
		<path class="st20" d="M337.4,7.9c1.1-0.2,2,0.1,2.7,0.9l0.3,0.5h0.1l1.8-0.8c0.1,0,0.2,0,0.2,0.1c0,0.2-0.1,0.2-0.2,0.3l-6,3.1
			c-0.2,0-0.3-0.2-0.4-0.3c-0.5-0.7-0.4-1.8,0-2.5l0.5-0.7c0-0.2-0.2-0.6,0-0.8c0.2-0.2,0.4-0.2,0.6-0.1
			C337.1,7.6,337.2,7.8,337.4,7.9"/>
		<path class="st20" d="M336.2,7.6c-0.1,0.1-0.2,0.3-0.2,0.4c0,0.1,0,0.3,0.1,0.4c0,0,0,0.1,0,0.1c-0.1,0.1-0.4,0.6-0.4,0.6
			c-0.2,0.4-0.4,0.9-0.4,1.4c0,0.5,0.1,0.9,0.4,1.3c0,0,0.1,0.1,0.1,0.1c0.1,0.1,0.2,0.3,0.4,0.3l0,0l6.1-3.1l0,0l0.1,0
			c0.1-0.1,0.2-0.2,0.2-0.4l0,0l0,0c-0.1-0.2-0.2-0.2-0.3-0.1l-0.1,0l-0.1,0c0,0-1.7,0.8-1.7,0.8h0c-0.1-0.1-0.3-0.4-0.3-0.4
			c-0.7-0.8-1.7-1.2-2.8-1c0,0-0.1-0.1-0.1-0.1c-0.1-0.1-0.2-0.2-0.3-0.3C336.7,7.3,336.4,7.3,336.2,7.6 M336.5,8.5L336.5,8.5l0-0.1
			l0-0.2c0-0.1-0.1-0.2-0.1-0.3c0-0.1,0-0.1,0.1-0.2c0,0,0.2-0.2,0.4-0.1c0.1,0,0.1,0.1,0.2,0.2l0.3,0.3l0.1,0
			c1-0.2,1.9,0.1,2.5,0.9l0.3,0.5l0,0.1h0.3c0,0,1.2-0.6,1.6-0.7c-0.2,0.1-5.8,2.9-5.9,3c0,0-0.1-0.1-0.1-0.1l-0.1-0.1
			c-0.2-0.3-0.3-0.7-0.3-1.1c0-0.4,0.1-0.9,0.3-1.2C336,9.2,336.5,8.5,336.5,8.5"/>
		<path class="st21" d="M337.3,12.6l1.1,0l0.1,0.1c0.6,2.9,0.2,6-1,8.5c-0.3,0.6-0.6,1.2-0.9,1.9c0.5,0.4,0.9,0.7,1.4,1
			c0.5-0.6,0.8-1.4,1.2-2.1c0.2-0.4,0.3-0.9,0.5-1.4c1.1,0.9,1.7,2.1,2.3,3.3c0.1,0.3,0.3,0.6,0.4,0.9c0.5-0.2,1-0.4,1.4-0.6v-0.1
			c-0.4-1.5-1.2-2.8-2.2-4c0.2-0.1,0.4-0.1,0.7-0.2c1-0.3,2.1-1.2,2.3-2.2c0.3-1.2-0.1-2.4-1.2-3.2l-1.3,0.8v0.1l0.3,0.6
			c0.3,0.5,0.1,1.1-0.1,1.6c-0.4,0.6-1.1,0.8-1.9,0.8c-0.1-0.1,0-0.2,0-0.3c0-0.9,0.1-1.9,0.1-2.8c0-1.4-0.1-2.8-0.6-4
			c-0.4-0.1-0.7,0-1.1,0c-0.6,0.3-1.2,0.6-1.7,0.9L337.3,12.6z"/>
		<path class="st21" d="M339.3,11l-0.4,0l0,0l-0.6,0.3c-0.4,0.2-0.8,0.4-1.1,0.6l-0.1,0.1l0.1,0.7c0,0,1,0,1.1,0
			c0.2,0.9,0.3,1.8,0.3,2.7c0,2-0.4,3.9-1.3,5.6c0,0-0.3,0.7-0.3,0.7c-0.2,0.4-0.4,0.8-0.6,1.2l0,0.1l0.1,0.1c0.5,0.4,0.9,0.7,1.4,1
			l0.1,0.1l0.1-0.1c0.4-0.5,0.7-1.2,1-1.8l0.2-0.3c0.2-0.3,0.3-0.6,0.4-0.9c0,0,0-0.1,0.1-0.2c0.9,0.8,1.5,1.9,2,2.8l0.1,0.2
			c0,0,0.1,0.3,0.1,0.3l0.4,0.8l0.1,0c0.4-0.1,0.8-0.3,1.2-0.4l0.4-0.1V24l0,0c-0.3-1.2-1-2.4-2.1-3.9c0.1,0,0.2,0,0.2,0l0.3-0.1
			c1-0.3,2.2-1.2,2.4-2.3c0.1-0.3,0.1-0.5,0.1-0.8c0-1-0.5-2-1.3-2.6l-0.1-0.1l-1.4,0.9v0.2l0.4,0.6c0.2,0.4,0.1,1-0.1,1.4
			c-0.4,0.6-1.1,0.7-1.6,0.7c0,0,0,0,0,0c0,0,0-0.1,0-0.1c0,0,0.1-0.9,0.1-0.9c0-0.6,0.1-1.2,0.1-1.8c0-0.1,0-0.1,0-0.2
			c0-0.1,0-0.1,0-0.2c0-1.2-0.1-2.6-0.6-3.8l0-0.1l-0.1,0C339.8,11,339.6,11,339.3,11 M339.4,11.3c0.2,0,0.4,0,0.6,0
			c0.4,1.2,0.5,2.5,0.5,3.6v0.2c0,0.1,0,0.1,0,0.2c0,0.6,0,1.2-0.1,1.7l-0.1,0.9c0,0.1,0,0.1,0,0.2c0,0.1,0,0.2,0.1,0.3l0,0.1l0.1,0
			c0.9,0.1,1.6-0.2,2-0.8c0.1-0.3,0.2-0.6,0.2-1c0-0.3,0-0.5-0.2-0.7c0,0-0.2-0.4-0.3-0.5c0.1-0.1,0.9-0.6,1.1-0.7
			c0.7,0.6,1.1,1.4,1.1,2.2c0,0.2,0,0.5-0.1,0.7c-0.2,1.1-1.3,1.9-2.2,2.1l-0.3,0.1l-0.6,0.2l0.2,0.2c1.2,1.4,1.9,2.7,2.2,3.9
			c-0.1,0-0.2,0.1-0.2,0.1c-0.3,0.1-0.7,0.3-1,0.4c-0.1-0.2-0.2-0.5-0.2-0.5l-0.1-0.3c0,0-0.1-0.2-0.1-0.2c-0.6-1.1-1.2-2.2-2.2-3.1
			l-0.2-0.2l-0.2,0.7c-0.1,0.3-0.2,0.6-0.3,0.9c0,0-0.2,0.3-0.2,0.3c-0.3,0.5-0.6,1.1-0.9,1.6c-0.4-0.3-0.8-0.5-1.1-0.8
			c0.2-0.4,0.3-0.7,0.5-1.1l0.3-0.7c0.8-1.8,1.3-3.8,1.3-5.8c0-0.9-0.1-1.9-0.3-2.8l0,0l-0.1-0.1c0,0-0.8,0-1,0c0-0.1,0-0.1,0-0.2
			c0.3-0.2,0.7-0.4,1-0.6c0,0,0.5-0.3,0.6-0.3C339.1,11.3,339.4,11.3,339.4,11.3"/>
		<path class="st22" d="M335.9,20.7c-0.1-1.3-0.2-2.7-0.3-4c-0.1-0.7,0-1.4-0.4-2c-0.4-0.6-1-0.9-1.7-0.6c-0.5,0.1-0.8,0.6-1.1,0.9
			c0-0.3,0-0.5-0.1-0.8c-0.5,0-1.2,0.1-1.8,0.2c0,0,0.1,0.9,0.1,1.4l0.4,0c0,0.3,0,0.5,0.1,0.8c0.1,1.6,0.2,3,0.4,4.6l1.3-0.1
			c-0.1-1.3-0.2-2.6-0.3-3.9c-0.1-0.4,0-0.9,0.4-1.2c0.2-0.1,0.7-0.2,0.9,0c0.2,0.1,0.3,0.4,0.4,0.6c0.1,1.5,0.2,2.9,0.4,4.3l0,0.1
			L335.9,20.7z"/>
		<path class="st22" d="M333.4,13.9c-0.4,0.1-0.7,0.4-0.9,0.7c0-0.2,0-0.6,0-0.6l-0.2,0l-1.9,0.2l0,0.2l0.1,1.5l0.1,0
			c0,0,0.1,0,0.3,0c0,0.1,0,0.2,0,0.2l0,0.4c0,0,0.1,1.6,0.1,1.6l0.3,3.2l0.2,0l1.4-0.1l0-0.2c-0.1-1.5-0.2-2.8-0.3-4
			c-0.1-0.5,0-0.8,0.3-1c0.2-0.1,0.5-0.2,0.7,0c0.2,0.1,0.3,0.3,0.3,0.5v0c0,0,0.1,0.7,0.1,0.7c0.1,1.2,0.2,2.4,0.3,3.6
			c0,0,0,0.1,0,0.1l0,0.2l1.7-0.2l-0.3-4.2c0,0,0-0.5,0-0.5c0-0.5-0.1-1.1-0.4-1.6C334.9,13.9,334.1,13.6,333.4,13.9 M332.4,15
			l0.2-0.2c0.3-0.3,0.5-0.6,0.8-0.7c0.6-0.2,1.2,0,1.6,0.6c0.3,0.4,0.3,0.9,0.3,1.4l0,0.5c0,0,0.2,2,0.2,2s0.1,1.6,0.2,1.8
			c-0.2,0-0.9,0.1-1.1,0.1c-0.1-1.2-0.2-2.4-0.3-3.5l-0.1-0.7c-0.1-0.2-0.2-0.5-0.5-0.7c-0.3-0.2-0.8-0.2-1.1,0
			c-0.3,0.2-0.5,0.5-0.5,1c0,0.1,0,0.2,0,0.3c0.1,1.1,0.2,2.4,0.3,3.8c-0.2,0-0.7,0.1-0.9,0.1c0-0.3-0.2-2.9-0.2-2.9l-0.1-1.6
			c0,0,0-0.4,0-0.4l0-0.5l-0.2,0c0,0-0.1,0-0.3,0c0-0.2-0.1-0.8-0.1-1.1c0.2,0,1.2-0.1,1.4-0.1c0,0.2,0,0.5,0,0.5l0,0.5L332.4,15z"
			/>
		<path class="st22" d="M329.8,19.9c0.1,0.4,0.2,0.9,0.3,1.3l-1.7,0.4l-0.2-0.8c-0.3,0.5-0.5,1-1.1,1.2c-0.6,0.2-1.2,0-1.6-0.4
			c-0.3-0.2-0.4-0.6-0.5-0.9l-1.2-4.9l0-0.1c0.4-0.1,1-0.2,1.4-0.3c0.4,1.4,0.7,2.9,1.1,4.3c0.1,0.2,0.3,0.4,0.5,0.5
			c0.4,0.1,0.7,0,1-0.3c0.2-0.3,0.2-0.6,0.1-0.9l-0.9-3.6l-0.1-0.4c0.4-0.1,0.9-0.2,1.3-0.3l0,0.2c0.4,1.7,0.8,3.4,1.2,5.1
			L329.8,19.9z"/>
		<path class="st22" d="M328.1,14.6l-0.8,0.2l-0.6,0.2l0,0.2l0.1,0.4l0.9,3.6c0.1,0.4,0,0.6-0.1,0.8c-0.1,0.1-0.4,0.3-0.8,0.2
			c-0.2-0.1-0.3-0.2-0.4-0.4l-0.3-1.4l-0.8-3.1l-0.1,0l-1,0.2l-0.6,0.1l0,0.2c0,0,1.2,4.9,1.2,4.9c0.2,0.5,0.3,0.8,0.6,1
			c0.5,0.5,1.1,0.6,1.7,0.4c0.5-0.1,0.8-0.5,1-0.9c0,0.2,0.1,0.5,0.1,0.5l2-0.5l-0.4-1.6c0,0-0.3,0.1-0.4,0.1
			c-0.1-0.2-0.3-1.5-0.3-1.5l-0.8-3.5c0,0,0-0.2,0-0.2l0-0.2L328.1,14.6z M327.4,15.1c0,0,0.4-0.1,0.6-0.2c0,0,1.2,5.3,1.2,5.3
			s0.3-0.1,0.4-0.1c0,0.2,0.2,0.8,0.2,1c-0.2,0.1-1.2,0.3-1.4,0.3c0-0.2-0.2-1-0.2-1l-0.2,0.4c-0.2,0.4-0.5,0.9-1,1
			c-0.5,0.2-1,0-1.4-0.3c-0.2-0.2-0.4-0.5-0.5-0.8c0,0-1-4.2-1.1-4.8c0.1,0,0.3-0.1,0.3-0.1s0.6-0.1,0.8-0.2
			c0.1,0.3,0.7,2.8,0.7,2.8l0.3,1.4c0.1,0.3,0.3,0.5,0.6,0.6c0.4,0.1,0.8,0,1.1-0.3c0.2-0.2,0.2-0.5,0.2-0.7c0-0.1,0-0.3,0-0.4
			c0,0-0.9-3.6-0.9-3.6c0,0,0-0.2-0.1-0.3C327.2,15.1,327.4,15.1,327.4,15.1"/>
		<path class="st22" d="M350.1,21.3l-0.4,1.3l-1.6-0.4c0-0.3,0.1-0.5,0.1-0.8l-0.1,0c-0.5,0.3-1.2,0.7-1.8,0.4
			c-0.6-0.2-0.9-0.9-0.9-1.5l0-0.5c0.4-1.6,0.8-3.3,1.2-4.9l0-0.1c0.4,0.1,1,0.2,1.4,0.4c0,0-0.7,2.9-1.1,4.3
			c-0.1,0.2,0,0.4,0.1,0.6c0.2,0.3,0.6,0.4,1,0.3c0.6-0.3,0.6-0.9,0.8-1.5c0.3-1.1,0.8-3.3,0.8-3.3l1.3,0.3c0,0-0.9,3.6-1.3,5.3
			L350.1,21.3z"/>
		<path class="st22" d="M346.5,14.8L346.5,14.8l-1.2,5v0l0,0.5c0.1,0.8,0.4,1.4,1,1.6c0.6,0.3,1.2,0.1,1.8-0.3c0,0.1,0,0.1,0,0.1
			l-0.1,0.5l0.1,0l1.8,0.5l0.4-1.6c0,0-0.3-0.1-0.4-0.2c0.1-0.3,1.3-5.3,1.3-5.3l-0.2,0l-1.4-0.3l-0.9,3.5c0,0-0.1,0.4-0.1,0.4
			c-0.1,0.4-0.2,0.8-0.6,1c-0.3,0.1-0.6,0-0.8-0.3c-0.1-0.1-0.1-0.3-0.1-0.4c0,0,0-0.1,0-0.1c0,0,1.1-4.5,1.1-4.5l-1.1-0.3l-0.6-0.2
			L346.5,14.8z M346.2,17.4c0,0,0.5-2.2,0.6-2.4c0.1,0,0.3,0.1,0.3,0.1s0.6,0.1,0.8,0.2c-0.1,0.3-1,4.2-1,4.2c0,0.1,0,0.1,0,0.2
			c0,0.2,0.1,0.4,0.2,0.5l0,0l0,0c0.3,0.3,0.7,0.5,1.1,0.4c0.6-0.3,0.7-0.8,0.8-1.2l0.1-0.4c0,0,0.6-2.5,0.8-3.2
			c0.2,0,0.8,0.2,1,0.2c-0.1,0.3-1.3,5.2-1.3,5.2l0.1,0c0,0,0.1,0.1,0.3,0.1c-0.1,0.2-0.2,0.8-0.3,1c-0.2-0.1-1.1-0.3-1.3-0.4
			c0-0.1,0-0.2,0-0.2l0.1-0.8l-0.3,0.1l-0.1,0c-0.6,0.4-1.1,0.7-1.7,0.4c-0.5-0.2-0.8-0.7-0.8-1.4c0,0,0-0.4,0-0.5
			C345.6,19.8,346.2,17.4,346.2,17.4"/>
		<path class="st22" d="M321.2,17.5c-0.2-0.1-0.5-0.2-0.7-0.2c-0.6-0.1-1.2,0.1-1.6,0.5c-0.6,0.5-0.7,1.4-0.4,2.1
			c0.2,0.8,1.1,1.2,1.9,1.3c0.6,0.1,1.5-0.2,1.7,0.6c0,0.2,0.1,0.4-0.1,0.6c-0.2,0.3-0.5,0.4-0.9,0.3c-0.3,0-0.5-0.2-0.7-0.3
			c-0.2,0.1-0.4,0.2-0.6,0.3l0.8,1.8l0.6-0.2c-0.3-0.8-0.1-0.1-0.3-0.9c0.3,0.2,0.6,0.2,0.8,0.3c0.6,0.1,1.2-0.1,1.7-0.5
			c0.5-0.5,0.6-1.4,0.3-2.1c-0.3-0.8-1.2-1.2-2-1.3c-0.4-0.1-1,0.1-1.4-0.3c-0.1-0.2-0.1-0.5,0-0.7c0.2-0.3,0.5-0.4,0.9-0.3
			c0.2,0.1,0.4,0.2,0.6,0.3l0.7-0.3c-0.2-0.6-0.5-1.1-0.7-1.7l-0.1-0.2c-0.2,0.1-0.5,0.2-0.6,0.3L321.2,17.5z"/>
		<path class="st22" d="M321.5,16.3l-0.4,0.2l-0.4,0.2l0,0.1c0,0,0.1,0.2,0.2,0.4c-0.1,0-0.2-0.1-0.2-0.1l-0.2-0.1
			c-0.6-0.1-1.2,0-1.8,0.5c-0.4,0.4-0.6,0.9-0.6,1.5c0,0.3,0.1,0.5,0.2,0.8c0.3,1.1,1.6,1.3,2,1.4c0,0,0.5,0,0.5,0
			c0.6,0,0.9,0,1.1,0.5c0,0.1,0,0.3-0.1,0.4c-0.2,0.3-0.4,0.3-0.7,0.3c-0.1,0-0.2-0.1-0.4-0.1l-0.4-0.2l0,0l-0.5,0.3l-0.2,0.1
			l0.1,0.1l0.8,1.9l0.9-0.4l-0.2-0.6c0,0,0,0,0,0c0.1,0,0.2,0.1,0.3,0.1l0.2,0.1c0.7,0.1,1.3-0.1,1.9-0.6c0.6-0.6,0.6-1.5,0.4-2.2
			c-0.4-1-1.4-1.3-2.2-1.4c0,0-0.4,0-0.4,0c-0.4,0-0.7,0-0.8-0.2c-0.1-0.2-0.1-0.4,0-0.6c0.1-0.2,0.3-0.3,0.7-0.3
			c0,0,0.2,0.1,0.2,0.1l0.4,0.2l0.1,0l0.8-0.4l0-0.1c-0.1-0.4-0.3-0.7-0.4-1l-0.3-0.7l-0.1-0.3L321.5,16.3z M321.3,16.8
			c0,0,0.1-0.1,0.2-0.1l0.3,0.7c0.1,0.3,0.3,0.6,0.4,0.9c-0.2,0.1-0.4,0.2-0.5,0.2c-0.1,0-0.2-0.1-0.2-0.1l-0.3-0.1l0,0
			c-0.2,0-0.7-0.1-1,0.4c-0.2,0.2-0.2,0.6,0,0.9c0.3,0.4,0.7,0.4,1.1,0.4l0.4,0c0.7,0,1.6,0.3,1.9,1.2c0.2,0.6,0.2,1.4-0.3,1.9
			c-0.4,0.4-1,0.6-1.6,0.5c0,0-0.2-0.1-0.2-0.1c-0.2-0.1-0.4-0.1-0.6-0.2l-0.4-0.2l0.3,0.8c0,0,0.1,0.2,0.1,0.3
			c-0.1,0-0.2,0.1-0.3,0.1c-0.1-0.2-0.5-1.3-0.6-1.5c0,0,0.4-0.2,0.4-0.2c0.1,0,0.2,0.1,0.2,0.1c0.1,0.1,0.3,0.2,0.5,0.2
			c0.4,0.1,0.7-0.1,1-0.4c0.2-0.2,0.1-0.5,0.1-0.7l0,0l0,0c-0.2-0.7-0.9-0.7-1.4-0.7l-0.5,0c-0.3,0-1.5-0.2-1.7-1.2
			c-0.3-0.7-0.1-1.5,0.4-1.9c0.5-0.4,1-0.5,1.5-0.4c0,0,0.2,0.1,0.2,0.1l0.8,0.3l-0.1-0.3c0,0-0.1-0.4-0.2-0.6
			C321.2,16.8,321.3,16.8,321.3,16.8"/>
		<path class="st22" d="M356.4,18.7L356.4,18.7c-0.2-0.3-0.3-0.5-0.4-0.8c-0.3-0.4-0.7-0.5-1.1-0.7c-0.7-0.1-1.3,0.1-1.8,0.6
			c-0.5,0.6-0.7,1.4-0.3,2.1c0.2,0.6,1,1.1,1.3,1.7c0.1,0.3,0,0.6-0.2,0.8c-0.2,0.2-0.5,0.2-0.7,0.2c-0.4-0.1-0.7-0.6-0.7-1
			c-0.2-0.1-0.5-0.2-0.7-0.3c-0.2,0.5-0.5,1.2-0.7,1.8l0.6,0.2c0.1-0.3,0.2-0.6,0.4-0.8c0.1,0.3,0.2,0.5,0.3,0.8
			c0.3,0.5,0.9,0.8,1.5,0.8c0.8,0,1.4-0.6,1.7-1.2c0.5-1.2-0.4-2.2-1.2-3c-0.1-0.2-0.2-0.5-0.1-0.7c0.1-0.2,0.4-0.4,0.6-0.4
			c0.2,0,0.4,0.1,0.5,0.3c0.2,0.2,0.2,0.5,0.3,0.7l0.7,0.3c0.3-0.6,0.5-1.2,0.7-1.8l-0.6-0.2L356.4,18.7z"/>
		<path class="st22" d="M353.1,17.8c-0.3,0.4-0.5,0.9-0.5,1.5c0,0.3,0.1,0.5,0.2,0.8c0.1,0.4,0.4,0.7,0.7,1c0.2,0.2,0.4,0.5,0.6,0.7
			c0,0.1,0,0.1,0,0.2c0,0.2-0.1,0.3-0.2,0.5c-0.1,0.1-0.3,0.1-0.6,0.1c-0.3-0.1-0.6-0.5-0.6-0.9l0-0.1l-1-0.4l0,0.1l-0.5,1.3
			l-0.2,0.6l0.1,0.1l0.8,0.3l0.2-0.5c0,0,0-0.1,0.1-0.1c0,0.1,0.1,0.1,0.1,0.2l0.1,0.3l0,0c0.4,0.7,1.1,0.9,1.6,0.9
			c0.9,0,1.6-0.7,1.9-1.3c0.1-0.3,0.2-0.5,0.2-0.8c0-1-0.9-1.9-1.4-2.4c-0.1-0.1-0.1-0.2-0.1-0.4c0-0.1,0-0.1,0-0.2
			c0.1-0.1,0.2-0.3,0.5-0.3c0.2,0,0.3,0.1,0.4,0.2l0,0c0.1,0.1,0.1,0.2,0.2,0.4l0.1,0.4l0.1,0l0.9,0.3l0.1-0.1
			c0.3-0.6,0.5-1.2,0.7-1.8l0.1-0.1l-0.9-0.4c0,0-0.2,0.4-0.2,0.6c0-0.1-0.3-0.6-0.3-0.6l0,0c-0.3-0.3-0.7-0.6-1.2-0.7
			C354.2,17,353.6,17.2,353.1,17.8 M354.1,22.5c0.2-0.3,0.3-0.6,0.2-0.9l0,0l0,0c-0.2-0.3-0.4-0.5-0.6-0.8c-0.3-0.3-0.5-0.6-0.7-0.9
			c-0.4-0.7-0.1-1.5,0.3-1.9c0.4-0.5,1-0.7,1.6-0.6c0.4,0.1,0.7,0.3,1,0.6c0,0,0.2,0.4,0.2,0.4l0.2,0.5l0.1,0h0.1
			c0,0,0.2-0.5,0.3-0.6c0.1,0,0.2,0.1,0.3,0.1c-0.2,0.5-0.4,1-0.6,1.5c-0.2-0.1-0.4-0.2-0.5-0.2c0-0.1-0.1-0.2-0.1-0.2
			c0-0.2-0.1-0.4-0.3-0.5c0,0-0.1,0-0.1,0c-0.1-0.1-0.3-0.3-0.6-0.3c-0.3,0-0.6,0.1-0.8,0.4c-0.1,0.2-0.1,0.5,0,0.9l0,0l0,0
			c0.9,0.9,1.6,1.8,1.1,2.8c-0.3,0.6-0.9,1.1-1.6,1.1c-0.4,0-1-0.2-1.4-0.8c0,0-0.1-0.3-0.1-0.3c-0.1-0.2-0.2-0.3-0.2-0.5l-0.1-0.4
			l-0.4,0.9c0,0,0,0.1-0.1,0.2c-0.1,0-0.2-0.1-0.4-0.1c0.1-0.1,0.1-0.3,0.1-0.3s0.4-0.9,0.5-1.1c0.2,0.1,0.4,0.2,0.5,0.2
			c0.1,0.5,0.3,0.9,0.8,1l0,0l0,0C353.4,22.8,353.9,22.8,354.1,22.5"/>
		<path class="st20" d="M336.2,23.4c0.6,0.5,1.3,0.9,1.9,1.4v0.1l-1.4,1.3c-0.2,0.2-0.4,0.6-0.2,0.8c0.7,0.8,2,0.1,2.6,1
			c0.3,0.3,0.3,0.9,0.1,1.2c-0.1,0.2-0.3,0.4-0.6,0.4c-1.1,0.1-1.9-0.8-2.6-1.5c-0.3-0.4-0.4-1.1-1.1-1.1c-0.2,0-0.3,0.1-0.4,0.3
			c-0.3-0.1-0.6-0.3-0.9-0.5c0-0.4,0.2-0.9,0.7-1.1C335.4,25.6,335.4,24.2,336.2,23.4L336.2,23.4z"/>
		<path class="st20" d="M336.1,23.3L336.1,23.3l-0.1,0.1c-0.2,0.3-0.4,0.6-0.6,1c-0.3,0.7-0.5,1.2-1.3,1.3l0,0l0,0
			c-0.5,0.2-0.8,0.8-0.8,1.2l0,0.1l0.3,0.2c0.2,0.1,0.4,0.3,0.6,0.4l0.1,0l0.1-0.1c0.1-0.1,0.2-0.2,0.3-0.2c0.3,0,0.5,0.2,0.7,0.5
			c0.1,0.2,0.2,0.3,0.3,0.5c0,0,0.1,0.1,0.1,0.1c0.7,0.7,1.5,1.6,2.7,1.5c0.3-0.1,0.6-0.3,0.7-0.5c0.1-0.2,0.2-0.4,0.2-0.6
			c0-0.3-0.1-0.5-0.2-0.7c-0.3-0.5-0.9-0.6-1.4-0.6c-0.4,0-0.9-0.1-1.1-0.4c0,0,0-0.1,0-0.1c0-0.2,0.1-0.3,0.2-0.5
			c0,0,1.5-1.3,1.5-1.3v-0.2l-0.1,0c-0.4-0.3-0.7-0.6-1.1-0.8l-0.8-0.6L336.1,23.3L336.1,23.3z M335.7,24.4c0.1-0.3,0.3-0.6,0.4-0.8
			c0.1,0.1,0.7,0.5,0.7,0.5c0.3,0.2,0.6,0.5,1,0.7c-0.2,0.2-1.3,1.2-1.3,1.2l0,0c-0.2,0.3-0.3,0.5-0.3,0.7c0,0.1,0,0.3,0.1,0.3
			c0.4,0.4,0.9,0.5,1.3,0.5c0.5,0,0.9,0.1,1.2,0.5c0.1,0.2,0.2,0.4,0.2,0.6c0,0.2,0,0.3-0.1,0.5c-0.1,0.2-0.3,0.3-0.5,0.3
			c-1,0.1-1.7-0.7-2.4-1.4L336,28c-0.1-0.1-0.2-0.2-0.3-0.4c-0.2-0.3-0.4-0.8-1-0.7c-0.2,0-0.3,0.1-0.4,0.2
			c-0.2-0.1-0.3-0.2-0.5-0.3c0,0-0.1-0.1-0.2-0.1c0-0.3,0.2-0.7,0.6-0.8C335.1,25.8,335.4,25.1,335.7,24.4"/>
		<path class="st20" d="M344.6,24.6c0.1,0.7,0.1,1.5,0.3,2.2c0.1,0.2,0.3,0.3,0.5,0.3c0.9-0.1,1.2-1.2,2-1.5c0.3-0.1,0.7-0.1,1,0.1
			c0.3,0.3,0.5,0.7,0.4,1.2c-0.2,0.5-0.7,0.6-1.1,0.8c-0.7,0.3-1.6,0.4-2.4,0.4c-0.3,0-0.6,0-0.7,0.3c-0.1,0.2,0,0.4,0,0.6l-0.1,0.1
			c-0.4,0-0.8,0.6-1.2,0.1c-0.2-0.4-0.2-0.9-0.1-1.3c0-0.2,0-0.4-0.1-0.6l-0.9-1.8v-0.1L344.6,24.6L344.6,24.6z"/>
		<path class="st20" d="M344.5,24.4l-2.3,0.9v0.2c0,0,0.9,1.8,1,1.8c0,0.1,0.1,0.3,0.1,0.4c0,0.1,0,0.1,0,0.2
			c-0.1,0.2-0.1,0.4-0.1,0.6c0,0.3,0.1,0.6,0.2,0.8c0.3,0.5,0.7,0.3,1,0.1c0.1-0.1,0.2-0.1,0.3-0.1l0.1,0l0.2-0.2l0-0.1l0-0.2
			c0-0.1,0-0.2,0-0.3c0.1-0.2,0.3-0.2,0.5-0.2l0.1,0c0.8,0.1,1.7-0.1,2.5-0.4c0,0,0.3-0.2,0.3-0.2c0.3-0.2,0.7-0.4,0.9-0.8l0,0l0,0
			c0.1-0.5-0.1-0.9-0.5-1.3c-0.3-0.3-0.8-0.3-1.2-0.2c-0.4,0.2-0.7,0.5-0.9,0.8c-0.3,0.3-0.6,0.7-1,0.7c-0.1,0-0.3-0.1-0.3-0.2
			c-0.1-0.4-0.2-0.9-0.2-1.4l-0.1-0.9l-0.1,0L344.5,24.4L344.5,24.4z M344.5,24.8c0,0.2,0.1,0.6,0.1,0.6c0.1,0.5,0.1,1,0.2,1.5l0,0
			l0,0c0.1,0.2,0.4,0.4,0.6,0.4l0,0l0,0c0.5-0.1,0.9-0.5,1.2-0.8c0.3-0.3,0.5-0.6,0.8-0.7c0.3-0.1,0.7-0.1,0.9,0.1
			c0.3,0.3,0.4,0.6,0.4,0.9c0,0,0,0.1,0,0.1c-0.1,0.3-0.4,0.4-0.7,0.6l-0.3,0.2c-0.7,0.3-1.5,0.4-2.3,0.3c0,0-0.1,0-0.1,0
			c-0.3,0-0.6,0-0.8,0.4c-0.1,0.1-0.1,0.2-0.1,0.3c0,0.1,0,0.2,0,0.2c0,0,0,0.1,0,0.1c-0.1,0-0.3,0.1-0.4,0.1
			c-0.3,0.2-0.4,0.2-0.6,0c-0.1-0.2-0.2-0.4-0.2-0.6c0-0.2,0-0.4,0.1-0.5l0,0l0,0c0-0.1,0-0.2,0-0.2c0-0.2,0-0.3-0.1-0.5l0,0
			c0,0-0.8-1.6-0.9-1.7C342.7,25.5,344.3,24.9,344.5,24.8"/>
		<path class="st23" d="M329.9,13.8c0.9-0.1,1.9-0.2,2.8-0.2c0,0.1,0,0.1,0,0.2c0,0,0.3-0.1,0.3-0.2c0.8-0.3,1.7-0.2,2.3,0.5
			c0.2,0.2,0.4,0.6,0.6,1.1c0.2,2.1,0.5,5.2,0.5,6c-0.8,0.1-1.7,0.2-2.5,0.2l0,0c-0.1-1.7-0.3-3.3-0.4-5c-0.1-0.1-0.2-0.2-0.3-0.1
			c-0.3,0-0.3,0.3-0.2,0.6c0,0.2,0.3,3.2,0.4,4.6l0,0l-2.4,0.2l0-0.1c-0.1-1.7-0.3-3.6-0.4-5.3l-0.4,0L329.9,13.8z M335.9,20.7
			c-0.1-1.3-0.2-2.7-0.3-4c-0.1-0.7,0-1.4-0.4-2c-0.4-0.6-1-0.9-1.7-0.6c-0.5,0.1-0.8,0.6-1.1,0.9c0-0.3,0-0.5-0.1-0.8
			c-0.5,0-1.2,0.1-1.8,0.2c0,0,0.1,0.9,0.1,1.4l0.4,0c0,0.3,0,0.5,0.1,0.8c0.1,1.6,0.2,3,0.4,4.6l1.3-0.1c-0.1-1.3-0.2-2.6-0.3-3.9
			c-0.1-0.4,0-0.9,0.4-1.2c0.2-0.1,0.7-0.2,0.9,0c0.2,0.1,0.3,0.4,0.4,0.6c0.1,1.5,0.2,2.9,0.4,4.3l0,0.1L335.9,20.7z"/>
		<path class="st23" d="M326.2,14.6c0.8-0.2,1.6-0.4,2.4-0.6l0.1,0.2c0.4,1.7,0.8,3.4,1.2,5.1l0.4-0.1c0.2,0.7,0.4,1.7,0.6,2.4
			l-2.7,0.7c0-0.1,0-0.1-0.1-0.1c-0.1,0.1-0.3,0.3-0.5,0.3c-0.7,0.3-1.6,0.3-2.2-0.2c-0.5-0.4-0.8-0.9-0.9-1.4l-1.3-5.5
			c0.8-0.2,1.7-0.4,2.5-0.6l0,0.2c0.4,1.5,0.7,3.1,1.1,4.6c0,0.1,0.1,0.2,0.2,0.2c0.1,0,0.3,0,0.3-0.1c0.1-0.1,0-0.2,0-0.2l-1.1-4.7
			L326.2,14.6z M329.4,20c-0.4-1.7-0.8-3.4-1.2-5.1l0-0.2c-0.4,0.1-0.9,0.2-1.3,0.3l0.1,0.4l0.9,3.6c0.1,0.3,0.1,0.7-0.1,0.9
			c-0.3,0.2-0.6,0.4-1,0.3c-0.2-0.1-0.4-0.3-0.5-0.5c-0.3-1.4-0.7-2.9-1.1-4.3c-0.4,0.1-1,0.2-1.4,0.3l0,0.1l1.2,4.9
			c0.1,0.3,0.3,0.7,0.5,0.9c0.4,0.4,1,0.6,1.6,0.4c0.6-0.2,0.9-0.7,1.1-1.2l0.2,0.8l1.7-0.4c-0.1-0.4-0.2-0.9-0.3-1.3L329.4,20z"/>
		<path class="st23" d="M349.3,14.8l2.4,0.6l-1.3,5.3l0.4,0.1c-0.2,0.8-0.4,1.6-0.6,2.4l-2.7-0.7l0-0.1c-0.8,0.1-1.8-0.1-2.2-0.9
			c-0.4-0.5-0.4-1.2-0.3-1.9l1.4-5.5l0,0c0.8,0.2,1.7,0.4,2.5,0.6c-0.1,0.3-0.9,3.5-1.2,4.9c0,0.1,0.1,0.2,0.2,0.2
			c0.2,0.1,0.3-0.1,0.4-0.2l1-4.2L349.3,14.8z M349.7,21.1c0.4-1.7,1.3-5.3,1.3-5.3l-1.3-0.3c0,0-0.6,2.2-0.8,3.3
			c-0.2,0.5-0.1,1.2-0.8,1.5c-0.4,0.1-0.7,0-1-0.3c-0.1-0.2-0.2-0.4-0.1-0.6c0.3-1.4,1.1-4.3,1.1-4.3c-0.4-0.1-1-0.2-1.4-0.4l0,0.1
			c-0.4,1.6-0.8,3.3-1.2,4.9l0,0.5c0,0.6,0.3,1.2,0.9,1.5c0.6,0.3,1.3,0,1.8-0.4l0.1,0c0,0.3-0.1,0.5-0.1,0.8l1.6,0.4l0.4-1.3
			L349.7,21.1z"/>
		<path class="st23" d="M351.5,20.5c0.4,0.1,0.8,0.3,1.2,0.4v-0.1c-0.6-0.7-0.8-1.9-0.4-2.8c0.4-0.8,1.2-1.4,2-1.4
			c0.8-0.1,1.4,0.3,2,0.7l0.1-0.1l1.7,0.7l0,0l-1.1,2.9c-0.4-0.1-0.7-0.3-1.1-0.4l-0.1,0c0,0.3,0.3,0.5,0.4,0.8
			c0.3,0.9,0.1,2-0.6,2.7c-0.6,0.6-1.4,0.8-2.2,0.6c-0.4-0.1-0.8-0.3-1.2-0.7l-0.1,0.2c-0.6-0.2-1.2-0.5-1.8-0.7
			C350.8,22.5,351.1,21.5,351.5,20.5L351.5,20.5z M356.4,18.7L356.4,18.7c-0.2-0.3-0.3-0.5-0.4-0.8c-0.3-0.4-0.7-0.5-1.1-0.7
			c-0.7-0.1-1.3,0.1-1.8,0.6c-0.5,0.6-0.7,1.4-0.3,2.1c0.2,0.6,1,1.1,1.3,1.7c0.1,0.3,0,0.6-0.2,0.8c-0.2,0.2-0.5,0.2-0.7,0.2
			c-0.4-0.1-0.7-0.6-0.7-1c-0.2-0.1-0.5-0.2-0.7-0.3c-0.2,0.5-0.5,1.2-0.7,1.8l0.6,0.2c0.1-0.3,0.2-0.6,0.4-0.8
			c0.1,0.3,0.2,0.5,0.3,0.8c0.3,0.5,0.9,0.8,1.5,0.8c0.8,0,1.4-0.6,1.7-1.2c0.5-1.2-0.4-2.2-1.2-3c-0.1-0.2-0.2-0.5-0.1-0.7
			c0.1-0.2,0.4-0.4,0.6-0.4c0.2,0,0.4,0.1,0.5,0.3c0.2,0.2,0.2,0.5,0.3,0.7l0.7,0.3c0.3-0.6,0.5-1.2,0.7-1.8l-0.6-0.2L356.4,18.7z
			 M355,19.5c0,0,0,0.1,0,0.1c0.1,0.1,0.2,0.2,0.3,0.2c0-0.1,0-0.1,0-0.2C355.2,19.5,355.2,19.4,355,19.5 M353.2,21.5
			c0,0.1,0,0.3,0.1,0.4c0.1,0.1,0.2,0.2,0.3,0.2c0,0,0.1-0.1,0.1-0.1C353.5,21.7,353.3,21.5,353.2,21.5"/>
		<path class="st23" d="M321.9,24.4c-0.5,0.2-1.2,0.5-1.7,0.8l-1.2-2.8c0.4-0.2,0.8-0.4,1.2-0.6v0c-0.9-0.1-2-0.7-2.3-1.7
			c-0.3-0.7-0.2-1.7,0.2-2.3c0.5-0.7,1.2-1,2-1.1l-0.1-0.2l1.7-0.8l0.2,0.4c0.3,0.8,0.8,1.7,1.1,2.5c-0.4,0.2-0.7,0.3-1.1,0.5
			c0.1,0.1,0.3,0.1,0.5,0.2c0.8,0.2,1.6,1,1.8,1.8c0.2,1.1-0.1,2.2-1.1,2.7c-0.4,0.2-0.8,0.3-1.3,0.4L321.9,24.4z M321.2,17.5
			c-0.2-0.1-0.5-0.2-0.7-0.2c-0.6-0.1-1.2,0.1-1.6,0.5c-0.6,0.5-0.7,1.4-0.4,2.1c0.2,0.8,1.1,1.2,1.9,1.3c0.6,0.1,1.5-0.2,1.7,0.6
			c0,0.2,0.1,0.4-0.1,0.6c-0.2,0.3-0.5,0.4-0.9,0.3c-0.3,0-0.5-0.2-0.7-0.3c-0.2,0.1-0.4,0.2-0.6,0.3l0.8,1.8l0.6-0.2
			c-0.3-0.8-0.1-0.1-0.3-0.9c0.3,0.2,0.6,0.2,0.8,0.3c0.6,0.1,1.2-0.1,1.7-0.5c0.5-0.5,0.6-1.4,0.3-2.1c-0.3-0.8-1.2-1.2-2-1.3
			c-0.4-0.1-1.1,0.1-1.4-0.3c-0.1-0.2-0.1-0.5,0-0.7c0.2-0.3,0.5-0.4,0.9-0.3c0.2,0.1,0.4,0.2,0.6,0.3l0.7-0.3
			c-0.2-0.6-0.5-1.1-0.7-1.7l-0.1-0.2c-0.2,0.1-0.5,0.2-0.6,0.3L321.2,17.5z M321.2,19.1c-0.1,0.1-0.3,0.1-0.4,0
			c0-0.1,0-0.1,0.1-0.1C321,18.9,321.1,19,321.2,19.1 M321.4,21.8c-0.2,0-0.4-0.1-0.6,0c0.1,0.1,0.3,0.3,0.6,0.3
			C321.4,22,321.5,21.9,321.4,21.8L321.4,21.8z"/>
		<path class="st23" d="M338,13.1l-1.2,0c0-0.2,0-0.5-0.1-0.7l-0.6,0.2c-1-0.8-1.3-2.1-0.9-3.2c0.1-0.4,0.3-0.7,0.6-1
			c-0.1-0.4-0.1-0.8,0.2-1.1c0.3-0.3,0.7-0.4,1.1-0.3c0.2,0.1,0.4,0.2,0.6,0.4c1.2-0.1,2.3,0.4,3,1.3h0.1c0.7-0.2,1.5-1.2,2.3-0.4
			c0.2,0.2,0.1,0.6-0.1,0.8l-0.2,0.3c-0.8,0.4-1.5,0.8-2.3,1.2c0,0.1,0.1,0.1,0.1,0.2c0.6,1.4,0.6,3,0.7,4.5h0.1l2.1-1.4
			c1,0.6,1.7,1.7,1.8,2.8c0.1,1.5-0.6,2.8-1.9,3.5c-0.2,0.1-0.4,0.2-0.6,0.3c0.1,0.2,0.2,0.3,0.3,0.5c0.6,0.9,1.1,2,1.5,3
			c0.2,0,0.4-0.1,0.6-0.2l0.1,0.1c0.1,0.9,0.2,1.7,0.3,2.6c0,0.1,0.1,0.1,0.2,0.1c0.7-0.6,1.2-1.6,2.3-1.5c0.5,0,1,0.3,1.3,0.8
			c0.3,0.5,0.5,1.1,0.2,1.6c-0.7,0.8-1.6,1.2-2.6,1.4c-0.5,0-0.9,0.1-1.4,0c-0.1,0.1,0,0.2-0.1,0.3c0,0.1,0.1,0.3,0,0.4l-1.4,0.5
			c-0.4,0-0.8-0.4-1-0.7c-0.2-0.5-0.2-1.1,0-1.6l0-0.2c-0.4-0.8-0.9-1.6-1.3-2.5c0.1-0.1,0.4-0.1,0.3-0.3c-0.5-1.1-1-2.2-1.8-3.1
			c-0.3,0.4-0.4,0.9-0.7,1.3l-0.8,1.3v0.1l0.5,0.4v0.1l-1.9,1.7c0,0.1-0.1,0.1-0.1,0.2c0.2,0.2,0.5,0.1,0.8,0.2
			c0.7,0,1.5,0.4,1.8,1.1c0.3,0.6,0.1,1.4-0.3,1.9c-0.4,0.3-0.9,0.5-1.3,0.4c-1.2-0.3-2.4-1.3-3-2.4c0,0-0.1-0.1-0.1-0.1
			c-0.2,0.1-0.2,0.6-0.5,0.4l-1.4-0.9c-0.1-0.3,0-0.6,0.1-0.9c0.2-0.5,0.6-1,1.1-1.1c0.2,0,0.4-0.1,0.5-0.3l1.2-2.3
			c0.1,0,0.1,0.1,0.2,0.1c1-1.8,1.9-3.7,2-5.9C338.2,15.6,338.2,14.3,338,13.1L338,13.1z M336.9,7.5c-0.2-0.1-0.4,0-0.6,0.1
			c-0.2,0.2,0,0.5,0,0.8l-0.5,0.7c-0.4,0.7-0.5,1.8,0,2.5c0.1,0.1,0.2,0.3,0.4,0.3l6-3.1c0.1-0.1,0.2-0.1,0.2-0.3
			c0-0.1-0.1,0-0.2-0.1l-1.8,0.8h-0.1l-0.3-0.5c-0.7-0.8-1.6-1.2-2.7-0.9C337.2,7.8,337.1,7.6,336.9,7.5 M337.3,12.6l1.1,0l0.1,0.1
			c0.6,2.9,0.2,6-1,8.5c-0.3,0.6-0.6,1.2-0.9,1.9c0.5,0.4,0.9,0.7,1.4,1c0.5-0.6,0.8-1.4,1.2-2.1c0.2-0.4,0.3-0.9,0.5-1.4
			c1.1,0.9,1.7,2.1,2.3,3.3c0.2,0.3,0.3,0.6,0.4,0.9c0.5-0.1,1-0.4,1.4-0.6v-0.1c-0.4-1.5-1.2-2.8-2.2-4c0.2-0.1,0.4-0.1,0.7-0.2
			c1-0.3,2.1-1.2,2.3-2.2c0.3-1.2-0.1-2.4-1.2-3.2l-1.3,0.8v0.1l0.3,0.6c0.3,0.5,0.1,1.1-0.1,1.6c-0.4,0.6-1.1,0.8-1.9,0.8
			c-0.1-0.1,0-0.2,0-0.3c0-0.9,0.1-1.9,0.1-2.8c0-1.4-0.1-2.8-0.6-4c-0.4-0.1-0.7,0-1.1,0c-0.6,0.3-1.2,0.6-1.7,0.9L337.3,12.6z
			 M341.2,15.3c-0.1,0.8,0,1.5-0.1,2.3l0.1,0.1c0.3,0,0.6-0.2,0.8-0.5C342.3,16.5,341.7,15.9,341.2,15.3 M336.1,23.4
			c-0.7,0.8-0.7,2.2-1.9,2.4c-0.4,0.2-0.7,0.6-0.7,1.1c0.3,0.2,0.5,0.4,0.9,0.5c0.1-0.1,0.3-0.3,0.4-0.3c0.6-0.1,0.7,0.7,1.1,1.1
			c0.7,0.8,1.5,1.6,2.6,1.5c0.2,0,0.5-0.2,0.6-0.4c0.2-0.4,0.2-0.9-0.1-1.2c-0.6-0.9-1.9-0.2-2.6-1c-0.2-0.3,0-0.6,0.2-0.8l1.4-1.3
			v-0.1C337.4,24.3,336.8,23.9,336.1,23.4L336.1,23.4z M344.5,24.6l-2.2,0.9v0.1l0.9,1.8c0.1,0.2,0.1,0.4,0.1,0.6
			c-0.2,0.4-0.2,0.9,0.1,1.3c0.3,0.5,0.8-0.1,1.2-0.1l0.1-0.1c0-0.2-0.1-0.4,0-0.6c0.1-0.3,0.4-0.3,0.7-0.3c0.8,0.1,1.7-0.1,2.4-0.4
			c0.4-0.2,0.9-0.4,1.1-0.8c0.1-0.5-0.1-0.9-0.4-1.2c-0.3-0.2-0.7-0.2-1-0.1c-0.8,0.3-1.1,1.4-2,1.5c-0.2,0-0.4-0.2-0.5-0.3
			C344.7,26.1,344.7,25.3,344.5,24.6L344.5,24.6z"/>
	</g>
	<g>
		<g>
			<path class="st24" d="M202.1,5.6c-4.4,4.5-8.7,9-13.1,13.6c0.2,0,0.4,0,0.5,0c0.7,0,1.4,0,2.1,0c0.9,0,1.5,0.6,1.5,1.5
				c0,0.1,0,0.3,0,0.4c0,5,0,9.9,0,14.9c0,0.5,0,0.5,0.5,0.5c13.2,0,26.5,0,39.7,0c0.5,0,0.5,0,0.5-0.5c0-1,0-2,0-3.1
				c0-1,0.5-1.6,1.5-1.8c2.3-0.4,3.8-1.9,4.3-4c0.5-2.6-1.4-5.4-4-5.8c-0.4-0.1-0.5-0.2-0.5-0.6c0-1.4,0-2.8-0.5-4.2
				c-0.9-2.4-2.6-4.1-5-4.8c-0.4-0.1-0.5-0.3-0.5-0.6c0-1.5-0.4-3-1.3-4.2c-1.8-2.3-5.2-2.8-7.6-1.1c-0.5,0.3-1,0.5-1.6,0.3
				c-0.5-0.2-0.9-0.6-1-1.2c-0.1-0.6,0.2-1.1,0.6-1.4c0.9-0.7,2-1.2,3.1-1.4c4.9-1.2,9.8,2.1,10.5,7.1c0,0.2,0.2,0.3,0.3,0.4
				c3.2,1.7,5.1,4.4,5.7,8c0,0.3,0.1,0.5,0.1,0.8c-0.1,0.5,0.2,0.7,0.6,0.9c2.7,1.6,4.2,4,4.1,7.2c-0.1,3.3-1.8,5.7-4.9,7.1
				c-0.1,0-0.1,0.1-0.2,0.1c-0.8,0.3-0.8,0.3-0.8,1.2c0,1,0,2.1,0,3.1c0,1-0.7,1.6-1.6,1.6c-14.5,0-28.9,0-43.4,0
				c-0.3,0-0.7-0.1-1-0.3c-0.5-0.2-0.7-0.7-0.7-1.2c0-0.3,0-0.6,0-0.9c0-4.8,0-9.6,0-14.5c0-0.5,0-0.5-0.5-0.5c-1.3,0-2.6,0-4,0
				c-0.7,0-1.2-0.3-1.5-0.9c-0.3-0.6-0.1-1.2,0.4-1.7c5.5-5.7,10.9-11.3,16.4-17c0.8-0.8,1.6-0.8,2.5,0c1.6,1.6,3.2,3.1,4.8,4.7
				c0.7,0.6,0.7,1.6,0.1,2.2c-0.6,0.6-1.5,0.6-2.2,0c-1.2-1.2-2.5-2.4-3.7-3.6C202.3,5.7,202.3,5.7,202.1,5.6z"/>
			<path class="st24" d="M205.5,18.5c-0.6,0.7-1.1,1.3-1.7,2c-0.6-0.7-1.2-1.3-1.8-2c0,0.2,0,0.3,0,0.4c0,0.7,0,1.4,0,2.1
				c0,1.1-0.8,1.9-1.9,1.9c-1.1,0-1.8-0.8-1.8-1.9c0-2.3,0-4.5,0-6.8c0-0.9,0.5-1.6,1.2-1.8c0.8-0.3,1.6-0.1,2.2,0.6
				c0.7,0.8,1.4,1.6,2.3,2.5c0.1-0.2,0.1-0.3,0.2-0.4c0.6-0.7,1.2-1.3,1.8-2c0.6-0.7,1.4-0.9,2.2-0.6c0.8,0.3,1.2,1,1.2,1.9
				c0,2.3,0,4.6,0,6.8c0,1.1-0.8,1.9-1.8,1.9c-1.1,0-1.8-0.7-1.9-1.9C205.7,20.3,205.7,19.4,205.5,18.5
				C205.6,18.6,205.6,18.6,205.5,18.5z"/>
			<path class="st24" d="M216.7,23.8c3.1,0,5.5,2.5,5.5,5.6c0,3.1-2.5,5.6-5.6,5.6c-3,0-5.5-2.5-5.5-5.6
				C211.2,26.3,213.6,23.8,216.7,23.8z M218.9,29.4c0-1.2-1-2.2-2.2-2.2c-1.2,0-2.2,1-2.2,2.2c0,1.2,1,2.2,2.2,2.2
				C217.9,31.6,218.9,30.6,218.9,29.4z"/>
			<path class="st24" d="M219.3,19.8c0,0.5,0,0.9,0,1.4c0,0.9-0.6,1.6-1.4,1.8c-0.8,0.2-1.6-0.2-2-0.9c-0.1-0.3-0.2-0.6-0.2-0.9
				c0-2.3,0-4.6,0-6.9c0-0.9,0.5-1.6,1.3-1.8c0.8-0.2,1.6,0.1,2.1,0.8c0.5,0.8,1,1.5,1.6,2.3c0-0.2,0-0.3,0-0.4c0-0.4,0-0.9,0.1-1.3
				c0.1-1,1-1.6,1.9-1.5c1,0.1,1.7,0.8,1.7,1.8c0,2.2,0,4.4,0,6.6c0,0.3,0,0.5,0,0.8c-0.2,0.8-0.6,1.3-1.4,1.5
				c-0.8,0.2-1.4-0.1-1.9-0.8c-0.5-0.7-0.9-1.4-1.4-2.1C219.5,19.9,219.4,19.8,219.3,19.8C219.3,19.7,219.3,19.8,219.3,19.8z"/>
			<path class="st24" d="M223,29.1c0-1.2,0-2.5,0-3.7c0-0.8,0.4-1.2,1.3-1.2c1.2,0,2.3,0,3.5,0c1.7,0,3.2,1.1,3.6,2.7
				c0.5,2.2-1,4.2-3.4,4.3c-0.3,0-0.7,0-1,0c-0.2,0-0.3,0.1-0.3,0.3c0,0.5,0,1,0,1.5c0,1.1-0.8,1.9-1.8,1.9c-1.1,0-1.9-0.8-1.9-1.9
				C223,31.6,223,30.4,223,29.1L223,29.1z M226.7,28.4c0.1,0,0.1,0,0.2,0c0.3,0,0.6,0,0.9,0c0.5,0,0.8-0.4,0.8-0.8
				c0-0.4-0.3-0.8-0.8-0.8c-0.3,0-0.6,0-0.9,0c-0.1,0-0.2,0.1-0.2,0.2C226.7,27.4,226.7,27.9,226.7,28.4z"/>
			<path class="st24" d="M200.5,35.1c-1.4,0-2.4-0.4-3.3-1.3c-0.6-0.6-0.7-1.3-0.3-2c0.4-0.6,1.1-0.9,1.8-0.6
				c0.3,0.1,0.6,0.3,0.9,0.5c0.2,0.1,0.5,0.3,0.7,0c0.2-0.3-0.1-0.4-0.3-0.6c-0.4-0.2-0.8-0.4-1.2-0.7c-1.2-0.8-1.9-1.8-1.8-3.2
				c0.1-1.7,1.2-3,2.8-3.2c1.4-0.2,2.6,0.2,3.6,1.2c0.5,0.5,0.5,1.1,0.2,1.7c-0.3,0.6-1,0.8-1.6,0.6c-0.3-0.1-0.6-0.3-0.9-0.4
				c-0.2-0.1-0.4-0.2-0.6,0c-0.2,0.2,0,0.4,0.2,0.6c0.3,0.2,0.7,0.4,1.1,0.6c1,0.6,1.8,1.3,2.1,2.5
				C204.5,32.8,202.8,35.1,200.5,35.1z"/>
			<path class="st24" d="M206.4,30.4c0-0.9,0-1.8,0-2.8c0-0.3-0.1-0.4-0.4-0.4c-0.6,0.1-1.1-0.1-1.5-0.7c-0.4-0.5-0.4-1.1-0.1-1.6
				c0.3-0.6,0.7-0.9,1.3-0.9c1.5,0,3.1,0,4.6,0c0.9,0,1.5,0.7,1.5,1.6c0,0.9-0.7,1.5-1.5,1.5c-0.3,0-0.4,0.1-0.4,0.5
				c0,1.8,0,3.6,0,5.4c0,0.9-0.6,1.6-1.4,1.7c-0.9,0.2-1.7-0.3-2-1.2c-0.1-0.2-0.1-0.5-0.1-0.7C206.4,32.1,206.4,31.2,206.4,30.4
				C206.4,30.4,206.4,30.4,206.4,30.4z"/>
			<path class="st24" d="M229.4,17.6c0,1.2,0,2.3,0,3.5c0,0.9-0.6,1.6-1.4,1.8c-0.9,0.2-1.8-0.2-2.1-1c-0.1-0.3-0.2-0.6-0.2-1
				c0-2.3,0-4.5,0-6.8c0-1.2,0.8-2,1.9-2c1.1,0,1.9,0.9,1.9,2c0,0.6,0,1.1,0,1.7C229.4,16.5,229.4,17,229.4,17.6z"/>
			<path class="st24" d="M214.4,17.6c0,1.2,0,2.3,0,3.5c0,0.9-0.6,1.6-1.4,1.8c-0.8,0.2-1.7-0.1-2.1-0.8c-0.2-0.3-0.3-0.7-0.3-1.1
				c0-2.3,0-4.6,0-6.8c0-1.2,0.8-2,1.9-2c1.1,0,1.9,0.9,1.9,2c0,0.6,0,1.1,0,1.7C214.4,16.5,214.4,17,214.4,17.6z"/>
		</g>
	</g>
</g>
</svg>
