<?xml version="1.0" encoding="utf-8"?>
<!-- Generator: Adobe Illustrator 21.0.0, SVG Export Plug-In . SVG Version: 6.00 Build 0)  -->
<svg version="1.1" id="レイヤー_1" xmlns="http://www.w3.org/2000/svg" xmlns:xlink="http://www.w3.org/1999/xlink" x="0px"
	 y="0px" width="358.9px" height="41.2px" viewBox="0 0 358.9 41.2" style="enable-background:new 0 0 358.9 41.2;"
	 xml:space="preserve">
<style type="text/css">
	.st0{fill:#0068B6;}
	.st1{fill:#005396;}
	.st2{fill:#EC9F24;}
	.st3{fill:#BE1A20;}
	.st4{fill:#F29417;}
	.st5{fill-rule:evenodd;clip-rule:evenodd;fill:#202850;}
	.st6{fill-rule:evenodd;clip-rule:evenodd;fill:#FFFFFF;}
	.st7{fill:#FFFFFF;}
	.st8{fill:url(#SVGID_1_);}
	.st9{fill:url(#SVGID_2_);}
	.st10{fill:url(#SVGID_3_);}
	.st11{fill:#073F89;}
	.st12{fill:#DCDCDC;}
	.st13{fill:#221714;}
</style>
<g>
	<g>
		<path class="st0" d="M357.5,28.3c-0.4,0-2.8,0-2.8,0v-0.6c-0.3,0.4-0.5,0.6-1,0.6h-8.9v-1.1c0-0.2-0.2-0.4-0.4-0.4h-0.3v1.5h-2.2
			v-1.8c-0.4,0.3-0.8,0.5-1.3,0.5h-1v1.3h-3.1l-0.8-0.9l-0.8,0.9h-5.3v-5.5h5.3l0.8,0.9l0.8-0.9h4.1c0.5,0,1,0.2,1.3,0.5v-0.5h3.5
			c0.5,0,0.9,0.1,1.2,0.3l0-0.3h4.4v0.4c0.2-0.3,0.5-0.4,0.9-0.4c0.8,0,3.1,0,3.1,0v0.4c0.2-0.2,0.4-0.4,0.8-0.4h2.9V2.4h-36.8v16.6
			l1.7-3.6h2.4l0.8,1.7v-1.7h2.7l0.9,1.9l0.9-1.9h9.9c0.6,0,1.1,0.2,1.5,0.4l0-0.4h1.9V16c0.3-0.4,0.7-0.6,1.1-0.6h4.7l0.7,1.5v-1.5
			h2.4l1,1.4v-1.4h2.5v5.5H354l-0.9-1.3v1.3h-3.4l-0.4-0.8h-1.1l-0.4,0.8h-2.5c-0.4,0-0.8-0.1-1.1-0.5v0.5h-1.6h-2.4v-1.1
			c0-0.2-0.2-0.4-0.4-0.4h-0.3v1.5h-8.1v-0.5l-0.3,0.5h-2.1l-0.3-0.5v0.5h-3.3l-0.3-0.6h-1.2l-0.3,0.7l-2,0v18.4h36.8V27.9
			C358.3,28.1,357.9,28.3,357.5,28.3z"/>
		<g>
			<path class="st0" d="M332.1,17.2v3.1h1V16h-1.7l-1.2,2.7L329,16h-1.7v3.9l-1.9-3.9H324l-2,4.3h1.2l0.4-0.9h2.2l0.4,0.9h1.1h0.2
				h0.8v-3.1l1.4,3.1h0.9L332.1,17.2z M323.9,18.6l0.7-1.6l0.8,1.6H323.9z"/>
			<polygon class="st0" points="337.3,19.4 335,19.4 335,18.6 337.3,18.6 337.3,17.7 335,17.7 335,16.9 337.3,16.9 337.3,16 334,16 
				334,20.3 337.3,20.3 			"/>
			<polygon class="st0" points="347.2,27.8 350.4,27.8 350.4,26.9 348.2,26.9 348.2,26.1 350.4,26.1 350.4,25.2 348.2,25.2 
				348.2,24.3 350.4,24.3 350.4,23.5 347.2,23.5 			"/>
			<path class="st0" d="M342.2,17.3c0-0.7-0.6-1.3-1.5-1.3h-2.5v4.3h1v-1.6h1.2c0.4,0,0.7,0.3,0.7,0.7v0.9h1.1v-1.2
				c0-0.3-0.2-0.5-0.5-0.7C341.9,18.2,342.2,17.8,342.2,17.3z M340.6,17.9h-1.5v-1h1.5c0.3,0,0.5,0.2,0.5,0.5
				C341.1,17.6,340.8,17.9,340.6,17.9z"/>
			<path class="st0" d="M346.6,24.8c0-0.7-0.6-1.3-1.5-1.3h-2.5v4.3h1v-1.6h1.2c0.4,0,0.7,0.3,0.7,0.7v0.9h1.1v-1.2
				c0-0.3-0.2-0.5-0.5-0.7C346.3,25.7,346.6,25.2,346.6,24.8z M345,25.3h-1.5v-1h1.5c0.3,0,0.5,0.2,0.5,0.5
				C345.5,25.1,345.3,25.3,345,25.3z"/>
			<rect x="342.8" y="16" class="st0" width="1" height="4.3"/>
			<path class="st0" d="M346.2,20.3c0.8,0,1.2,0,1.2,0l0,0h0.1l0.4-0.9h2.2l0.4,0.9h1.1h0.2h0.8v-3.1l2.1,3.1h1.3V16h-1v2.9
				l-2.1-2.9h-1.3v3.9l-1.9-3.9h-1.3l-1.6,3.4c-0.1,0-0.3,0-0.4,0c-0.5,0-0.9-0.5-0.9-1.2c0-0.7,0.4-1.2,0.9-1.2c0.5,0,1.1,0,1.1,0
				V16c0,0-0.4,0-1.2,0c-1.3,0-1.8,0.5-1.8,2.2C344.3,19.8,344.8,20.3,346.2,20.3z M348.8,16.9l0.8,1.6h-1.5L348.8,16.9z"/>
			<path class="st0" d="M340.6,23.5H339h-0.7H338h-1l-1.2,1.4l-1.2-1.4h-4.1v4.3h4.1l1.3-1.4l1.3,1.4h0.9h0.3h0.7v-1.5
				c0.5,0,1.4,0,1.6,0c0.8,0,1.4-0.6,1.4-1.4S341.4,23.5,340.6,23.5z M333.9,26.9h-2.5v-0.8h2.1v-0.9h-2.1v-0.8h2.6l1.1,1.2
				L333.9,26.9z M336.4,25.6l1.6-1.8v3.6L336.4,25.6z M340.4,25.4H339v-1.1h1.5c0.3,0,0.5,0.2,0.5,0.5S340.7,25.4,340.4,25.4z"/>
			<path class="st0" d="M353.7,25.2h-1c-0.3,0-0.5-0.2-0.5-0.4c0-0.2,0.2-0.4,0.5-0.4h1.9v-0.9c0,0-1.7,0-2.4,0
				c-0.5,0-1.1,0.2-1.1,1.3c0,0.9,0.6,1.1,1.1,1.1h1.2c0.3,0,0.5,0.2,0.5,0.5c0,0.3-0.2,0.5-0.5,0.5h-2.3v0.9c0,0,1.8,0,2.5,0
				c0.5,0,1.2-0.2,1.2-1.4C354.8,25.4,354.2,25.2,353.7,25.2z"/>
			<path class="st0" d="M357.8,25.2h-1c-0.3,0-0.5-0.2-0.5-0.4c0-0.2,0.2-0.4,0.5-0.4h1.9v-0.9c0,0-1.7,0-2.4,0
				c-0.5,0-1.1,0.2-1.1,1.3c0,0.9,0.6,1.1,1.1,1.1h1.2c0.3,0,0.5,0.2,0.5,0.5c0,0.3-0.2,0.5-0.5,0.5h-2.3v0.9c0,0,1.8,0,2.5,0
				c0.5,0,1.2-0.2,1.2-1.4C358.9,25.4,358.3,25.2,357.8,25.2z"/>
		</g>
		<path d="M337,18.4"/>
	</g>
	<g>
		<polygon class="st1" points="36.3,9.9 30.2,9.9 26.4,31.9 32.5,31.9 		"/>
		<polygon class="st1" points="21.3,9.9 15.4,24.8 12,12.1 6.1,11.3 11.7,31.9 12.5,31.9 17.3,31.9 18.2,31.9 27.6,9.9 		"/>
		<path class="st1" d="M37.2,26.4l-0.9,4.5c0,0,4.5,1.2,6.7,1.2c3,0,8.5-0.7,10-5.1c1.5-4.3-1.2-6.5-3.9-7.9
			c-2.6-1.4-4.6-2.2-3.9-3.8c0.7-1.5,5.9-1.7,8.3-0.2l0.8-4.5c0,0-2.9-1.3-7.2-0.9c-4.6,0.5-7.7,2.7-8.1,5.3
			c-0.4,2.5-0.1,4.5,2.9,6.2c3,1.8,5.4,2.4,5.2,4.2c-0.1,1.8-3.2,2.3-5.8,1.9C38.7,27,37.2,26.4,37.2,26.4z"/>
		<path class="st1" d="M69.2,31.9h5.5l-4.8-22h-1.8h-3.2c0,0-1.2-0.1-2,0.8c-0.8,0.9-1.7,3-1.7,3l-7.7,18.2h6.1l1.3-3.3h7.7
			L69.2,31.9z M62.5,24.2l3.2-8.4l1.8,8.4H62.5z"/>
		<path class="st2" d="M0,10c0,0,8.3,0,9,0c0.7,0,2.4,0.3,3.1,1.3s2.4,10.2,2.4,10.2S10.2,12.4,0,10z"/>
	</g>
	<g>
		<g>
			<path class="st3" d="M117.8,20.3c0-5.7,2.4-10.8,6.3-14.4c-3.5-3.2-8.1-5.1-13.2-5.1c-10.8,0-19.5,8.7-19.5,19.5
				s8.7,19.5,19.5,19.5c5.1,0,9.7-2,13.2-5.1C120.2,31.1,117.8,26,117.8,20.3z"/>
			<path class="st4" d="M137.3,0.7c-5.1,0-9.7,2-13.2,5.1c3.9,3.6,6.3,8.7,6.3,14.4c0,5.7-2.4,10.8-6.3,14.4
				c3.5,3.2,8.1,5.1,13.2,5.1c10.8,0,19.5-8.7,19.5-19.5S148.1,0.7,137.3,0.7z"/>
			<path class="st3" d="M117.8,20.3c0,2.1,0.3,4.2,1,6.2h10.7c0.6-1.9,1-4,1-6.2c0-1.4-0.1-2.8-0.4-4.1h-11.8
				C118,17.5,117.8,18.9,117.8,20.3z"/>
			<path class="st3" d="M126.1,32.6h-3.9c0.6,0.7,1.2,1.4,1.9,2.1C124.8,34,125.5,33.3,126.1,32.6z"/>
			<path class="st4" d="M122.2,32.6h3.9c0.5-0.7,1-1.3,1.5-2.1h-6.8C121.2,31.2,121.7,31.9,122.2,32.6z"/>
			<path class="st3" d="M127.5,30.5c0.4-0.7,0.8-1.3,1.1-2.1h-9c0.3,0.7,0.7,1.4,1.1,2.1H127.5z"/>
			<path class="st4" d="M119.6,28.5h9c0.3-0.7,0.6-1.4,0.8-2.1h-10.7C119,27.1,119.3,27.8,119.6,28.5z"/>
			<path class="st3" d="M118.8,14.1h10.7c-0.2-0.7-0.5-1.4-0.8-2.1h-9C119.3,12.7,119,13.4,118.8,14.1z"/>
			<path class="st4" d="M119.6,12h9c-0.3-0.7-0.7-1.4-1.1-2.1h-6.8C120.3,10.7,119.9,11.3,119.6,12z"/>
			<path class="st3" d="M120.7,10h6.8c-0.4-0.7-0.9-1.4-1.5-2.1h-3.9C121.7,8.6,121.2,9.3,120.7,10z"/>
			<path class="st4" d="M122.2,7.9h3.9c-0.6-0.7-1.2-1.4-1.9-2.1C123.4,6.5,122.8,7.2,122.2,7.9z"/>
			<path class="st4" d="M118.8,14.1c-0.2,0.7-0.4,1.4-0.6,2.1H130c-0.1-0.7-0.3-1.4-0.6-2.1H118.8z"/>
		</g>
		<g>
			<path class="st5" d="M97.5,22c0.2-0.5,0.3-1,0.5-1.4c0.5-1.4,1.5-4.5,1.5-4.5h3.3c0,0-0.2,1-0.2,1.5c-0.4,2.4-1.4,8.4-1.4,8.4
				s-1.4,0-2.1,0c0.2-1.2,0.4-2.5,0.6-3.7c0.2-1.2,0.4-2.4,0.5-3.6c-0.3,0.9-0.6,1.8-1,2.7c-0.5,1.5-1.6,4.7-1.6,4.7s-1,0-1.5,0
				c-0.1-2.4-0.1-4.8-0.2-7.2c0,0,0,0-0.1,0c-0.1,0.5-0.2,0.9-0.2,1.4c-0.3,1.9-1,5.8-1,5.8l-2,0c0,0,0.2-1.1,0.3-1.7
				c0.3-2,0.7-4.1,1-6.1c0.1-0.6,0.4-2.1,0.4-2.1h3.1c0,0,0,3.2,0.1,4.6C97.4,21.1,97.4,21.6,97.5,22C97.5,22,97.5,22,97.5,22z"/>
			<path class="st5" d="M150.5,26c0,0,0-0.5,0.1-0.7c-0.1,0.1-0.2,0.2-0.2,0.2c-1,0.9-3,1-3.8-0.8c-0.5-1-0.5-2-0.3-3
				c0.2-1.2,0.7-2.3,1.6-3.2c0.8-0.8,2.3-0.9,3.2-0.2c0.2,0.2,0.4,0.4,0.6,0.6c0.1-0.6,0.4-2.9,0.4-2.9h2.2c0,0-0.2,1.5-0.3,2.1
				c-0.3,1.5-0.5,3.1-0.8,4.6c-0.2,1-0.5,3.3-0.5,3.3L150.5,26z M151,21.4c0-0.1,0-0.4-0.1-0.6c-0.1-0.4-0.3-0.8-0.7-0.9
				c-0.5-0.1-0.9,0-1.2,0.4c-0.1,0.2-0.2,0.3-0.3,0.5c-0.4,0.8-0.5,1.6-0.3,2.5c0.1,0.7,0.7,1,1.4,0.8c0.4-0.1,0.6-0.4,0.8-0.7
				C150.9,22.7,151,22.1,151,21.4z"/>
			<path class="st5" d="M107.9,26l-1.7,0l0-0.8c-0.1,0.1-0.3,0.2-0.4,0.3c-0.7,0.6-2,0.8-2.8,0.3c-0.8-0.5-1-1.3-1-2.2
				c0.1-1.6,1.1-2.5,2.7-2.8c0.6-0.1,1.1-0.1,1.7-0.1c0.1,0,0.2,0,0.2,0s0-0.1,0.1-0.3c0.1-0.6-0.1-0.8-0.7-0.9
				c-0.9-0.1-1.7,0-2.6,0.2c-0.1,0-0.2,0.1-0.3,0.1c0-0.2,0.3-1.8,0.3-1.8s0.1,0,0.1-0.1c1-0.3,2.1-0.5,3.2-0.3c1.2,0.2,2,0.9,2,2.2
				c0,0.7-0.1,1.5-0.2,2.2C108.3,23.4,107.9,26,107.9,26z M106.4,22.4c-0.6-0.1-1.1-0.1-1.6,0.2c-0.3,0.1-0.5,0.3-0.6,0.6
				c-0.1,0.4-0.1,0.7,0.2,1c0.3,0.3,0.7,0.2,1,0.1c0.2-0.1,0.4-0.3,0.6-0.5C106.3,23.4,106.3,22.9,106.4,22.4z"/>
			<path class="st5" d="M141.3,26l-1.7,0l0-0.8c-0.1,0.1-0.3,0.2-0.4,0.3c-0.7,0.6-2,0.8-2.8,0.3c-0.8-0.5-1-1.3-1-2.2
				c0.1-1.6,1.1-2.5,2.7-2.8c0.6-0.1,1.1-0.1,1.7-0.1c0.1,0,0.2,0,0.2,0s0-0.1,0.1-0.3c0.1-0.6-0.1-0.8-0.7-0.9
				c-0.9-0.1-1.7,0-2.6,0.2c-0.1,0-0.2,0.1-0.3,0.1c0-0.2,0.3-1.8,0.3-1.8s0.1,0,0.1-0.1c1-0.3,2.1-0.5,3.2-0.3c1.2,0.2,2,0.9,2,2.2
				c0,0.7-0.1,1.5-0.2,2.2C141.7,23.4,141.3,26,141.3,26z M139.7,22.4c-0.6-0.1-1.1-0.1-1.6,0.2c-0.3,0.1-0.5,0.3-0.6,0.6
				c-0.1,0.4-0.1,0.7,0.2,1c0.3,0.3,0.7,0.2,1,0.1c0.2-0.1,0.4-0.3,0.6-0.5C139.6,23.4,139.7,22.9,139.7,22.4z"/>
			<path class="st5" d="M120.1,22.6c-0.1,0.7,0.2,1.3,0.9,1.5c0.7,0.2,1.5,0.2,2.2,0c0.3-0.1,0.6-0.2,0.9-0.3
				c-0.1,0.4-0.3,1.9-0.3,1.9s-0.6,0.2-0.9,0.3c-0.8,0.2-1.6,0.2-2.4,0c-1.4-0.3-2.2-1.1-2.4-2.6c-0.2-1.4,0-2.7,0.7-3.9
				c0.8-1.4,2.3-2,3.8-1.6c1.1,0.3,2,1.3,2,2.5c0,0.7-0.1,1.4-0.2,2.1c0,0.1,0,0.3,0,0.3s-0.2,0-0.3,0c-1.2,0-2.4,0-3.6,0
				C120.3,22.6,120.2,22.6,120.1,22.6z M122.6,21c0-0.2,0-0.4-0.1-0.7c-0.1-0.5-0.5-0.8-1-0.8c-0.7,0-1.2,0.6-1.3,1.4
				C121,21,121.8,21,122.6,21z"/>
			<path class="st5" d="M135.1,23.6c-0.1,0.4-0.4,2.2-0.4,2.2s-0.1,0-0.1,0c-1.3,0.3-2.5,0.5-3.7-0.3c-1-0.6-1.5-1.5-1.7-2.6
				c-0.3-1.7-0.1-3.4,0.9-5c0.7-1.2,1.8-2,3.3-2.2c1-0.1,1.9,0.1,2.7,0.5c0,0,0.1,0.1,0.1,0.1s-0.2,1.5-0.3,2.2
				c-0.2-0.1-0.4-0.2-0.5-0.2c-1.1-0.5-2.3-0.5-3.2,0.5c-0.5,0.6-0.8,1.4-0.9,2.1c-0.1,0.6-0.1,1.2,0.1,1.8c0.4,1,1.2,1.4,2.2,1.2
				C134.2,23.9,134.7,23.7,135.1,23.6z"/>
			<path class="st5" d="M108.4,25.9c0.1-0.6,0.2-1.2,0.3-1.8c0.2,0.1,0.4,0.1,0.6,0.1c0.6,0.1,1.2,0.2,1.9,0.1
				c0.3-0.1,0.6-0.2,0.6-0.6c0-0.2,0-0.5-0.3-0.6c-0.3-0.2-0.6-0.3-0.9-0.5c-1.1-0.6-1.5-1.4-1.4-2.6c0.1-1.1,0.8-1.8,2-2.1
				c0.8-0.2,1.7-0.1,2.5,0c0.2,0,0.3,0,0.5,0.1c-0.1,0.6-0.2,1.2-0.3,1.8c-0.4,0-0.9-0.1-1.3-0.1c-0.3,0-0.6,0-0.8,0.1
				c-0.3,0.1-0.4,0.2-0.4,0.5c0,0.3,0.1,0.4,0.3,0.6c0.3,0.2,0.6,0.3,0.9,0.5c0.8,0.4,1.3,1.1,1.3,2.1c0,0.8-0.1,1.5-0.8,2.1
				c-0.5,0.4-1.1,0.6-1.7,0.6c-1,0.1-1.9,0-2.8-0.2C108.5,25.9,108.4,25.9,108.4,25.9z"/>
			<path class="st5" d="M115.3,16.7c0.7,0,1.4,0,2.1,0c-0.1,0.4-0.1,0.8-0.2,1.2c0.4,0,0.7,0,1.1,0c-0.1,0.5-0.3,1.9-0.3,1.9l-1.1,0
				c0,0-0.4,2.4-0.6,3.4c0,0.1,0,0.2,0,0.4c0,0.3,0.1,0.5,0.4,0.5c0.3,0,0.5,0,0.8,0c0,0.3-0.3,1.7-0.3,1.7
				c-0.1,0.1-0.3,0.1-0.4,0.2c-0.4,0.1-0.8,0.1-1.4,0.1c-0.8,0-1.2-0.5-1.4-1.3c-0.1-0.6,0-1.3,0.1-1.9c0.3-2,0.6-3.9,1-5.9
				C115.3,16.9,115.3,16.8,115.3,16.7z"/>
			<path class="st5" d="M142,26c0.1-0.9,0.3-1.8,0.4-2.7c0.2-1.5,0.8-5.4,0.8-5.4h2c0,0-0.1,0.8-0.1,1c0.5-0.6,1-1.3,1.9-1.1
				c-0.3,0.8-0.5,1.6-0.8,2.3c-0.8,0.1-1,0.3-1.2,1c-0.3,1.4-0.9,4.7-0.9,4.7S142.5,26,142,26z"/>
			<path class="st5" d="M124.6,26c0.1-0.9,0.3-1.8,0.4-2.7c0.2-1.5,0.8-5.4,0.8-5.4h2c0,0-0.1,0.8-0.1,1c0.5-0.6,1-1.3,1.9-1.1
				c-0.3,0.8-0.5,1.6-0.8,2.3c-0.8,0.1-1,0.3-1.2,1c-0.3,1.4-0.9,4.7-0.9,4.7S125.1,26,124.6,26z"/>
			<path class="st5" d="M128.3,20.5c0,0,0.2-0.3,1-0.3l0.3,0l0.9-2.8C130.6,17.5,128.6,18.7,128.3,20.5z"/>
		</g>
		<g>
			<path class="st6" d="M98.2,21.4c0.2-0.5,0.3-1,0.5-1.4c0.5-1.4,1.5-4.5,1.5-4.5h3.3c0,0-0.2,1-0.2,1.5c-0.4,2.4-1.4,8.4-1.4,8.4
				s-1.4,0-2.1,0c0.2-1.2,0.4-2.5,0.6-3.7c0.2-1.2,0.4-2.4,0.5-3.6c-0.3,0.9-0.6,1.8-1,2.7c-0.5,1.5-1.6,4.7-1.6,4.7s-1,0-1.5,0
				c-0.1-2.4-0.1-4.8-0.2-7.2c0,0,0,0,0,0c-0.1,0.5-0.2,0.9-0.2,1.4c-0.3,1.9-1,5.8-1,5.8l-2,0c0,0,0.2-1.1,0.3-1.7
				c0.3-2,0.7-4.1,1-6.1c0.1-0.6,0.4-2.1,0.4-2.1H98c0,0,0,3.2,0.1,4.6C98.1,20.6,98.1,21,98.2,21.4C98.1,21.4,98.1,21.4,98.2,21.4z
				"/>
			<path class="st6" d="M151.1,25.4c0,0,0-0.5,0.1-0.7c-0.1,0.1-0.2,0.2-0.2,0.2c-1,0.9-3,1-3.8-0.8c-0.5-1-0.5-2-0.3-3
				c0.2-1.2,0.7-2.3,1.6-3.2c0.8-0.8,2.3-0.9,3.2-0.2c0.2,0.2,0.4,0.4,0.6,0.6c0.1-0.6,0.4-2.9,0.4-2.9h2.2c0,0-0.2,1.5-0.3,2.1
				c-0.3,1.5-0.5,3.1-0.8,4.6c-0.2,1-0.5,3.3-0.5,3.3L151.1,25.4z M151.7,20.8c0-0.1,0-0.4-0.1-0.6c-0.1-0.4-0.3-0.8-0.7-0.9
				c-0.5-0.1-0.9,0-1.2,0.4c-0.1,0.2-0.2,0.3-0.3,0.5c-0.4,0.8-0.5,1.6-0.3,2.5c0.1,0.7,0.7,1,1.4,0.8c0.4-0.1,0.6-0.4,0.8-0.7
				C151.6,22.1,151.6,21.5,151.7,20.8z"/>
			<path class="st6" d="M108.6,25.4l-1.7,0l0-0.8c-0.1,0.1-0.3,0.2-0.4,0.3c-0.7,0.6-2,0.8-2.8,0.3c-0.8-0.5-1-1.3-1-2.2
				c0.1-1.6,1.1-2.5,2.7-2.8c0.6-0.1,1.1-0.1,1.7-0.1c0.1,0,0.2,0,0.2,0s0-0.1,0.1-0.3c0.1-0.6-0.1-0.8-0.7-0.9
				c-0.9-0.1-1.7,0-2.6,0.2c-0.1,0-0.2,0.1-0.3,0.1c0-0.2,0.3-1.8,0.3-1.8s0.1,0,0.1-0.1c1-0.3,2.1-0.5,3.2-0.3c1.2,0.2,2,0.9,2,2.2
				c0,0.7-0.1,1.5-0.2,2.2C109,22.8,108.6,25.4,108.6,25.4z M107,21.8c-0.6-0.1-1.1-0.1-1.6,0.2c-0.3,0.1-0.5,0.3-0.6,0.6
				c-0.1,0.4-0.1,0.7,0.2,1c0.3,0.3,0.7,0.2,1,0.1c0.2-0.1,0.4-0.3,0.6-0.5C106.9,22.8,107,22.3,107,21.8z"/>
			<path class="st6" d="M141.9,25.4l-1.7,0l0-0.8c-0.1,0.1-0.3,0.2-0.4,0.3c-0.7,0.6-2,0.8-2.8,0.3c-0.8-0.5-1-1.3-1-2.2
				c0.1-1.6,1.1-2.5,2.7-2.8c0.6-0.1,1.1-0.1,1.7-0.1c0.1,0,0.2,0,0.2,0s0-0.1,0.1-0.3c0.1-0.6-0.1-0.8-0.7-0.9
				c-0.9-0.1-1.7,0-2.6,0.2c-0.1,0-0.2,0.1-0.3,0.1c0-0.2,0.3-1.8,0.3-1.8s0.1,0,0.1-0.1c1-0.3,2.1-0.5,3.2-0.3c1.2,0.2,2,0.9,2,2.2
				c0,0.7-0.1,1.5-0.2,2.2C142.3,22.8,141.9,25.4,141.9,25.4z M140.4,21.8c-0.6-0.1-1.1-0.1-1.6,0.2c-0.3,0.1-0.5,0.3-0.6,0.6
				c-0.1,0.4-0.1,0.7,0.2,1c0.3,0.3,0.7,0.2,1,0.1c0.2-0.1,0.4-0.3,0.6-0.5C140.3,22.8,140.4,22.3,140.4,21.8z"/>
			<path class="st6" d="M120.8,22.1c-0.1,0.7,0.2,1.3,0.9,1.5c0.7,0.2,1.5,0.2,2.2,0c0.3-0.1,0.6-0.2,0.9-0.3
				c-0.1,0.4-0.3,1.9-0.3,1.9s-0.6,0.2-0.9,0.3c-0.8,0.2-1.6,0.2-2.4,0c-1.4-0.3-2.2-1.1-2.4-2.6c-0.2-1.4,0-2.7,0.7-3.9
				c0.8-1.4,2.3-2,3.8-1.6c1.1,0.3,2,1.3,2,2.5c0,0.7-0.1,1.4-0.2,2.1c0,0.1,0,0.3,0,0.3s-0.2,0-0.3,0c-1.2,0-2.4,0-3.6,0
				C121,22.1,120.8,22.1,120.8,22.1z M123.3,20.4c0-0.2,0-0.4-0.1-0.7c-0.1-0.5-0.5-0.8-1-0.8c-0.7,0-1.2,0.6-1.3,1.4
				C121.7,20.4,122.5,20.4,123.3,20.4z"/>
			<path class="st6" d="M135.8,23c-0.1,0.4-0.4,2.2-0.4,2.2s-0.1,0-0.1,0c-1.3,0.3-2.5,0.5-3.7-0.3c-1-0.6-1.5-1.5-1.7-2.6
				c-0.3-1.7-0.1-3.4,0.9-5c0.7-1.2,1.8-2,3.3-2.2c1-0.1,1.9,0.1,2.7,0.5c0,0,0.1,0.1,0.1,0.1s-0.2,1.5-0.3,2.2
				c-0.2-0.1-0.4-0.2-0.5-0.2c-1.1-0.5-2.3-0.5-3.2,0.5c-0.5,0.6-0.8,1.4-0.9,2.1c-0.1,0.6-0.1,1.2,0.1,1.8c0.4,1,1.2,1.4,2.2,1.2
				C134.9,23.3,135.3,23.2,135.8,23z"/>
			<path class="st6" d="M109,25.3c0.1-0.6,0.2-1.2,0.3-1.8c0.2,0.1,0.4,0.1,0.6,0.1c0.6,0.1,1.2,0.2,1.9,0.1
				c0.3-0.1,0.6-0.2,0.6-0.6c0-0.2,0-0.5-0.3-0.6c-0.3-0.2-0.6-0.3-0.9-0.5c-1.1-0.6-1.5-1.4-1.4-2.6c0.1-1.1,0.8-1.8,2-2.1
				c0.8-0.2,1.7-0.1,2.5,0c0.2,0,0.3,0,0.5,0.1c-0.1,0.6-0.2,1.2-0.3,1.8c-0.4,0-0.9-0.1-1.3-0.1c-0.3,0-0.6,0-0.8,0.1
				c-0.3,0.1-0.4,0.2-0.4,0.5c0,0.3,0.1,0.4,0.3,0.6c0.3,0.2,0.6,0.3,0.9,0.5c0.8,0.4,1.3,1.1,1.3,2.1c0,0.8-0.1,1.5-0.8,2.1
				c-0.5,0.4-1.1,0.6-1.7,0.6c-1,0.1-1.9,0-2.8-0.2C109.1,25.3,109.1,25.3,109,25.3z"/>
			<path class="st6" d="M116,16.1c0.7,0,1.4,0,2.1,0c-0.1,0.4-0.1,0.8-0.2,1.2c0.4,0,0.7,0,1.1,0c-0.1,0.5-0.3,1.9-0.3,1.9l-1.1,0
				c0,0-0.4,2.4-0.6,3.4c0,0.1,0,0.2,0,0.4c0,0.3,0.1,0.5,0.4,0.5c0.3,0,0.5,0,0.8,0c0,0.3-0.3,1.7-0.3,1.7
				c-0.1,0.1-0.3,0.1-0.4,0.2c-0.4,0.1-0.8,0.1-1.4,0.1c-0.8,0-1.2-0.5-1.4-1.3c-0.1-0.6,0-1.3,0.1-1.9c0.3-2,0.6-3.9,1-5.9
				C115.9,16.3,116,16.2,116,16.1z"/>
			<path class="st6" d="M142.6,25.4c0.1-0.9,0.3-1.8,0.4-2.7c0.2-1.5,0.8-5.4,0.8-5.4h2c0,0-0.1,0.8-0.1,1c0.5-0.6,1-1.3,1.9-1.1
				c-0.3,0.8-0.5,1.6-0.8,2.3c-0.8,0.1-1,0.3-1.2,1c-0.3,1.4-0.9,4.7-0.9,4.7S143.2,25.4,142.6,25.4z"/>
			<path class="st6" d="M125.2,25.4c0.1-0.9,0.3-1.8,0.4-2.7c0.2-1.5,0.8-5.4,0.8-5.4h2c0,0-0.1,0.8-0.1,1c0.5-0.6,1-1.3,1.9-1.1
				c-0.3,0.8-0.5,1.6-0.8,2.3c-0.8,0.1-1,0.3-1.2,1c-0.3,1.4-0.9,4.7-0.9,4.7S125.8,25.4,125.2,25.4z"/>
		</g>
	</g>
	<g>
		<path class="st7" d="M229,32.9c0,4.6-3.7,8.3-8.3,8.3h-45.1V8.3c0-4.6,3.7-8.3,8.3-8.3H229V32.9z"/>
		<g>
			<g>
				<linearGradient id="SVGID_1_" gradientUnits="userSpaceOnUse" x1="211.355" y1="20.5826" x2="226.0081" y2="20.5826">
					<stop  offset="0" style="stop-color:#04582F"/>
					<stop  offset="1" style="stop-color:#56A733"/>
				</linearGradient>
				<path class="st8" d="M214.3,24.4h3.4c0.1,0,0.3,0,0.4,0c0.7-0.1,1.2-0.7,1.2-1.5c0-0.8-0.6-1.4-1.2-1.5c-0.1,0-0.3,0-0.4,0h-3.4
					V24.4z M217.3,2.8c-3.3,0-5.9,2.7-5.9,5.9v6.2h8.4c0.2,0,0.4,0,0.6,0c1.9,0.1,3.3,1.1,3.3,2.8c0,1.3-1,2.5-2.7,2.7v0.1
					c1.9,0.1,3.4,1.2,3.4,2.9c0,1.8-1.6,3-3.8,3h-9.2v12.1h8.7c3.3,0,5.9-2.7,5.9-5.9V2.8H217.3z M218.9,18.1c0-0.8-0.6-1.3-1.2-1.4
					c-0.1,0-0.2,0-0.3,0h-3.1v2.9h3.1c0.1,0,0.3,0,0.3,0C218.4,19.4,218.9,18.9,218.9,18.1z"/>
			</g>
		</g>
		<linearGradient id="SVGID_2_" gradientUnits="userSpaceOnUse" x1="178.4976" y1="20.5826" x2="193.1458" y2="20.5826">
			<stop  offset="0" style="stop-color:#19264A"/>
			<stop  offset="1" style="stop-color:#085297"/>
		</linearGradient>
		<path class="st9" d="M184.4,2.8c-3.3,0-5.9,2.7-5.9,5.9v14.7c1.7,0.8,3.4,1.3,5.1,1.3c2,0,3.2-1.3,3.2-2.9v-6.9h5.1v6.9
			c0,2.7-1.7,4.9-7.3,4.9c-3.4,0-6.1-0.7-6.1-0.7v12.5h8.7c3.3,0,5.9-2.7,5.9-5.9V2.8H184.4z"/>
		<linearGradient id="SVGID_3_" gradientUnits="userSpaceOnUse" x1="194.9312" y1="20.5826" x2="209.5706" y2="20.5826">
			<stop  offset="0" style="stop-color:#53090E"/>
			<stop  offset="1" style="stop-color:#E51729"/>
		</linearGradient>
		<path class="st10" d="M200.9,2.8c-3.3,0-5.9,2.7-5.9,5.9v7.8c1.5-1.3,4.1-2.1,8.3-1.9c2.3,0.1,4.7,0.7,4.7,0.7v2.5
			c-1.2-0.6-2.6-1.2-4.5-1.3c-3.2-0.2-5.1,1.3-5.1,4.1c0,2.8,1.9,4.3,5.1,4.1c1.8-0.1,3.3-0.7,4.5-1.3v2.5c0,0-2.4,0.6-4.7,0.7
			c-4.2,0.2-6.8-0.6-8.3-1.9v13.7h8.7c3.3,0,5.9-2.7,5.9-5.9V2.8H200.9z"/>
	</g>
	<g>
		<path class="st11" d="M283.2,24.9c6.7,0,12.1-5.4,12.1-12.1c0-6.7-5.4-12.1-12.1-12.1H268c-6.7,0-12.1,5.4-12.1,12.1
			c0,6.7,5.4,12.1,12.1,12.1H283.2z"/>
		<path class="st12" d="M268,24.7c6.5,0,11.8-5.3,11.8-11.8c0-6.5-5.3-11.8-11.8-11.8c-6.5,0-11.8,5.3-11.8,11.8
			C256.2,19.4,261.5,24.7,268,24.7"/>
		<path class="st11" d="M265.6,6.1c-2.8,1-4.8,3.7-4.8,6.8c0,3.2,2,5.8,4.8,6.8L265.6,6.1z"/>
		<path class="st11" d="M275.2,12.9c0,3.2-2,5.8-4.8,6.8l0-13.6C273.2,7,275.2,9.7,275.2,12.9"/>
		<path class="st13" d="M261,29.7c0-0.1,0.1-0.2,0.5-0.2c1.4,0,1.6,0.9,1.6,1.7c0,0.5-0.3,2.8-2.7,2.8c-0.4,0-0.6,0-0.6-0.3
			c0-0.1,0.1-0.5,0.2-0.7L261,29.7z M259.6,29.4c0.4,0,0.6,0.1,0.6,0.3c0,0.2-0.1,0.4-0.1,0.5l-0.9,3.4c-0.1,0.5-0.2,0.5-0.6,0.6
			v0.1h1.9c2.3,0,3.5-1.4,3.5-3c0-0.8-0.5-2-2.2-2h-2.1V29.4z"/>
		<path class="st13" d="M265.6,33.5c-0.3,0.5-0.6,0.9-1.1,0.9c-0.4,0-0.4-0.3-0.4-0.5c0-0.4,0.6-2.3,0.6-2.5c0-0.2-0.1-0.2-0.5-0.2
			v-0.1c0.3,0,0.9-0.1,1.2-0.2l0,0l-0.7,2.5c0,0.1-0.1,0.4-0.1,0.5c0,0.1,0.1,0.1,0.1,0.1C264.9,34,265.2,33.8,265.6,33.5
			L265.6,33.5z M265.4,30.1c-0.2,0-0.4-0.1-0.4-0.4c0-0.3,0.2-0.4,0.4-0.4c0.3,0,0.4,0.3,0.4,0.4C265.8,29.8,265.7,30.1,265.4,30.1"
			/>
		<path class="st13" d="M269.2,33.5c-0.4,0.5-0.6,0.9-1.1,0.9c-0.4,0-0.4-0.2-0.4-0.5c0-0.2,0.6-2.1,0.6-2.4c0-0.1,0-0.2-0.2-0.2
			c-0.4,0-0.9,0.7-1.1,1.1c-0.4,0.5-0.5,0.9-0.8,1.9h-0.6c0.2-0.9,0.8-2.7,0.8-2.8c0-0.1-0.1-0.2-0.5-0.2v-0.1
			c0.4-0.1,0.8-0.2,1.3-0.2l0,0l-0.5,1.6l0,0c0.4-0.6,1.1-1.6,1.7-1.6c0.4,0,0.5,0.2,0.5,0.5c0,0.3-0.6,2.2-0.6,2.5
			c0,0.1,0.1,0.1,0.1,0.1c0.2,0,0.3-0.2,0.6-0.6L269.2,33.5z"/>
		<path class="st13" d="M270.1,32.3c0.3-0.7,0.8-1.3,1.2-1.3c0.2,0,0.3,0.1,0.3,0.3c0,0.1,0,1-1.6,1.3L270.1,32.3z M271.7,33.4
			c-0.4,0.3-0.7,0.6-1.1,0.6c-0.3,0-0.7-0.2-0.7-0.7c0-0.2,0-0.3,0.1-0.5l0.2,0c1.2-0.2,2-0.8,2-1.4c0-0.3-0.2-0.5-0.6-0.5
			c-1.1,0-2.3,1.3-2.3,2.4c0,0.5,0.3,1.1,1.1,1.1C271,34.4,271.7,33.7,271.7,33.4L271.7,33.4z"/>
		<path class="st13" d="M272.2,34.3l0.6-2.2c0.1-0.3,0.1-0.6,0.1-0.6c0-0.1,0-0.2-0.3-0.2c-0.1,0-0.2,0-0.3,0v-0.1
			c0.4,0,0.8-0.1,1.2-0.2l0,0l-0.4,1.5l0,0l0.1-0.1c0.3-0.5,0.8-1.4,1.3-1.4c0.2,0,0.4,0.1,0.4,0.4c0,0.4-0.3,0.4-0.4,0.4
			c-0.3,0-0.2-0.3-0.4-0.3c-0.2,0-0.7,0.9-0.8,1c-0.3,0.6-0.4,0.9-0.7,1.9H272.2z"/>
		<path class="st13" d="M274.6,33.1c0.1,0.3,0.2,1.1,0.8,1.1c0.4,0,0.6-0.4,0.6-0.6c0-0.5-0.9-1.3-0.9-1.8c0-0.2,0.1-0.9,0.9-0.9
			c0.3,0,0.5,0.1,0.7,0.1c0.1,0,0.2-0.1,0.2-0.1h0.1l-0.2,1.1h-0.1c0-0.4-0.2-0.9-0.7-0.9c-0.2,0-0.4,0.1-0.4,0.4
			c0,0.5,0.9,1.2,0.9,1.8c0,0.8-0.7,1-1.1,1c-0.2,0-0.5-0.1-0.8-0.1c-0.1,0-0.1,0.1-0.2,0.2h-0.1l0.2-1.2H274.6z"/>
		<path class="st13" d="M283.4,30.7c0-0.2-0.1-1.3-1.2-1.3c-1.5,0-2.3,1.9-2.3,3c0,1,0.4,1.6,1.3,1.6c0.9,0,1.4-0.5,1.8-0.9l0.1,0.1
			c-0.3,0.3-1,1.1-2.1,1.1c-0.9,0-2-0.5-2-2.1c0-1.5,1.4-3.2,3.1-3.2c0.6,0,1,0.2,1.2,0.2c0.2,0,0.3-0.1,0.3-0.2h0.2l-0.3,1.5
			L283.4,30.7z"/>
		<path class="st13" d="M284.8,33.4c-0.4,0.6-0.7,1-1.2,1c-0.3,0-0.4-0.3-0.4-0.5c0-0.2,1.1-4.2,1.1-4.3c0-0.2-0.3-0.2-0.5-0.2v-0.1
			c0.4,0,0.8-0.1,1.2-0.2l0,0l-1.2,4.5c0,0.1-0.1,0.3-0.1,0.4c0,0,0,0.2,0.1,0.2C284.2,34,284.4,33.8,284.8,33.4L284.8,33.4z"/>
		<path class="st13" d="M288.4,33.4c-0.5,0.7-0.7,0.9-1.1,0.9c-0.3,0-0.4-0.3-0.4-0.4c0-0.1,0.2-0.8,0.3-1.4h0
			c-0.5,0.9-1.1,1.8-1.8,1.8c-0.3,0-0.4-0.1-0.4-0.5c0-0.3,0.6-2.3,0.6-2.5c0-0.2-0.1-0.2-0.5-0.2v-0.1c0.4,0,0.8-0.1,1.2-0.2l0,0
			l-0.7,2.8c0,0.1,0,0.3,0.2,0.3c0.3,0,0.8-0.7,1.1-1.1c0.4-0.6,0.5-1.1,0.8-1.9h0.6l-0.6,2.3c0,0.2-0.1,0.5-0.1,0.6
			c0,0,0,0.1,0.1,0.1c0.1,0,0.4-0.3,0.6-0.6L288.4,33.4z"/>
		<path class="st13" d="M291.2,31.9c0,0.6-0.7,2.3-1.8,2.3c-0.4,0-0.4-0.2-0.4-0.3c0-0.8,0.7-2.7,1.6-2.7
			C291.1,31.3,291.2,31.7,291.2,31.9 M289.1,29.3c0.4,0,0.5,0,0.5,0.2c0,0.1-0.1,0.3-0.1,0.5l-1,3.9v0c0,0.2,0.6,0.4,1,0.4
			c1.2,0,2.5-1.3,2.5-2.6c0-0.6-0.4-0.9-0.9-0.9c-0.7,0-1.2,0.7-1.4,1.1l0,0c0.3-0.9,0.6-2.3,0.8-2.9l0,0c-0.4,0.1-0.8,0.1-1.2,0.2
			V29.3z"/>
		<path class="st13" d="M257.1,40.2c0.4-0.1,0.5-0.1,0.6-0.6l0.9-3.4c0-0.2,0.1-0.3,0.1-0.5c0-0.3-0.2-0.3-0.5-0.3v-0.1h1.9v0.1
			c-0.4,0.1-0.5,0.1-0.6,0.6l-0.9,3.4c0,0.2-0.1,0.3-0.1,0.5c0,0.3,0.2,0.3,0.5,0.3v0.1h-1.9V40.2z"/>
		<path class="st13" d="M262.7,39.5c-0.4,0.5-0.7,0.9-1.1,0.9c-0.4,0-0.4-0.2-0.4-0.5c0-0.2,0.6-2.1,0.6-2.4c0-0.1,0-0.3-0.2-0.3
			c-0.4,0-0.9,0.7-1.1,1.1c-0.4,0.5-0.5,0.9-0.8,1.9h-0.6c0.2-0.9,0.8-2.7,0.8-2.8c0-0.1-0.1-0.2-0.5-0.2v-0.1
			c0.4-0.1,0.8-0.2,1.3-0.2l0,0l-0.5,1.6l0,0c0.4-0.6,1.1-1.6,1.7-1.6c0.4,0,0.5,0.2,0.5,0.5c0,0.3-0.6,2.2-0.6,2.5
			c0,0.1,0.1,0.1,0.1,0.1c0.1,0,0.3-0.2,0.6-0.6L262.7,39.5z"/>
		<path class="st13" d="M264.7,37.2h-0.6l-0.7,2.6c0,0,0,0,0,0.1c0,0.1,0,0.1,0.1,0.1c0.2,0,0.4-0.4,0.6-0.6l0.1,0.1
			c-0.4,0.6-0.7,0.9-1.1,0.9c-0.2,0-0.4-0.1-0.4-0.3c0-0.1,0.1-0.6,0.2-0.7l0.6-2.1h-0.6c0,0,0-0.1,0-0.1c0-0.1,0.3-0.1,0.4-0.2
			c0.3-0.1,0.6-0.5,0.8-0.7c0,0,0.1-0.1,0.1-0.1c0.1,0,0.1,0.1,0.1,0.1l-0.2,0.8h0.6L264.7,37.2z"/>
		<path class="st13" d="M265.4,38.3c0.3-0.7,0.8-1.3,1.2-1.3c0.2,0,0.3,0.1,0.3,0.3c0,0.1,0,1-1.6,1.3L265.4,38.3z M267,39.4
			c-0.4,0.3-0.7,0.6-1.1,0.6c-0.3,0-0.7-0.2-0.7-0.7c0-0.2,0-0.3,0.1-0.5l0.2,0c1.3-0.2,2-0.8,2-1.4c0-0.3-0.2-0.5-0.6-0.5
			c-1.1,0-2.3,1.3-2.3,2.4c0,0.5,0.2,1.1,1.1,1.1C266.3,40.4,267,39.7,267,39.4L267,39.4z"/>
		<path class="st13" d="M267.6,40.3l0.6-2.2c0.1-0.3,0.1-0.5,0.1-0.6c0-0.1,0-0.2-0.3-0.2c-0.1,0-0.2,0-0.3,0v-0.1
			c0.4,0,0.8-0.2,1.2-0.2l0,0l-0.4,1.5l0,0l0.1-0.2c0.3-0.5,0.8-1.4,1.3-1.4c0.2,0,0.4,0.1,0.4,0.4c0,0.4-0.3,0.4-0.4,0.4
			c-0.3,0-0.2-0.3-0.4-0.3c-0.2,0-0.7,0.9-0.8,1c-0.3,0.6-0.4,0.9-0.7,1.9H267.6z"/>
		<path class="st13" d="M273.6,39.5c-0.4,0.5-0.7,0.9-1.1,0.9c-0.4,0-0.4-0.2-0.4-0.5c0-0.2,0.6-2.1,0.6-2.4c0-0.1,0-0.3-0.2-0.3
			c-0.4,0-0.9,0.7-1.1,1.1c-0.4,0.5-0.5,0.9-0.8,1.9H270c0.2-0.9,0.8-2.7,0.8-2.8c0-0.1-0.1-0.2-0.5-0.2v-0.1
			c0.4-0.1,0.8-0.2,1.2-0.2l0,0l-0.5,1.6l0,0c0.4-0.6,1.1-1.6,1.7-1.6c0.4,0,0.5,0.2,0.5,0.5c0,0.3-0.6,2.2-0.6,2.5
			c0,0.1,0.1,0.1,0.1,0.1c0.2,0,0.3-0.2,0.6-0.6L273.6,39.5z"/>
		<path class="st13" d="M274.1,39.4c0-0.7,0.7-2.4,1.6-2.4c0.2,0,0.4,0.1,0.4,0.5c0,0.8-0.8,2.4-1.6,2.4
			C274.4,40,274.1,39.8,274.1,39.4 M276.9,39.4c-0.3,0.3-0.5,0.5-0.6,0.5c-0.1,0-0.1,0-0.1-0.1c0-0.2,0.7-2.9,0.7-3l-0.1,0l-0.5,0.1
			l0,0l-0.1,0.3h0c0-0.2-0.3-0.4-0.6-0.4c-1,0-2.2,1.4-2.2,2.6c0,0.2,0,0.9,0.8,0.9c0.5,0,0.9-0.2,1.5-1.2l0,0
			c-0.1,0.5-0.2,0.6-0.2,0.8c0,0.1,0,0.3,0.3,0.3C276.3,40.4,276.6,40.1,276.9,39.4L276.9,39.4z"/>
		<path class="st13" d="M279.2,37.2h-0.6l-0.7,2.6c0,0,0,0,0,0.1c0,0.1,0,0.1,0.1,0.1c0.2,0,0.4-0.4,0.6-0.6l0.1,0.1
			c-0.4,0.6-0.7,0.9-1.1,0.9c-0.2,0-0.4-0.1-0.4-0.3c0-0.1,0.1-0.6,0.2-0.7l0.6-2.1h-0.6c0,0,0-0.1,0-0.1c0-0.1,0.3-0.1,0.4-0.2
			c0.3-0.1,0.6-0.5,0.8-0.7c0,0,0.1-0.1,0.1-0.1c0.1,0,0.1,0.1,0.1,0.1l-0.2,0.8h0.6L279.2,37.2z"/>
		<path class="st13" d="M280.7,39.5c-0.3,0.4-0.6,0.9-1.1,0.9c-0.4,0-0.4-0.3-0.4-0.5c0-0.4,0.6-2.3,0.6-2.5c0-0.2-0.1-0.2-0.5-0.2
			v-0.1c0.3,0,0.9-0.1,1.2-0.2l0,0l-0.7,2.5c0,0.1-0.1,0.4-0.1,0.5c0,0,0.1,0.1,0.1,0.1c0.1,0,0.3-0.2,0.6-0.6L280.7,39.5z
			 M280.6,36.1c-0.2,0-0.4-0.1-0.4-0.4s0.2-0.4,0.4-0.4c0.3,0,0.4,0.3,0.4,0.4C280.9,35.8,280.8,36.1,280.6,36.1"/>
		<path class="st13" d="M283.2,37c0.4,0,0.5,0.3,0.5,0.7c0,0.8-0.6,2.4-1.5,2.4c-0.4,0-0.6-0.3-0.6-0.7
			C281.7,38.6,282.4,37,283.2,37 M283.3,36.9c-1.1,0-2.3,1.2-2.3,2.4c0,0.6,0.3,1.1,1.2,1.1c1.2,0,2.2-1.4,2.2-2.3
			C284.4,37.5,284.2,36.9,283.3,36.9"/>
		<path class="st13" d="M287.8,39.5c-0.4,0.5-0.7,0.9-1.1,0.9c-0.4,0-0.4-0.2-0.4-0.5c0-0.2,0.6-2.1,0.6-2.4c0-0.1,0-0.3-0.2-0.3
			c-0.4,0-0.9,0.7-1.1,1.1c-0.4,0.5-0.4,0.9-0.8,1.9h-0.6c0.2-0.9,0.8-2.7,0.8-2.8c0-0.1-0.1-0.2-0.5-0.2v-0.1
			c0.4-0.1,0.8-0.2,1.2-0.2l0,0l-0.5,1.6l0,0c0.4-0.6,1.1-1.6,1.7-1.6c0.4,0,0.5,0.2,0.5,0.5c0,0.3-0.6,2.2-0.6,2.5
			c0,0.1,0.1,0.1,0.1,0.1c0.2,0,0.3-0.2,0.6-0.6L287.8,39.5z"/>
		<path class="st13" d="M288.5,39.4c0-0.7,0.7-2.4,1.6-2.4c0.2,0,0.4,0.1,0.4,0.5c0,0.8-0.8,2.4-1.6,2.4
			C288.8,40,288.5,39.8,288.5,39.4 M291.3,39.4c-0.3,0.3-0.5,0.5-0.6,0.5c-0.1,0-0.1,0-0.1-0.1c0-0.2,0.7-2.9,0.7-3l-0.1,0l-0.5,0.1
			l0,0l-0.1,0.3h0c0-0.2-0.3-0.4-0.6-0.4c-1,0-2.2,1.4-2.2,2.6c0,0.2,0,0.9,0.8,0.9c0.5,0,0.9-0.2,1.5-1.2l0,0
			c-0.1,0.5-0.2,0.6-0.2,0.8c0,0.1,0,0.3,0.3,0.3C290.7,40.4,290.9,40.1,291.3,39.4L291.3,39.4z"/>
		<path class="st13" d="M293.1,39.4c-0.4,0.6-0.7,1-1.2,1c-0.3,0-0.4-0.3-0.4-0.5c0-0.2,1.1-4.2,1.1-4.3c0-0.2-0.3-0.2-0.5-0.2v-0.1
			c0.4,0,0.8-0.1,1.2-0.2l0,0l-1.2,4.5c0,0.1-0.1,0.3-0.1,0.4c0,0,0,0.2,0.1,0.2c0.2,0,0.4-0.2,0.7-0.7L293.1,39.4z"/>
		<path class="st13" d="M294.2,35.2L294.2,35.2c0.2,0,0.2,0,0.2,0.1c0,0.1,0,0.2-0.1,0.2h-0.1V35.2z M293.9,35.2
			C294,35.2,294,35.2,293.9,35.2l0.1,0.6c0,0.1,0,0.1-0.1,0.1v0h0.3v0c-0.1,0-0.1,0-0.1-0.1v-0.2h0.1c0.1,0.2,0.2,0.3,0.2,0.3h0.1v0
			c0,0-0.1-0.1-0.1-0.2l-0.1-0.1c0.1,0,0.2-0.1,0.2-0.2c0-0.1-0.1-0.2-0.2-0.2L293.9,35.2L293.9,35.2z M294.9,35.5
			c0-0.4-0.3-0.7-0.6-0.7c-0.4,0-0.7,0.3-0.7,0.7c0,0.4,0.3,0.7,0.7,0.7C294.6,36.2,294.9,35.9,294.9,35.5 M294.8,35.5
			c0,0.3-0.2,0.6-0.5,0.6c-0.3,0-0.5-0.3-0.5-0.6c0-0.3,0.2-0.6,0.5-0.6C294.5,34.9,294.8,35.2,294.8,35.5"/>
	</g>
</g>
</svg>
