<?xml version="1.0" encoding="utf-8"?>
<!-- Generator: Adobe Illustrator 21.1.0, SVG Export Plug-In . SVG Version: 6.00 Build 0)  -->
<svg version="1.1" id="レイヤー_1" xmlns="http://www.w3.org/2000/svg" xmlns:xlink="http://www.w3.org/1999/xlink" x="0px"
	 y="0px" width="540.6px" height="80.4px" viewBox="0 0 540.6 80.4" style="enable-background:new 0 0 540.6 80.4;"
	 xml:space="preserve">
<style type="text/css">
	.st0{fill:#054E3C;}
	.st1{fill:#4F6651;}
	.st2{fill:#7F8571;}
	.st3{fill:#ABAB9C;}
	.st4{fill:#D6D4CC;}
	.st5{fill:none;stroke:#A3A3A3;stroke-miterlimit:10;}
	.st6{fill:#A3A3A3;}
	.st7{fill:#F5A000;}
	.st8{fill:#DE0716;}
</style>
<g>
	<g>
		<rect x="444.6" y="0" class="st0" width="96" height="12"/>
		<rect x="348.6" y="0" class="st1" width="96" height="12"/>
		<rect x="252.6" y="0" class="st2" width="96" height="12"/>
		<rect x="156.6" y="0" class="st3" width="96" height="12"/>
		<rect x="60.6" y="0" class="st4" width="96" height="12"/>
	</g>
	<g>
		<rect x="252.6" y="31.4" class="st2" width="96" height="12"/>
		<rect x="156.6" y="31.4" class="st3" width="96" height="12"/>
		<rect x="60.6" y="31.4" class="st4" width="96" height="12"/>
	</g>
	<g>
		<path d="M3.1,8.3c0.5,0.7,1.2,1.2,2.1,1.6c-0.2,0.2-0.3,0.3-0.5,0.6C3.8,9.9,3.2,9.4,2.6,8.6c-0.4,1.1-1,1.7-2.2,2.4
			c-0.1-0.3-0.2-0.4-0.5-0.6C0.7,10,0.9,9.8,1.3,9.4C1.7,9.1,1.9,8.8,2,8.3H1c-0.4,0-0.7,0-1,0.1V7.6c0.3,0,0.5,0.1,1,0.1h1.2
			c0.1-0.3,0.1-0.5,0.1-0.9h-1c-0.4,0-0.7,0-1,0.1V6.1c0.3,0,0.5,0.1,1,0.1h1.1c0-0.3,0-0.4,0-0.8H1.2c-0.5,0-0.6,0-0.8,0
			c0-0.3,0-0.3,0-0.5V3.5c0-0.2,0-0.2,0-0.5c0.2,0,0.3,0,0.8,0h3.2c0.4,0,0.6,0,0.8,0c0,0.2,0,0.3,0,0.4v1.6c0,0.2,0,0.3,0,0.5
			c-0.2,0-0.4,0-0.8,0H3.1c0,0.4,0,0.4,0,0.8h1.2c0.5,0,0.6,0,0.9,0v0.7c-0.3,0-0.5-0.1-0.9-0.1H3c0,0.4-0.1,0.6-0.1,0.9h1.6
			c0.5,0,0.7,0,0.9-0.1v0.7c-0.3,0-0.5-0.1-1-0.1H3.1z M1.5,0.9c0-0.3,0-0.5,0-0.7h0.8c0,0.2,0,0.3,0,0.7v0.2h1.3V0.9
			c0-0.4,0-0.5,0-0.7h0.8c0,0.2,0,0.3,0,0.7v0.3h0.3c0.4,0,0.7,0,1-0.1v0.7c-0.3,0-0.6-0.1-1-0.1H4.1V2c0,0.3,0,0.5,0,0.7H3.4
			c0-0.2,0-0.3,0-0.7V1.8H2.1V2c0,0.3,0,0.5,0,0.7H1.4c0-0.2,0-0.4,0-0.7V1.8H1c-0.4,0-0.7,0-1,0.1V1.1c0.3,0,0.6,0.1,1,0.1h0.4V0.9
			z M1.1,3.6v1.2h1.4c0-0.1,0-0.5,0-1.2H1.1z M3.1,4.8L3.1,4.8l1.4,0.1V3.6H3.1L3.1,4.8z M8.2,2.1c0.4-0.6,0.6-1.2,0.8-2l0.7,0.2
			C9.4,1.2,9.2,1.6,8.9,2.1h0.7c0.5,0,0.9,0,1.2-0.1v0.8c-0.3,0-0.6-0.1-1.2-0.1H9v1.7h0.5c0.5,0,0.9,0,1.1-0.1v0.8
			c-0.2,0-0.6-0.1-1.1-0.1H9v1.8h0.5c0.5,0,0.9,0,1.1-0.1v0.8c-0.3,0-0.6-0.1-1.1-0.1H9v2h0.8c0.6,0,0.9,0,1.2-0.1v0.8
			c-0.3,0-0.6-0.1-1.2-0.1h-3V11H5.9C6,10.7,6,10.4,6,9.8V3.4C5.9,3.6,5.8,3.7,5.6,4C5.5,3.8,5.4,3.6,5.2,3.4C5.8,2.8,6.3,2,6.6,0.9
			c0.1-0.3,0.2-0.5,0.2-0.8l0.8,0.2C7.5,0.4,7.5,0.4,7.4,0.7C7.2,1.2,7,1.7,6.8,2.1H8.2z M8.3,4.5V2.8H6.7v1.7H8.3z M6.7,6.9h1.6
			V5.1H6.7V6.9z M6.7,9.6h1.6v-2H6.7V9.6z"/>
		<path d="M23.3,6.6c-0.4,0.6-0.6,0.8-1,1.2c-0.9,0.9-1.8,1.4-3.3,2c-0.1-0.3-0.2-0.4-0.5-0.6c2-0.7,3.1-1.5,3.9-2.6h-1.8
			c-0.7,0.6-1.3,1-2.4,1.5c-0.2-0.3-0.3-0.4-0.5-0.6c1.2-0.4,1.9-0.9,2.7-1.5c0.4-0.3,0.6-0.6,0.9-1h-0.6c-0.6,0-0.9,0-1.3,0
			c0-0.3,0-0.6,0-1V1.5c0-0.4,0-0.7,0-1c0.4,0,0.8,0,1.4,0h4.7c0.6,0,0.9,0,1.3,0c0,0.3,0,0.5,0,1v2.4c0,0.5,0,0.7,0,1
			c-0.4,0-0.8,0-1.3,0h-3.3c-0.3,0.5-0.5,0.7-0.8,1.1h5.4c0.5,0,0.8,0,1,0c0,0.2,0,0.2-0.1,1.3c-0.1,1.1-0.3,2.4-0.4,2.9
			c-0.2,0.8-0.6,1-1.5,1c-0.5,0-0.8,0-1.3-0.1c0-0.3,0-0.5-0.2-0.8c0.5,0.1,0.9,0.1,1.3,0.1c0.6,0,0.8-0.1,1-0.7
			c0.2-0.6,0.3-1.6,0.4-3h-1.1c-0.4,0.8-0.6,1.2-1,1.7c-0.6,0.8-1.5,1.6-2.5,2.2c-0.3,0.2-0.6,0.3-1.1,0.6c-0.2-0.2-0.3-0.4-0.6-0.6
			c1-0.4,1.5-0.7,2.1-1.1c1.1-0.8,1.7-1.5,2.3-2.7H23.3z M20.1,2.4h5.8V1.2h-5.8V2.4z M20.1,4.2h5.8V3h-5.8V4.2z"/>
		<path d="M37,3.7C37,7.6,36.7,9,35.7,10.8c-0.2-0.3-0.4-0.4-0.6-0.6c0.4-0.7,0.7-1.3,0.9-2.2c0.3-1.2,0.4-2.8,0.4-5.5
			c0-0.8,0-1.1,0-1.5c0.4,0,0.8,0.1,1.2,0.1h3.2V0.8c0-0.3,0-0.5-0.1-0.8h0.9c0,0.2-0.1,0.5-0.1,0.8v0.3h3.3c0.6,0,1,0,1.3-0.1v0.8
			c-0.4,0-0.7-0.1-1.2-0.1h-7.7l0,1.3h2.2V2.9c0-0.3,0-0.6,0-0.8H40c0,0.3,0,0.5,0,0.8v0.2h2.8V2.9c0-0.3,0-0.6,0-0.8h0.8
			c0,0.2,0,0.4,0,0.8v0.2h1.4c0.5,0,0.8,0,1.1-0.1v0.8c-0.3,0-0.6-0.1-1.1-0.1h-1.4v1.2c0,0.3,0,0.5,0,0.7c-0.2,0-0.3,0-0.8,0h-2.7
			c-0.5,0-0.7,0-0.9,0c0-0.2,0-0.5,0-0.7V3.7H37z M44.5,7c-0.1,0.2-0.2,0.2-0.4,0.5c-0.6,0.6-1.2,1.3-1.9,1.8c1.2,0.6,2.5,0.9,3.9,1
			c-0.2,0.3-0.3,0.5-0.4,0.8c-1.8-0.3-3-0.6-4.2-1.4c-1.3,0.7-2.5,1.1-4.4,1.4c-0.1-0.3-0.2-0.5-0.3-0.7c1.8-0.2,2.9-0.5,4-1.1
			c-0.8-0.6-1.3-1.1-1.9-2c-0.6,0-0.9,0-1.2,0.1V6.5c0.3,0,0.6,0.1,1.2,0.1h4.4c0.4,0,0.6,0,0.8,0L44.5,7z M39.7,7.1
			c0.5,0.7,0.9,1.1,1.8,1.6c0.8-0.5,1.2-0.8,1.9-1.6H39.7z M40,5h2.8V3.7H40V5z"/>
	</g>
	<g>
		<path d="M5.4,32.2c0,0.3-0.1,0.6-0.1,1.1l0,7.2c1.4-0.2,2.5-0.6,3.4-1.2c1.2-0.7,2-1.6,2.7-2.9c0.3,0.4,0.4,0.5,0.7,0.8
			c-1.6,2.4-3.4,3.6-6.6,4.2c-0.5,0.1-0.5,0.1-0.7,0.2L4.3,41c0.1-0.2,0.1-0.3,0.1-0.8l0-6.9v-0.4c0-0.2,0-0.4,0-0.6H5.4z"/>
		<path d="M23.4,34.7c0,0.2,0,0.2,0,0.8c0,2-0.4,3.2-1.2,4.2c-0.7,0.9-1.6,1.5-3.1,2.1c-0.2-0.4-0.3-0.5-0.6-0.8
			c1-0.3,1.6-0.6,2.2-1.1c1.3-1,1.7-2.2,1.7-4.6c0-0.3,0-0.4,0-0.6H23.4z M28.1,33.2c-0.1,0.2-0.1,0.2-0.3,0.5
			c-0.8,1.6-1.9,2.7-3.5,3.4c-0.2-0.3-0.3-0.4-0.6-0.7c0.8-0.3,1.3-0.6,1.9-1.1c0.6-0.5,1-1.1,1.3-1.8h-6.8c-0.7,0-1,0-1.4,0.1v-0.9
			c0.4,0.1,0.7,0.1,1.4,0.1h6.4c0.8,0,0.8,0,1-0.1L28.1,33.2z"/>
		<path d="M37,35.1c-0.1,3.9-0.3,5.3-1.3,7.1c-0.2-0.3-0.4-0.4-0.6-0.6c0.4-0.7,0.7-1.3,0.9-2.2c0.3-1.2,0.4-2.8,0.4-5.5
			c0-0.8,0-1.1,0-1.5c0.4,0,0.8,0.1,1.2,0.1h3.2v-0.3c0-0.3,0-0.5-0.1-0.8h0.9c0,0.2-0.1,0.5-0.1,0.8v0.3h3.3c0.6,0,1,0,1.3-0.1v0.8
			c-0.4,0-0.7-0.1-1.2-0.1h-7.7l0,1.3h2.2v-0.2c0-0.3,0-0.6,0-0.8H40c0,0.3,0,0.5,0,0.8v0.2h2.8v-0.2c0-0.3,0-0.6,0-0.8h0.8
			c0,0.2,0,0.4,0,0.8v0.2h1.4c0.5,0,0.8,0,1.1-0.1v0.8c-0.3,0-0.6-0.1-1.1-0.1h-1.4v1.2c0,0.3,0,0.5,0,0.7c-0.2,0-0.3,0-0.8,0h-2.7
			c-0.5,0-0.7,0-0.9,0c0-0.2,0-0.5,0-0.7v-1.2H37z M44.5,38.3c-0.1,0.2-0.2,0.2-0.4,0.5c-0.6,0.6-1.2,1.3-1.9,1.8
			c1.2,0.6,2.5,0.9,3.9,1c-0.2,0.3-0.3,0.5-0.4,0.8c-1.8-0.3-3-0.6-4.2-1.4c-1.3,0.7-2.5,1.1-4.4,1.4c-0.1-0.3-0.2-0.5-0.3-0.7
			c1.8-0.2,2.9-0.5,4-1.1c-0.8-0.6-1.3-1.1-1.9-2c-0.6,0-0.9,0-1.2,0.1v-0.7c0.3,0,0.6,0.1,1.2,0.1h4.4c0.4,0,0.6,0,0.8,0L44.5,38.3
			z M39.7,38.5c0.5,0.7,0.9,1.1,1.8,1.6c0.8-0.5,1.2-0.8,1.9-1.6H39.7z M40,36.3h2.8v-1.3H40V36.3z"/>
	</g>
	<g>
		<path d="M4.3,69.3c0-0.5,0-0.8-0.1-1.2c0.4,0,0.7,0.1,1.3,0.1H11c0.6,0,0.9,0,1.2-0.1c0,0.3-0.1,0.6-0.1,1.1v7.7
			c0,0.6,0,0.9,0.1,1.3h-0.9v-0.8H5.1v0.8H4.3c0-0.4,0.1-0.7,0.1-1.3V69.3z M5.1,72.2h6.2v-3.4H5.1V72.2z M5.1,76.7h6.2V73H5.1V76.7
			z"/>
		<path d="M20.3,77.7c0.8-0.7,1.2-1.3,1.6-2.2l0.7,0.3c-0.5,1.1-0.9,1.6-1.6,2.4L20.3,77.7z M23.1,67.9c0.5,0,0.8,0,1.1,0
			c0,0.3,0,0.5,0,1.1v4.7c0,0.7,0,1,0,1.2c-0.3,0-0.6,0-1.1,0H22c-0.6,0-0.9,0-1.1,0c0-0.3,0-0.6,0-1.2v-4.7c0-0.5,0-0.9,0-1.2
			c0.3,0,0.6,0,1.2,0H23.1z M21.6,71h1.9v-2.4h-1.9V71z M21.6,74.2h1.9v-2.6h-1.9V74.2z M24,78.1c0-0.9-0.1-1.4-0.3-2.3l0.7-0.1
			c0.2,0.8,0.3,1.4,0.4,2.3L24,78.1z M25.8,68.6c-0.4,0-0.9,0-1.2,0.1v-0.8c0.3,0,0.8,0.1,1.2,0.1h3.7c0.6,0,0.8,0,1.1,0
			c0,0.1,0,0.3,0,0.6c-0.1,1.3-0.2,1.9-0.4,2.3c-0.2,0.3-0.5,0.4-1.1,0.4c-0.3,0-0.8,0-1.3-0.1c0-0.4-0.1-0.5-0.2-0.8
			c0.6,0.1,1.1,0.2,1.5,0.2c0.3,0,0.4-0.1,0.5-0.3c0.1-0.3,0.2-0.9,0.2-1.6h-2.4c-0.3,1.4-1.2,2.4-2.7,3.1c-0.2-0.3-0.3-0.4-0.5-0.6
			c1.3-0.5,2.2-1.3,2.4-2.5H25.8z M25.1,73c0-0.6,0-0.8,0-1.1c0.3,0,0.6,0,1.1,0h3c0.5,0,0.8,0,1.2-0.1c0,0.3,0,0.6,0,1.1v1
			c0,0.6,0,0.9,0,1.2c-0.3,0-0.6,0-1.2,0h-2.9c-0.5,0-0.9,0-1.2,0c0-0.3,0-0.6,0-1.1V73z M25.8,74.5h3.7v-1.9h-3.7V74.5z M26.8,78
			c-0.2-0.9-0.3-1.4-0.6-2.3l0.7-0.2c0.3,0.8,0.5,1.3,0.7,2.3L26.8,78z M30.3,78.2c-0.5-1-0.9-1.6-1.5-2.4l0.6-0.3
			c0.7,0.8,1,1.3,1.6,2.3L30.3,78.2z"/>
	</g>
	<line class="st5" x1="67.3" y1="73.4" x2="536.8" y2="73.4"/>
	<g>
		<circle class="st6" cx="180.6" cy="73.4" r="3.5"/>
	</g>
	<g>
		<circle class="st6" cx="297.1" cy="73.4" r="3.5"/>
	</g>
	<g>
		<circle class="st6" cx="537.1" cy="73.4" r="3.5"/>
	</g>
	<g>
		<path class="st7" d="M417.1,80.4c-3.3,0-6.1-2.3-6.8-5.5c-0.4-1.8-0.1-3.7,1-5.3c1-1.6,2.6-2.7,4.4-3c0.5-0.1,1-0.2,1.5-0.2
			c3.3,0,6.1,2.3,6.8,5.5c0.8,3.8-1.6,7.5-5.4,8.3C418.1,80.3,417.6,80.4,417.1,80.4z"/>
		<circle class="st8" cx="417.1" cy="73.4" r="3.5"/>
	</g>
	<g>
		<circle class="st6" cx="64.1" cy="73.4" r="3.5"/>
	</g>
</g>
</svg>
