<?xml version="1.0" encoding="utf-8"?>
<!-- Generator: Adobe Illustrator 21.0.0, SVG Export Plug-In . SVG Version: 6.00 Build 0)  -->
<svg version="1.1" id="レイヤー_1" xmlns="http://www.w3.org/2000/svg" xmlns:xlink="http://www.w3.org/1999/xlink" x="0px"
	 y="0px" width="22.4px" height="13px" viewBox="0 0 22.4 13" style="enable-background:new 0 0 22.4 13;" xml:space="preserve">
<g>
	<path d="M13.2,8.2c0,0.1,0,0.2,0,0.3c0,1.3-0.9,2.4-2,2.4c-1.1,0-2-1.1-2-2.4c0-0.1,0-0.2,0-0.3L1.7,1v12h19V1L13.2,8.2z"/>
	<path d="M12.8,7.1L20.3,0H2.1l7.4,7.1c0.4-0.6,1-1.1,1.7-1.1C11.9,6,12.5,6.4,12.8,7.1z"/>
	<path d="M10.2,8.4c0,0.8,0.5,1.4,1,1.4s1-0.6,1-1.4S11.7,7,11.2,7S10.2,7.7,10.2,8.4z"/>
</g>
</svg>
