<?xml version="1.0" encoding="utf-8"?>
<!-- Generator: Adobe Illustrator 21.0.0, SVG Export Plug-In . SVG Version: 6.00 Build 0)  -->
<svg version="1.1" id="レイヤー_1" xmlns="http://www.w3.org/2000/svg" xmlns:xlink="http://www.w3.org/1999/xlink" x="0px"
	 y="0px" width="26px" height="26px" viewBox="0 0 26 26" style="enable-background:new 0 0 26 26;" xml:space="preserve">
<style type="text/css">
	.st0{fill:none;stroke:#239883;stroke-miterlimit:10;}
	.st1{fill:none;stroke:#239883;stroke-linecap:round;stroke-linejoin:round;stroke-miterlimit:10;}
</style>
<g>
	<circle class="st0" cx="13" cy="13" r="12.5"/>
	<g>
		<path class="st1" d="M7.5,13.3c-0.9,3.5-1.2,6.5,0.3,7.6l0,0l0,0c1.5,1,4.2-0.5,7.1-2.7c5-4,3.3-4.8,1.6-5.9
			C16.2,12,15.7,12,15.3,12l3.2-4.6c0.5-0.7,0.4-1.7-0.3-2.1L18,5.1c-0.6-0.4-1.6-0.2-2.1,0.6L13,10.5c-0.2-0.4-0.4-0.8-0.8-1
			C10.5,8.3,9.2,7.1,7.5,13.3z"/>
		<line class="st1" x1="15.5" y1="11.7" x2="14.2" y2="13.5"/>
		<line class="st1" x1="13.2" y1="10.2" x2="12" y2="12.1"/>
		<line class="st1" x1="17.1" y1="8.7" x2="15.2" y2="7.4"/>
	</g>
</g>
</svg>
