<?xml version="1.0" encoding="utf-8"?>
<!-- Generator: Adobe Illustrator 21.0.0, SVG Export Plug-In . SVG Version: 6.00 Build 0)  -->
<svg version="1.1" id="レイヤー_1" xmlns="http://www.w3.org/2000/svg" xmlns:xlink="http://www.w3.org/1999/xlink" x="0px"
	 y="0px" width="26px" height="26px" viewBox="0 0 26 26" style="enable-background:new 0 0 26 26;" xml:space="preserve">
<style type="text/css">
	.st0{fill:none;stroke:#239883;stroke-miterlimit:10;}
	.st1{fill:none;stroke:#239883;stroke-linecap:round;stroke-linejoin:round;stroke-miterlimit:10;}
</style>
<g>
	<circle class="st0" cx="13" cy="13" r="12.5"/>
	<g>
		<line class="st1" x1="13.6" y1="6.2" x2="14.5" y2="4.1"/>
		<line class="st1" x1="11.4" y1="4.1" x2="12.3" y2="6.3"/>
		<path class="st1" d="M10.9,11.5c-0.6-0.5-1-1.3-1-2.2c0-1.7,1.3-3,3-3s3,1.3,3,3c0,0.7-0.3,1.4-0.7,1.9"/>
		<path class="st1" d="M15.8,19.7c-0.7,1.2-1.7,2.2-2.8,2.2h-0.2c-1.1,0-2.1-0.9-2.7-2"/>
		<path class="st1" d="M17.7,19.8c1.9-0.9,1.9-3.9,0.4-5.9C15.9,11,13,11.4,13,11.4S14,21.5,17.7,19.8z"/>
		<path class="st1" d="M8.3,19.8c-1.9-0.9-1.9-3.9-0.4-5.9c2.2-2.9,5.1-2.5,5.1-2.5S12,21.5,8.3,19.8z"/>
	</g>
</g>
</svg>
