<?xml version="1.0" encoding="utf-8"?>
<!-- Generator: Adobe Illustrator 21.0.0, SVG Export Plug-In . SVG Version: 6.00 Build 0)  -->
<svg version="1.1" id="レイヤー_1" xmlns="http://www.w3.org/2000/svg" xmlns:xlink="http://www.w3.org/1999/xlink" x="0px"
	 y="0px" width="26px" height="26px" viewBox="0 0 26 26" style="enable-background:new 0 0 26 26;" xml:space="preserve">
<style type="text/css">
	.st0{fill:none;stroke:#239883;stroke-miterlimit:10;}
	.st1{fill:none;stroke:#239883;stroke-linecap:round;stroke-linejoin:round;stroke-miterlimit:10;}
	.st2{fill:#239883;}
</style>
<g>
	<circle class="st0" cx="13" cy="13" r="12.5"/>
	<g>
		<g>
			<path class="st1" d="M18.5,5.8c0-0.2-0.1-0.3-0.3-0.3H8c-0.2,0-0.3,0.1-0.3,0.3c0,0-0.3,3.6-0.3,7.2c0,3.6,0.3,7.2,0.3,7.2
				c0,0.2,0.1,0.3,0.3,0.3h10.2c0.2,0,0.3-0.1,0.3-0.3c0,0,0.3-3.6,0.3-7.2C18.8,9.4,18.5,5.8,18.5,5.8L18.5,5.8z M17.9,19.9"/>
		</g>
		<line class="st1" x1="8.9" y1="7.7" x2="17.1" y2="7.7"/>
		<line class="st1" x1="8.9" y1="18.3" x2="17.1" y2="18.3"/>
		<g>
			<g>
				<g>
					<path class="st2" d="M10.9,13.7C9.8,13,9.8,12,10.3,11.5c0.4-0.5,1.6-0.7,2.2,0.3c0.3,0.4,0.6,1.4,0.8,2
						c0.1,0.2-0.1,0.4-0.3,0.4C12.4,14.1,11.3,14,10.9,13.7z"/>
				</g>
				<g>
					<path class="st2" d="M15.2,13.7c1.1-0.7,1.1-1.7,0.7-2.2c-0.4-0.5-1.6-0.7-2.2,0.3c-0.3,0.4-0.6,1.4-0.8,2
						c-0.1,0.2,0.1,0.4,0.3,0.4C13.7,14.1,14.8,14,15.2,13.7z"/>
				</g>
			</g>
			<line class="st0" x1="13.1" y1="15.8" x2="13.1" y2="13.5"/>
		</g>
	</g>
</g>
</svg>
