<?xml version="1.0" encoding="utf-8"?>
<!-- Generator: Adobe Illustrator 21.0.0, SVG Export Plug-In . SVG Version: 6.00 Build 0)  -->
<svg version="1.1" id="レイヤー_1" xmlns="http://www.w3.org/2000/svg" xmlns:xlink="http://www.w3.org/1999/xlink" x="0px"
	 y="0px" width="18px" height="18px" viewBox="0 0 18 18" style="enable-background:new 0 0 18 18;" xml:space="preserve">
<path d="M17.5,17.5c-0.7,0.7-1.7,0.7-2.4,0l-3-3c-1.2,0.8-2.7,1.3-4.2,1.3C3.5,15.8,0,12.2,0,7.9S3.5,0,7.9,0s7.9,3.5,7.9,7.9
	c0,1.6-0.5,3-1.3,4.2l3,3C18.2,15.8,18.2,16.8,17.5,17.5z M7.9,2.3c-3.1,0-5.6,2.5-5.6,5.6s2.5,5.6,5.6,5.6c3.1,0,5.6-2.5,5.6-5.6
	S11,2.3,7.9,2.3z"/>
</svg>
