<?xml version="1.0" standalone="no"?><!DOCTYPE svg PUBLIC "-//W3C//DTD SVG 1.1//EN"
        "http://www.w3.org/Graphics/SVG/1.1/DTD/svg11.dtd">
<svg t="1513514582493" class="icon" style="" viewBox="0 0 1152 1024" version="1.1" xmlns="http://www.w3.org/2000/svg"
     p-id="1388" xmlns:xlink="http://www.w3.org/1999/xlink" width="225" height="200">
    <defs>
        <style type="text/css"></style>
    </defs>
    <path d="M884.736 731.050667a436.693333 436.693333 0 0 0-162.517333-102.997334 331.392 331.392 0 0 0 87.168-62.805333 328.618667 328.618667 0 0 0 96.981333-234.112 328.789333 328.789333 0 0 0-96.981333-234.112C746.88 34.474667 663.765333 0 575.274667 0S403.669333 34.474667 341.162667 96.981333a328.96 328.96 0 0 0-96.981334 234.154667c0 88.448 34.432 171.605333 96.981334 234.112a332.373333 332.373333 0 0 0 87.168 62.805333 436.053333 436.053333 0 0 0-162.517334 102.997334A434.517333 434.517333 0 0 0 137.984 1024h57.984a377.002667 377.002667 0 0 1 110.848-251.989333 376.832 376.832 0 0 1 245.930667-110.549334 304.853333 304.853333 0 0 0 45.013333 0 376.874667 376.874667 0 0 1 245.973333 110.549334A377.216 377.216 0 0 1 954.581333 1024h57.984a434.346667 434.346667 0 0 0-127.829333-292.949333zM302.122667 331.136c0-150.613333 122.538667-273.152 273.152-273.152s273.152 122.538667 273.152 273.152a273.493333 273.493333 0 0 1-251.050667 272.256 423.893333 423.893333 0 0 0-22.144-0.512c-7.424 0-14.805333 0.128-22.144 0.512a273.493333 273.493333 0 0 1-250.965333-272.256z"
          p-id="1389"></path>
</svg>